<svg width="345" height="280" viewBox="0 0 345 280" fill="none" xmlns="http://www.w3.org/2000/svg">
<g clip-path="url(#clip0_388_3121)" filter="url(#filter0_d_388_3121)">
<rect width="343" height="278" transform="translate(1)" fill="white"/>
<g opacity="0.8" filter="url(#filter1_f_388_3121)">
<path d="M-41 36.1562L75.6097 278H284.369L386 33L-41 36.1562Z" fill="url(#paint0_linear_388_3121)"/>
</g>
<path d="M1 28C43.0373 35.6716 134.764 55.2683 165.37 72.2818C203.629 93.5488 78.462 126.469 72.794 133.752C67.0602 141.12 39.3151 185.062 355.592 241.392C361.481 242.441 367.787 242.794 373.508 241.047C412.701 229.076 425.769 177.486 287.231 125.304" stroke="#090A0C" stroke-opacity="0.3" stroke-width="1.88932" stroke-dasharray="7.56 7.56"/>
<g filter="url(#filter2_d_388_3121)">
<path d="M45.2451 28.3963C45.2451 26.4352 46.8349 24.8455 48.7959 24.8455H76.8465C78.8076 24.8455 80.3973 26.4352 80.3973 28.3963V61.7271C80.3973 63.6881 78.8076 65.2779 76.8465 65.2779H48.7959C46.8349 65.2779 45.2451 63.6881 45.2451 61.7271V28.3963Z" fill="white"/>
<path d="M45.4179 28.3963C45.4179 26.5307 46.9303 25.0183 48.7959 25.0183H76.8465C78.7121 25.0183 80.2245 26.5307 80.2245 28.3963V61.7271C80.2245 63.5927 78.7121 65.1051 76.8465 65.1051H48.7959C46.9303 65.1051 45.4179 63.5927 45.4179 61.7271V28.3963Z" stroke="#EBECEF" stroke-width="0.345664"/>
<g clip-path="url(#clip1_388_3121)">
<path d="M64.2446 34.7745C64.694 34.3708 65.2184 34.3202 65.7931 34.2982C66.0903 34.2868 66.239 34.2811 66.3605 34.3211C66.5534 34.3845 66.7118 34.5271 66.795 34.7122C66.8474 34.829 66.8573 34.9774 66.877 35.2742C66.9152 35.8481 66.9197 36.3749 66.5651 36.864C66.2665 37.2759 65.7285 37.5112 65.4873 37.9612C65.3031 38.3048 65.4151 38.6447 65.5203 38.9951L66.3078 41.6182C66.4648 42.1409 66.3843 42.4855 66.0334 42.8751C65.8467 43.0824 65.6823 43.081 65.5092 42.8348L63.3894 39.8199L62.4939 40.6116C62.1692 40.8987 62.0068 41.0422 61.9278 41.2363C61.7425 41.6911 61.9098 42.3507 61.9418 42.8315C61.9594 43.0973 61.7571 43.6335 61.4328 43.6682C61.2326 43.6897 61.1518 43.4531 61.0792 43.3091L60.3805 41.9227C60.2134 41.5912 60.207 41.5854 59.8598 41.4539L58.408 40.9039C58.2572 40.8468 58.0135 40.7911 58.0139 40.5898C58.0146 40.2636 58.5267 40.0063 58.7928 39.9962C59.2744 39.9777 59.9479 40.0751 60.3808 39.8434C60.5656 39.7444 60.6914 39.568 60.943 39.2151L61.6367 38.2418L58.4168 36.4485C58.1538 36.3021 58.1353 36.1388 58.3219 35.9315C58.6728 35.5418 59.007 35.4257 59.5433 35.5272L62.2343 36.0363C62.5938 36.1043 62.9436 36.1802 63.266 35.9611C63.6884 35.6742 63.8661 35.1146 64.2446 34.7745Z" fill="#783BF0" stroke="#783BF0" stroke-width="0.760885" stroke-linecap="round" stroke-linejoin="round"/>
</g>
<path d="M54.4765 55.6284L54.235 51.0187L57.1918 50.8638L57.2349 51.6869L55.1803 51.7946L55.2383 52.9009L56.9505 52.8112L56.9936 53.6344L55.2814 53.7241L55.3787 55.5811L54.4765 55.6284ZM58.0307 55.4422L57.8582 52.1495L58.7274 52.104L58.8999 55.3967L58.0307 55.4422ZM58.2649 51.5934C58.1331 51.6003 58.0143 51.5581 57.9082 51.4668C57.802 51.3711 57.7453 51.2552 57.7381 51.1191C57.731 50.983 57.7754 50.864 57.8713 50.7621C57.967 50.6559 58.0807 50.5993 58.2124 50.5924C58.3485 50.5853 58.4675 50.6297 58.5694 50.7256C58.6754 50.8169 58.732 50.9306 58.7391 51.0667C58.7462 51.2027 58.702 51.3239 58.6063 51.4302C58.5148 51.5318 58.4009 51.5862 58.2649 51.5934ZM61.2369 56.6807C60.9867 56.6938 60.7641 56.6879 60.569 56.6629C60.374 56.6379 60.2092 56.6003 60.0745 56.5501C59.9398 56.5 59.8292 56.4485 59.7428 56.3958L60.0487 55.6798C60.112 55.7117 60.1953 55.747 60.2986 55.7856C60.4021 55.8286 60.5249 55.8618 60.667 55.8852C60.8093 55.9129 60.9727 55.922 61.157 55.9123C61.3326 55.9031 61.4845 55.86 61.6125 55.7828C61.7451 55.7098 61.845 55.5989 61.912 55.4502C61.9837 55.3055 62.0138 55.1235 62.0023 54.9039L61.847 51.9406L62.7163 51.895L62.8702 54.8321C62.8895 55.2008 62.8358 55.5206 62.7091 55.7914C62.5826 56.0665 62.3935 56.279 62.1416 56.4286C61.8941 56.5781 61.5925 56.6621 61.2369 56.6807ZM60.9874 55.1948C60.6845 55.2107 60.4176 55.1587 60.1868 55.0387C59.9604 54.9185 59.7795 54.7431 59.6442 54.5124C59.5088 54.2818 59.4326 54.004 59.4156 53.6792C59.3977 53.3367 59.4436 53.0372 59.5534 52.7805C59.663 52.5194 59.824 52.3151 60.0364 52.1675C60.2529 52.0153 60.5126 51.9312 60.8156 51.9154C61.079 51.9016 61.3109 51.9598 61.5115 52.0902C61.7118 52.2162 61.8713 52.4037 61.99 52.6528C62.1087 52.9019 62.1772 53.2021 62.1956 53.5533C62.2122 53.8694 62.174 54.1488 62.0811 54.3914C61.9881 54.6339 61.8485 54.8262 61.6622 54.968C61.4758 55.1054 61.2508 55.181 60.9874 55.1948ZM61.1993 54.4508C61.3486 54.4429 61.4762 54.3988 61.582 54.3185C61.692 54.2334 61.7743 54.1235 61.8288 53.9886C61.8832 53.8492 61.9059 53.694 61.8969 53.5228C61.8877 53.3471 61.8467 53.1952 61.774 53.067C61.7056 52.9385 61.6124 52.8399 61.4943 52.7713C61.3807 52.7024 61.2492 52.6718 61.0999 52.6797C60.9463 52.6877 60.8121 52.7322 60.6975 52.813C60.5829 52.8938 60.4961 53.0018 60.4371 53.137C60.3782 53.2722 60.3511 53.4277 60.3559 53.6035C60.3693 53.7745 60.4125 53.9263 60.4854 54.0589C60.5582 54.1872 60.6559 54.2877 60.7786 54.3605C60.9054 54.4287 61.0457 54.4588 61.1993 54.4508ZM63.6236 55.1492L63.3821 50.5395L64.2514 50.4939L64.4929 55.1036L63.6236 55.1492ZM65.8099 55.0346L65.7216 53.3488L66.5909 53.3032L66.6792 54.9891L65.8099 55.0346ZM65.7216 53.3488C65.7099 53.1249 65.6745 52.9529 65.6153 52.8327C65.5562 52.7125 65.4792 52.6285 65.3842 52.5807C65.289 52.5284 65.18 52.5055 65.057 52.512C64.8329 52.5193 64.6631 52.5964 64.5475 52.7434C64.4363 52.8901 64.388 53.1017 64.4025 53.3783L64.1127 53.3935C64.0943 53.0422 64.1293 52.7433 64.2176 52.4965C64.3101 52.2451 64.4452 52.051 64.6229 51.914C64.8048 51.7724 65.0208 51.695 65.2711 51.6819C65.5345 51.6681 65.759 51.7092 65.9445 51.8051C66.1344 51.9008 66.2835 52.0581 66.3918 52.2769C66.4999 52.4914 66.5632 52.7742 66.5816 53.1254L66.5909 53.3032L65.7216 53.3488ZM68.7137 54.9617C68.3493 54.9808 68.068 54.9053 67.8698 54.7352C67.676 54.5649 67.5703 54.3129 67.5528 53.9792L67.3769 50.6207L68.2461 50.5752L68.4121 53.7427C68.4194 53.8832 68.4558 53.9891 68.5212 54.0606C68.5863 54.1276 68.6782 54.158 68.7967 54.1518C68.8406 54.1495 68.8884 54.1382 68.9402 54.1178C68.9917 54.0931 69.045 54.0595 69.1 54.017L69.4371 54.6531C69.3358 54.7376 69.2206 54.8075 69.0915 54.8627C68.9669 54.9221 68.841 54.9551 68.7137 54.9617ZM66.9359 52.4135L66.8973 51.676L69.1231 51.5593L69.1618 52.2969L66.9359 52.4135ZM71.2183 54.8305C71.0076 54.8415 70.8084 54.8212 70.6208 54.7694C70.433 54.7132 70.2657 54.6295 70.119 54.5183C69.9721 54.4027 69.8545 54.2592 69.7663 54.0878L70.4925 53.7063C70.5639 53.8083 70.6587 53.8957 70.777 53.9688C70.8951 54.0374 71.0287 54.0678 71.178 54.06C71.3229 54.0524 71.4338 54.0268 71.5107 53.9832C71.5874 53.9351 71.6237 53.8716 71.6196 53.7926C71.6155 53.7135 71.5795 53.6582 71.5118 53.6265C71.4483 53.5902 71.361 53.5618 71.2498 53.5412L70.9428 53.478C70.6223 53.4112 70.3652 53.2926 70.1714 53.1223C69.9817 52.9473 69.8807 52.7413 69.8682 52.5042C69.8505 52.1662 69.9444 51.8993 70.1499 51.7037C70.3597 51.5078 70.6644 51.3994 71.0639 51.3784C71.2702 51.3676 71.4628 51.3883 71.6417 51.4406C71.8249 51.4926 71.983 51.5702 72.1161 51.6733C72.2491 51.7764 72.3436 51.8991 72.3995 52.0414L71.699 52.4083C71.6636 52.3221 71.5853 52.2558 71.464 52.2093C71.3425 52.1584 71.2225 52.1361 71.1039 52.1423C70.9854 52.1485 70.8946 52.1797 70.8315 52.2358C70.7725 52.2873 70.7454 52.357 70.75 52.4448C70.753 52.5019 70.7862 52.5486 70.8498 52.5849C70.9131 52.6168 71.0025 52.6429 71.118 52.6633L71.5516 52.7462C71.7695 52.7876 71.9452 52.8642 72.0787 52.9761C72.2164 53.0834 72.3175 53.2079 72.3822 53.3498C72.451 53.4871 72.489 53.6238 72.4961 53.7598C72.5065 53.9574 72.4564 54.1361 72.3459 54.296C72.2396 54.4512 72.0877 54.5759 71.8901 54.6699C71.6969 54.7636 71.473 54.8172 71.2183 54.8305Z" fill="black"/>
</g>
<g filter="url(#filter3_d_388_3121)">
<path d="M143.268 181.685C143.268 179.724 144.857 178.135 146.818 178.135H191.853C193.814 178.135 195.404 179.724 195.404 181.685V214.068C195.404 216.029 193.814 217.619 191.853 217.619H146.818C144.857 217.619 143.268 216.029 143.268 214.068V181.685Z" fill="white"/>
<path d="M143.44 181.685C143.44 179.82 144.953 178.307 146.818 178.307H191.853C193.719 178.307 195.231 179.82 195.231 181.685V214.068C195.231 215.934 193.719 217.446 191.853 217.446H146.818C144.953 217.446 143.44 215.934 143.44 214.068V181.685Z" stroke="#EBECEF" stroke-width="0.345664"/>
<g clip-path="url(#clip2_388_3121)">
<path d="M166.832 191.849C166.832 191.849 166.832 193.371 168.32 193.878" stroke="#C19F28" stroke-width="0.760885" stroke-linecap="round" stroke-linejoin="round"/>
<path d="M174.408 196.603C173.675 197.015 172.737 197.015 172.004 196.603C171.562 196.351 170.979 196.351 170.537 196.603C170.537 196.603 170.527 196.603 170.527 196.613C169.793 197.024 168.856 197.024 168.133 196.613C167.68 196.36 167.109 196.36 166.667 196.613M166.667 196.604C165.934 197.015 164.996 197.015 164.263 196.604" stroke="#C19F28" stroke-width="0.760885" stroke-linecap="round"/>
<path d="M168.827 189.313C168.827 191.974 170.985 194.132 173.646 194.132L174.407 194.131" stroke="#C19F28" stroke-width="0.760885" stroke-linecap="round"/>
<path d="M166.742 189.274C166.93 189.384 167.296 189.658 167.904 189.548C168.635 189.323 169.234 189.135 169.7 189.414C170.157 189.688 170.461 189.932 170.643 189.81C170.734 189.828 170.885 189.482 170.853 188.988C170.832 188.649 170.715 188.24 170.455 187.832C170.303 187.619 170.205 187.544 170.187 187.527C169.201 186.601 167.609 186.449 166.2 187.527C164.617 188.806 164.404 190.419 164.313 191.21C164.161 192.732 164.404 194.467 164.648 195.41" stroke="#C19F28" stroke-width="0.760885" stroke-linecap="round"/>
</g>
<path d="M151.447 207.993L151.446 203.377L154.368 203.377L154.368 204.202L152.35 204.202L152.35 205.25L154.091 205.25L154.091 206.055L152.35 206.055L152.35 207.169L154.394 207.169L154.394 207.993L151.447 207.993ZM154.875 207.993L156.227 206.107L157.17 204.696L158.198 204.696L156.886 206.536L155.917 207.993L154.875 207.993ZM157.242 207.993L156.286 206.536L154.96 204.696L155.989 204.696L156.932 206.107L158.277 207.993L157.242 207.993ZM158.733 209.312L158.733 204.696L159.551 204.696L159.604 205.303L159.604 209.312L158.733 209.312ZM160.6 208.072C160.323 208.072 160.087 208.002 159.894 207.861C159.705 207.721 159.56 207.521 159.459 207.261C159.358 207.002 159.307 206.696 159.307 206.345C159.307 205.988 159.358 205.683 159.459 205.428C159.56 205.169 159.705 204.969 159.894 204.828C160.087 204.687 160.322 204.617 160.599 204.617C160.903 204.617 161.164 204.687 161.384 204.828C161.608 204.968 161.782 205.169 161.905 205.428C162.028 205.683 162.09 205.988 162.09 206.344C162.09 206.696 162.028 207.002 161.905 207.261C161.782 207.52 161.608 207.721 161.384 207.861C161.164 208.002 160.903 208.072 160.6 208.072ZM160.375 207.274C160.534 207.274 160.672 207.235 160.791 207.156C160.914 207.076 161.011 206.967 161.081 206.826C161.151 206.685 161.186 206.525 161.186 206.345C161.186 206.164 161.151 206.004 161.081 205.863C161.015 205.722 160.92 205.615 160.797 205.54C160.679 205.461 160.54 205.421 160.382 205.421C160.232 205.421 160.098 205.461 159.98 205.54C159.861 205.619 159.769 205.729 159.703 205.87C159.637 206.006 159.604 206.164 159.604 206.345C159.604 206.525 159.637 206.685 159.703 206.826C159.769 206.967 159.859 207.077 159.973 207.156C160.092 207.235 160.226 207.274 160.375 207.274ZM164.131 208.072C163.806 208.072 163.518 208 163.268 207.855C163.017 207.705 162.819 207.501 162.674 207.241C162.533 206.982 162.463 206.683 162.463 206.344C162.463 206.006 162.535 205.707 162.681 205.448C162.83 205.188 163.032 204.986 163.287 204.841C163.547 204.691 163.843 204.617 164.177 204.617C164.468 204.617 164.734 204.694 164.975 204.847C165.222 204.997 165.417 205.219 165.562 205.513C165.712 205.804 165.787 206.158 165.787 206.575L163.287 206.575L163.366 206.496C163.366 206.659 163.406 206.802 163.485 206.925C163.569 207.043 163.674 207.136 163.802 207.202C163.934 207.263 164.074 207.294 164.224 207.294C164.404 207.294 164.551 207.257 164.665 207.182C164.78 207.103 164.868 207.002 164.929 206.879L165.707 207.182C165.615 207.367 165.494 207.527 165.345 207.663C165.2 207.795 165.026 207.896 164.824 207.967C164.622 208.037 164.391 208.072 164.131 208.072ZM163.413 206.008L163.333 205.929L164.923 205.929L164.85 206.008C164.85 205.85 164.813 205.725 164.738 205.632C164.663 205.536 164.571 205.465 164.461 205.421C164.356 205.377 164.252 205.355 164.151 205.355C164.05 205.355 163.942 205.377 163.828 205.421C163.714 205.465 163.615 205.536 163.531 205.632C163.452 205.725 163.413 205.85 163.413 206.008ZM166.886 206.259C166.886 205.903 166.954 205.608 167.09 205.375C167.231 205.142 167.409 204.968 167.624 204.854C167.844 204.74 168.073 204.683 168.31 204.683L168.31 205.527C168.108 205.527 167.917 205.551 167.737 205.599C167.561 205.648 167.418 205.727 167.308 205.837C167.198 205.946 167.143 206.087 167.143 206.259L166.886 206.259ZM166.273 207.993L166.273 204.696L167.143 204.696L167.143 207.993L166.273 207.993ZM168.804 207.993L168.804 204.696L169.675 204.696L169.675 207.993L168.804 207.993ZM169.239 204.162C169.107 204.162 168.991 204.113 168.89 204.016C168.789 203.915 168.738 203.797 168.738 203.66C168.738 203.524 168.789 203.408 168.89 203.311C168.991 203.21 169.107 203.159 169.239 203.159C169.376 203.159 169.492 203.21 169.589 203.311C169.69 203.408 169.741 203.524 169.741 203.66C169.741 203.797 169.69 203.915 169.589 204.016C169.492 204.113 169.376 204.162 169.239 204.162ZM171.948 208.072C171.623 208.072 171.335 207.999 171.084 207.854C170.833 207.705 170.636 207.5 170.491 207.241C170.35 206.982 170.279 206.683 170.279 206.344C170.279 206.006 170.352 205.707 170.497 205.447C170.647 205.188 170.849 204.986 171.104 204.841C171.363 204.691 171.66 204.616 171.994 204.616C172.284 204.616 172.55 204.693 172.792 204.847C173.038 204.997 173.234 205.219 173.379 205.513C173.528 205.803 173.603 206.157 173.603 206.575L171.104 206.575L171.183 206.496C171.183 206.659 171.222 206.801 171.302 206.925C171.385 207.043 171.491 207.136 171.618 207.201C171.75 207.263 171.891 207.294 172.04 207.294C172.22 207.294 172.368 207.256 172.482 207.182C172.596 207.103 172.684 207.001 172.746 206.878L173.524 207.182C173.432 207.366 173.311 207.527 173.161 207.663C173.016 207.795 172.843 207.896 172.64 207.966C172.438 208.037 172.207 208.072 171.948 208.072ZM171.229 206.008L171.15 205.929L172.739 205.929L172.667 206.008C172.667 205.85 172.629 205.724 172.554 205.632C172.48 205.535 172.387 205.465 172.278 205.421C172.172 205.377 172.069 205.355 171.968 205.355C171.866 205.355 171.759 205.377 171.644 205.421C171.53 205.465 171.431 205.535 171.348 205.632C171.269 205.724 171.229 205.85 171.229 206.008ZM174.089 207.993L174.089 204.696L174.907 204.696L174.96 205.302L174.96 207.993L174.089 207.993ZM176.272 207.993L176.272 206.305L177.142 206.304L177.142 207.993L176.272 207.993ZM176.272 206.305C176.272 206.08 176.245 205.907 176.193 205.784C176.144 205.66 176.074 205.573 175.982 205.52C175.889 205.463 175.782 205.434 175.659 205.434C175.434 205.43 175.261 205.498 175.138 205.639C175.019 205.779 174.96 205.988 174.96 206.265L174.669 206.265C174.669 205.913 174.72 205.617 174.821 205.375C174.927 205.129 175.072 204.942 175.256 204.814C175.445 204.682 175.665 204.616 175.916 204.616C176.175 204.616 176.397 204.669 176.582 204.775C176.766 204.88 176.907 205.045 177.004 205.269C177.1 205.489 177.147 205.775 177.142 206.126L177.142 206.304L176.272 206.305ZM179.407 208.072C179.064 208.072 178.758 207.999 178.49 207.854C178.222 207.705 178.013 207.5 177.863 207.241C177.714 206.977 177.639 206.678 177.639 206.344C177.639 206.006 177.714 205.707 177.863 205.447C178.013 205.188 178.219 204.986 178.483 204.84C178.747 204.691 179.05 204.616 179.393 204.616C179.723 204.616 180.024 204.698 180.297 204.86C180.569 205.023 180.767 205.258 180.89 205.566L180.073 205.856C180.011 205.728 179.914 205.627 179.782 205.553C179.655 205.474 179.512 205.434 179.354 205.434C179.191 205.434 179.048 205.474 178.925 205.553C178.802 205.627 178.705 205.733 178.635 205.869C178.565 206.005 178.529 206.164 178.529 206.344C178.529 206.524 178.565 206.683 178.635 206.819C178.705 206.951 178.804 207.056 178.932 207.135C179.059 207.214 179.204 207.254 179.367 207.254C179.525 207.254 179.668 207.212 179.796 207.129C179.927 207.045 180.024 206.935 180.086 206.799L180.91 207.089C180.783 207.401 180.583 207.643 180.31 207.814C180.042 207.986 179.741 208.072 179.407 208.072ZM182.888 208.072C182.562 208.072 182.274 207.999 182.024 207.854C181.773 207.705 181.575 207.5 181.43 207.241C181.29 206.981 181.219 206.682 181.219 206.344C181.219 206.005 181.292 205.706 181.437 205.447C181.586 205.188 181.789 204.985 182.044 204.84C182.303 204.691 182.6 204.616 182.934 204.616C183.224 204.616 183.49 204.693 183.732 204.847C183.978 204.996 184.174 205.218 184.319 205.513C184.468 205.803 184.543 206.157 184.543 206.575L182.044 206.575L182.123 206.496C182.123 206.658 182.162 206.801 182.241 206.924C182.325 207.043 182.43 207.135 182.558 207.201C182.69 207.263 182.831 207.293 182.98 207.293C183.16 207.293 183.308 207.256 183.422 207.181C183.536 207.102 183.624 207.001 183.686 206.878L184.464 207.181C184.371 207.366 184.251 207.526 184.101 207.663C183.956 207.795 183.782 207.896 183.58 207.966C183.378 208.036 183.147 208.072 182.888 208.072ZM182.169 206.008L182.09 205.928L183.679 205.928L183.606 206.008C183.606 205.849 183.569 205.724 183.494 205.632C183.42 205.535 183.327 205.465 183.217 205.421C183.112 205.377 183.009 205.355 182.907 205.355C182.806 205.355 182.699 205.377 182.584 205.421C182.47 205.465 182.371 205.535 182.288 205.632C182.208 205.724 182.169 205.849 182.169 206.008ZM186.262 208.071C186.051 208.071 185.853 208.041 185.669 207.979C185.484 207.913 185.321 207.821 185.181 207.702C185.04 207.579 184.93 207.43 184.851 207.254L185.596 206.911C185.662 207.016 185.752 207.109 185.866 207.188C185.981 207.263 186.113 207.3 186.262 207.3C186.407 207.3 186.519 207.28 186.598 207.241C186.678 207.197 186.717 207.135 186.717 207.056C186.717 206.977 186.684 206.92 186.618 206.884C186.557 206.845 186.471 206.812 186.361 206.786L186.058 206.706C185.741 206.623 185.491 206.491 185.306 206.311C185.126 206.126 185.035 205.915 185.035 205.678C185.035 205.339 185.143 205.078 185.359 204.893C185.578 204.708 185.888 204.616 186.288 204.616C186.495 204.616 186.686 204.647 186.862 204.708C187.042 204.77 187.196 204.856 187.324 204.966C187.451 205.075 187.539 205.203 187.587 205.348L186.869 205.678C186.838 205.59 186.763 205.519 186.644 205.467C186.526 205.41 186.407 205.381 186.288 205.381C186.17 205.381 186.077 205.407 186.011 205.46C185.95 205.508 185.919 205.577 185.919 205.665C185.919 205.722 185.95 205.77 186.011 205.81C186.073 205.845 186.161 205.876 186.275 205.902L186.704 206.007C186.919 206.06 187.091 206.146 187.218 206.265C187.35 206.379 187.445 206.509 187.502 206.654C187.563 206.794 187.594 206.933 187.594 207.069C187.594 207.267 187.535 207.443 187.416 207.597C187.302 207.746 187.144 207.863 186.941 207.946C186.743 208.03 186.517 208.071 186.262 208.071Z" fill="black"/>
</g>
<g filter="url(#filter4_d_388_3121)">
<path d="M50.875 146.7C50.875 144.739 52.4647 143.15 54.4258 143.15H82.8322C84.7932 143.15 86.383 144.739 86.383 146.7V179.083C86.383 181.044 84.7932 182.634 82.8322 182.634H54.4258C52.4648 182.634 50.875 181.044 50.875 179.083V146.7Z" fill="white"/>
<path d="M51.0478 146.7C51.0478 144.835 52.5602 143.322 54.4258 143.322H82.8322C84.6978 143.322 86.2102 144.835 86.2102 146.7V179.083C86.2102 180.949 84.6978 182.461 82.8322 182.461H54.4258C52.5602 182.461 51.0478 180.949 51.0478 179.083V146.7Z" stroke="#EBECEF" stroke-width="0.345664"/>
<g clip-path="url(#clip3_388_3121)">
<path d="M71.672 151.79L71.6721 152.804M65.585 151.79L65.585 152.805" stroke="#076EDD" stroke-width="0.760885" stroke-linecap="round" stroke-linejoin="round"/>
<path d="M63.8107 156.986C63.8106 154.776 63.8106 153.671 64.4457 152.984C65.0808 152.297 66.1031 152.297 68.1476 152.297L69.1114 152.297C71.1559 152.297 72.1782 152.297 72.8133 152.984C73.4485 153.67 73.4485 154.776 73.4486 156.986L73.4486 157.246C73.4486 159.457 73.4487 160.562 72.8136 161.248C72.1784 161.935 71.1562 161.935 69.1117 161.935L68.1479 161.935C66.1034 161.935 65.0811 161.935 64.446 161.249C63.8108 160.562 63.8108 159.457 63.8107 157.247L63.8107 156.986Z" fill="#076EDD" stroke="#076EDD" stroke-width="0.760885" stroke-linecap="round" stroke-linejoin="round"/>
<path d="M67.304 157.031C67.7801 156.753 68.1957 156.865 68.4453 157.043C68.5477 157.117 68.5988 157.153 68.6289 157.153C68.6591 157.153 68.7102 157.117 68.8126 157.043C69.0622 156.865 69.4777 156.753 69.9538 157.031C70.5787 157.396 70.7201 158.6 69.2789 159.616C69.0044 159.81 68.8671 159.906 68.629 159.906C68.3909 159.906 68.2536 159.81 67.9791 159.616C66.5379 158.6 66.6792 157.396 67.304 157.031Z" stroke="white" stroke-width="0.760885" stroke-linecap="round"/>
<path d="M64.0635 154.834L73.1941 154.833" stroke="white" stroke-width="0.760885" stroke-linecap="round" stroke-linejoin="round"/>
</g>
<path d="M56.2107 173.009L56.2105 168.392L57.114 168.392L57.1141 173.009L56.2107 173.009ZM59.3302 173.088C58.9653 173.088 58.6884 172.997 58.4993 172.817C58.3147 172.637 58.2223 172.38 58.2223 172.046L58.2222 168.683L59.0927 168.683L59.0928 171.854C59.0928 171.995 59.1236 172.103 59.1851 172.178C59.2467 172.248 59.3368 172.283 59.4555 172.283C59.4994 172.283 59.5478 172.274 59.6006 172.257C59.6533 172.235 59.7083 172.204 59.7654 172.164L60.0688 172.817C59.9633 172.896 59.8446 172.96 59.7127 173.008C59.5852 173.061 59.4577 173.088 59.3302 173.088ZM57.6881 170.45L57.6881 169.711L59.917 169.711L59.917 170.45L57.6881 170.45ZM60.6579 173.008L60.6578 169.711L61.5283 169.711L61.5284 173.008L60.6579 173.008ZM61.0931 169.177C60.9612 169.177 60.8447 169.129 60.7436 169.032C60.6424 168.931 60.5919 168.812 60.5919 168.676C60.5919 168.54 60.6424 168.423 60.7435 168.326C60.8446 168.225 60.9611 168.175 61.093 168.175C61.2293 168.175 61.3458 168.225 61.4425 168.326C61.5436 168.423 61.5942 168.54 61.5942 168.676C61.5942 168.812 61.5437 168.931 61.4426 169.032C61.3458 169.129 61.2293 169.177 61.0931 169.177ZM62.3113 173.008L62.3112 169.711L63.1289 169.711L63.1816 170.318L63.1817 173.008L62.3113 173.008ZM64.494 173.008L64.4939 171.32L65.3644 171.32L65.3644 173.008L64.494 173.008ZM64.4939 171.32C64.4939 171.096 64.4676 170.922 64.4148 170.799C64.3664 170.676 64.2961 170.588 64.2038 170.535C64.1114 170.478 64.0037 170.45 63.8806 170.45C63.6564 170.445 63.4828 170.513 63.3597 170.654C63.241 170.795 63.1817 171.004 63.1817 171.281L62.8915 171.281C62.8915 170.929 62.9421 170.632 63.0432 170.39C63.1487 170.144 63.2937 169.957 63.4784 169.83C63.6674 169.698 63.8872 169.632 64.1378 169.632C64.3972 169.632 64.6192 169.685 64.8038 169.79C64.9885 169.896 65.1292 170.061 65.2259 170.285C65.3226 170.505 65.3688 170.79 65.3644 171.142L65.3644 171.32L64.4939 171.32ZM67.5298 173.087C67.2044 173.087 66.9165 173.015 66.6659 172.87C66.4153 172.72 66.2175 172.516 66.0724 172.256C65.9317 171.997 65.8614 171.698 65.8613 171.36C65.8613 171.021 65.9339 170.722 66.0789 170.463C66.2284 170.203 66.4306 170.001 66.6856 169.856C66.945 169.707 67.2417 169.632 67.5758 169.632C67.866 169.632 68.1319 169.709 68.3737 169.863C68.6199 170.012 68.8156 170.234 68.9607 170.529C69.1101 170.819 69.1849 171.173 69.1849 171.59L66.6856 171.59L66.7648 171.511C66.7648 171.674 66.8043 171.817 66.8835 171.94C66.967 172.059 67.0725 172.151 67.2 172.217C67.3319 172.278 67.4726 172.309 67.6221 172.309C67.8023 172.309 67.9496 172.272 68.0639 172.197C68.1782 172.118 68.2661 172.017 68.3276 171.894L69.1058 172.197C69.0135 172.382 68.8926 172.542 68.7431 172.678C68.598 172.81 68.4244 172.911 68.2222 172.982C68.0199 173.052 67.7891 173.087 67.5298 173.087ZM66.8109 171.023L66.7318 170.944L68.321 170.944L68.2485 171.023C68.2485 170.865 68.2111 170.74 68.1364 170.647C68.0616 170.551 67.9693 170.48 67.8594 170.436C67.7539 170.392 67.6506 170.37 67.5495 170.37C67.4484 170.37 67.3406 170.392 67.2263 170.436C67.112 170.48 67.0131 170.551 66.9296 170.647C66.8505 170.74 66.8109 170.865 66.8109 171.023ZM70.2842 171.274C70.2842 170.918 70.3524 170.623 70.4886 170.39C70.6293 170.157 70.8073 169.983 71.0228 169.869C71.2426 169.755 71.4712 169.698 71.7086 169.698L71.7086 170.542C71.5064 170.542 71.3151 170.566 71.1349 170.614C70.959 170.663 70.8162 170.742 70.7063 170.852C70.5964 170.962 70.5414 171.102 70.5414 171.274L70.2842 171.274ZM69.671 173.008L69.6709 169.711L70.5414 169.711L70.5415 173.008L69.671 173.008ZM74.1414 173.008L74.115 172.342L74.1149 171.34C74.1149 171.142 74.0929 170.973 74.049 170.832C74.0094 170.691 73.9435 170.583 73.8511 170.509C73.7632 170.43 73.6423 170.39 73.4884 170.39C73.3478 170.39 73.2203 170.421 73.106 170.482C72.9917 170.544 72.895 170.638 72.8158 170.766L72.0509 170.502C72.1124 170.362 72.2025 170.225 72.3212 170.093C72.4399 169.957 72.5938 169.847 72.7828 169.764C72.9763 169.676 73.2115 169.632 73.4884 169.632C73.8225 169.632 74.0995 169.695 74.3193 169.823C74.5435 169.95 74.7084 170.131 74.8139 170.364C74.9238 170.592 74.9766 170.865 74.9722 171.181L74.9525 173.008L74.1414 173.008ZM73.2182 173.087C72.8225 173.087 72.5148 172.999 72.2949 172.823C72.0795 172.648 71.9718 172.399 71.9718 172.078C71.9718 171.727 72.0883 171.463 72.3213 171.287C72.5587 171.107 72.8906 171.017 73.317 171.017L74.1545 171.017L74.1545 171.663L73.6204 171.663C73.3346 171.663 73.1368 171.698 73.0269 171.768C72.917 171.834 72.862 171.929 72.862 172.052C72.862 172.149 72.906 172.226 72.9939 172.283C73.0818 172.335 73.2049 172.362 73.3632 172.362C73.5083 172.362 73.6358 172.329 73.7457 172.263C73.86 172.193 73.9501 172.105 74.016 171.999C74.082 171.889 74.1149 171.777 74.1149 171.663L74.326 171.663C74.326 172.111 74.2403 172.461 74.0688 172.711C73.9018 172.962 73.6182 173.087 73.2182 173.087ZM76.2594 171.274C76.2594 170.918 76.3276 170.623 76.4638 170.39C76.6045 170.157 76.7825 169.983 76.998 169.869C77.2178 169.755 77.4464 169.698 77.6838 169.698L77.6838 170.542C77.4816 170.542 77.2903 170.566 77.1101 170.614C76.9342 170.663 76.7914 170.742 76.6815 170.852C76.5716 170.961 76.5166 171.102 76.5166 171.274L76.2594 171.274ZM75.6462 173.008L75.6461 169.711L76.5166 169.711L76.5167 173.008L75.6462 173.008ZM78.7845 174.406C78.6658 174.406 78.534 174.382 78.3889 174.333C78.2482 174.289 78.1229 174.237 78.013 174.175L78.3361 173.469C78.4108 173.509 78.479 173.54 78.5405 173.562C78.6065 173.588 78.6636 173.601 78.712 173.601C78.8043 173.601 78.8856 173.575 78.956 173.522C79.0263 173.474 79.0835 173.401 79.1274 173.305L79.5164 172.388L80.5649 169.711L81.521 169.711L80.0242 173.291C79.9319 173.511 79.8352 173.705 79.7341 173.872C79.633 174.043 79.5077 174.175 79.3582 174.267C79.2132 174.36 79.0219 174.406 78.7845 174.406ZM79.2857 173.008L77.7755 169.711L78.7316 169.711L79.833 172.388L80.1166 173.008L79.2857 173.008Z" fill="black"/>
</g>
<g filter="url(#filter5_d_388_3121)">
<path d="M265.363 207.635C265.363 205.673 266.953 204.084 268.914 204.084H297.32C299.282 204.084 300.871 205.673 300.871 207.635V239.348C300.871 241.309 299.282 242.899 297.32 242.899H268.914C266.953 242.899 265.363 241.309 265.363 239.348V207.635Z" fill="white"/>
<path d="M265.536 207.635C265.536 205.769 267.048 204.257 268.914 204.257H297.32C299.186 204.257 300.698 205.769 300.698 207.635V239.348C300.698 241.213 299.186 242.726 297.32 242.726H268.914C267.048 242.726 265.536 241.213 265.536 239.348V207.635Z" stroke="#EBECEF" stroke-width="0.345664"/>
<g clip-path="url(#clip4_388_3121)">
<path d="M283.6 222.869C284.941 222.869 285.612 222.869 286.094 222.486C286.575 222.102 286.729 221.445 287.036 220.132L288.009 215.974C288.179 215.247 288.264 214.883 288.109 214.62C287.829 214.142 287.114 214.246 286.648 214.246" stroke="#6007DD" stroke-width="0.760885" stroke-linecap="round" stroke-linejoin="round"/>
<path d="M278.045 216.275C278.045 214.602 278.045 213.765 278.565 213.245C279.085 212.725 279.922 212.725 281.596 212.725L283.117 212.724C284.791 212.724 285.628 212.724 286.148 213.244C286.668 213.764 286.668 214.601 286.668 216.275L286.668 219.319C286.669 220.993 286.669 221.829 286.149 222.35C285.629 222.87 284.792 222.87 283.118 222.87L281.596 222.87C279.922 222.87 279.085 222.87 278.565 222.35C278.045 221.83 278.045 220.993 278.045 219.319L278.045 216.275Z" fill="#6007DD" stroke="#6007DD" stroke-width="0.760885"/>
<path d="M280.582 220.333L284.133 220.333" stroke="white" stroke-width="0.760885" stroke-linecap="round"/>
</g>
<path d="M278.602 233.273L280.35 228.657L281.319 228.657L279.486 233.273L278.602 233.273ZM278.503 233.273L276.663 228.657L277.633 228.657L279.387 233.273L278.503 233.273ZM281.779 233.273L281.778 229.976L282.649 229.976L282.649 233.273L281.779 233.273ZM282.214 229.441C282.082 229.441 281.965 229.393 281.864 229.296C281.763 229.195 281.712 229.077 281.712 228.94C281.712 228.804 281.763 228.688 281.864 228.591C281.965 228.49 282.082 228.439 282.214 228.439C282.35 228.439 282.466 228.49 282.563 228.591C282.664 228.687 282.715 228.804 282.715 228.94C282.715 229.077 282.664 229.195 282.563 229.296C282.466 229.393 282.35 229.441 282.214 229.441ZM284.665 233.352C284.454 233.352 284.256 233.321 284.071 233.26C283.887 233.194 283.724 233.101 283.583 232.983C283.443 232.859 283.333 232.71 283.254 232.534L283.999 232.191C284.065 232.297 284.155 232.389 284.269 232.468C284.384 232.543 284.515 232.58 284.665 232.58C284.81 232.58 284.922 232.56 285.001 232.521C285.08 232.477 285.12 232.415 285.12 232.336C285.12 232.257 285.087 232.2 285.021 232.165C284.959 232.125 284.874 232.092 284.764 232.066L284.461 231.987C284.144 231.903 283.893 231.771 283.709 231.591C283.528 231.407 283.438 231.196 283.438 230.958C283.438 230.62 283.546 230.358 283.761 230.173C283.981 229.989 284.291 229.896 284.691 229.896C284.898 229.896 285.089 229.927 285.265 229.989C285.445 230.05 285.599 230.136 285.727 230.246C285.854 230.356 285.942 230.483 285.99 230.628L285.272 230.958C285.241 230.87 285.166 230.8 285.047 230.747C284.929 230.69 284.81 230.661 284.691 230.661C284.573 230.661 284.48 230.688 284.414 230.74C284.353 230.789 284.322 230.857 284.322 230.945C284.322 231.002 284.353 231.05 284.414 231.09C284.476 231.125 284.564 231.156 284.678 231.182L285.107 231.288C285.322 231.341 285.494 231.426 285.621 231.545C285.753 231.659 285.848 231.789 285.905 231.934C285.966 232.075 285.997 232.213 285.997 232.349C285.997 232.547 285.938 232.723 285.819 232.877C285.705 233.026 285.546 233.143 285.344 233.227C285.146 233.31 284.92 233.352 284.665 233.352ZM288.475 233.273L288.449 232.607L288.449 231.604C288.449 231.406 288.427 231.237 288.383 231.096C288.343 230.956 288.277 230.848 288.185 230.773C288.097 230.694 287.976 230.655 287.822 230.655C287.682 230.655 287.554 230.685 287.44 230.747C287.326 230.809 287.229 230.903 287.15 231.031L286.385 230.767C286.446 230.626 286.536 230.49 286.655 230.358C286.774 230.222 286.928 230.112 287.117 230.028C287.31 229.94 287.545 229.896 287.822 229.896C288.156 229.896 288.433 229.96 288.653 230.088C288.877 230.215 289.042 230.395 289.148 230.628C289.258 230.857 289.311 231.129 289.306 231.446L289.286 233.273L288.475 233.273ZM287.552 233.352C287.156 233.352 286.849 233.264 286.629 233.088C286.413 232.912 286.306 232.664 286.306 232.343C286.306 231.991 286.422 231.727 286.655 231.552C286.893 231.371 287.225 231.281 287.651 231.281L288.488 231.281L288.488 231.927L287.954 231.927C287.669 231.927 287.471 231.963 287.361 232.033C287.251 232.099 287.196 232.193 287.196 232.316C287.196 232.413 287.24 232.49 287.328 232.547C287.416 232.6 287.539 232.626 287.697 232.626C287.842 232.626 287.97 232.593 288.08 232.527C288.194 232.457 288.284 232.369 288.35 232.264C288.416 232.154 288.449 232.042 288.449 231.927L288.66 231.927C288.66 232.376 288.574 232.725 288.403 232.976C288.236 233.226 287.952 233.352 287.552 233.352Z" fill="black"/>
</g>
<g filter="url(#filter6_d_388_3121)">
<path d="M268.671 106.886C268.671 104.925 270.261 103.336 272.222 103.336H306.6C308.561 103.336 310.151 104.925 310.151 106.886V138.499C310.151 140.46 308.561 142.05 306.6 142.05H272.222C270.261 142.05 268.671 140.46 268.671 138.499V106.886Z" fill="white"/>
<path d="M268.844 106.886C268.844 105.021 270.356 103.509 272.222 103.509H306.6C308.465 103.509 309.978 105.021 309.978 106.886V138.499C309.978 140.365 308.465 141.877 306.6 141.877H272.222C270.356 141.877 268.844 140.365 268.844 138.499V106.886Z" stroke="#EBECEF" stroke-width="0.345664"/>
<g clip-path="url(#clip5_388_3121)">
<path d="M290.474 121.352C292.522 121.216 294.154 119.561 294.288 117.484C294.314 117.077 294.314 116.656 294.288 116.25C294.154 114.172 292.522 112.517 290.474 112.381C289.775 112.335 289.045 112.335 288.348 112.381C286.299 112.517 284.668 114.172 284.533 116.25C284.507 116.656 284.507 117.077 284.533 117.484C284.582 118.24 284.917 118.941 285.311 119.532C285.54 119.947 285.389 120.463 285.15 120.915C284.979 121.241 284.893 121.403 284.962 121.521C285.031 121.638 285.185 121.642 285.493 121.65C286.102 121.665 286.513 121.492 286.839 121.251C287.024 121.115 287.117 121.047 287.18 121.039C287.244 121.031 287.369 121.083 287.62 121.186C287.846 121.279 288.107 121.336 288.348 121.352C289.045 121.398 289.775 121.399 290.474 121.352Z" fill="#941CF7" stroke="#941CF7" stroke-width="0.734537" stroke-linejoin="round"/>
<path d="M287.696 118.223H291.124M287.696 115.774H289.41" stroke="white" stroke-width="0.734537" stroke-linecap="round" stroke-linejoin="round"/>
</g>
<path d="M279.192 132.343C278.959 132.343 278.741 132.315 278.539 132.258C278.336 132.2 278.156 132.121 277.998 132.02C277.84 131.915 277.708 131.798 277.602 131.671C277.501 131.543 277.435 131.409 277.404 131.268L278.288 131.005C278.345 131.154 278.446 131.284 278.591 131.394C278.737 131.499 278.919 131.554 279.139 131.558C279.372 131.563 279.561 131.512 279.706 131.407C279.855 131.301 279.93 131.165 279.93 130.998C279.93 130.853 279.871 130.732 279.752 130.635C279.638 130.534 279.479 130.457 279.277 130.404L278.677 130.246C278.453 130.189 278.255 130.103 278.084 129.989C277.912 129.87 277.778 129.725 277.681 129.554C277.585 129.382 277.536 129.182 277.536 128.954C277.536 128.519 277.679 128.18 277.965 127.938C278.255 127.692 278.664 127.569 279.191 127.569C279.486 127.569 279.743 127.613 279.963 127.701C280.187 127.784 280.374 127.905 280.523 128.063C280.673 128.222 280.787 128.409 280.866 128.624L279.989 128.894C279.937 128.745 279.84 128.617 279.699 128.512C279.559 128.406 279.38 128.354 279.165 128.354C278.945 128.354 278.772 128.404 278.644 128.505C278.521 128.606 278.459 128.749 278.459 128.934C278.459 129.079 278.508 129.193 278.605 129.277C278.706 129.36 278.842 129.424 279.013 129.468L279.62 129.62C280.016 129.716 280.324 129.89 280.543 130.141C280.763 130.391 280.873 130.67 280.873 130.978C280.873 131.251 280.807 131.49 280.675 131.697C280.543 131.899 280.352 132.057 280.102 132.172C279.851 132.286 279.548 132.343 279.192 132.343ZM283.678 132.264L283.626 131.657L283.626 128.967L284.496 128.967L284.496 132.264L283.678 132.264ZM281.443 130.655L281.443 128.967L282.313 128.967L282.313 130.655L281.443 130.655ZM282.313 130.655C282.313 130.875 282.338 131.048 282.386 131.176C282.439 131.299 282.511 131.389 282.604 131.446C282.7 131.499 282.808 131.525 282.927 131.525C283.155 131.53 283.329 131.462 283.448 131.321C283.566 131.176 283.626 130.967 283.626 130.695L283.922 130.694C283.922 131.046 283.87 131.345 283.764 131.591C283.659 131.833 283.514 132.02 283.329 132.152C283.144 132.279 282.927 132.343 282.676 132.343C282.412 132.343 282.188 132.29 282.004 132.185C281.819 132.079 281.678 131.917 281.581 131.697C281.489 131.473 281.443 131.185 281.443 130.833L281.443 130.655L282.313 130.655ZM285.264 133.583L285.263 128.967L286.081 128.967L286.134 129.573L286.134 133.583L285.264 133.583ZM287.13 132.343C286.853 132.343 286.618 132.273 286.424 132.132C286.235 131.991 286.09 131.791 285.989 131.532C285.888 131.273 285.837 130.967 285.837 130.615C285.837 130.259 285.888 129.954 285.989 129.699C286.09 129.439 286.235 129.239 286.424 129.099C286.617 128.958 286.853 128.888 287.13 128.888C287.433 128.888 287.695 128.958 287.914 129.099C288.139 129.239 288.312 129.439 288.435 129.699C288.558 129.954 288.62 130.259 288.62 130.615C288.62 130.967 288.558 131.272 288.435 131.532C288.312 131.791 288.139 131.991 287.914 132.132C287.695 132.273 287.433 132.343 287.13 132.343ZM286.905 131.545C287.064 131.545 287.202 131.506 287.321 131.426C287.444 131.347 287.541 131.237 287.611 131.097C287.681 130.956 287.717 130.795 287.717 130.615C287.717 130.435 287.681 130.275 287.611 130.134C287.545 129.993 287.451 129.885 287.327 129.811C287.209 129.732 287.07 129.692 286.912 129.692C286.763 129.692 286.628 129.732 286.51 129.811C286.391 129.89 286.299 130 286.233 130.141C286.167 130.277 286.134 130.435 286.134 130.615C286.134 130.796 286.167 130.956 286.233 131.097C286.299 131.237 286.389 131.347 286.503 131.426C286.622 131.506 286.756 131.545 286.905 131.545ZM289.204 133.583L289.204 128.967L290.022 128.967L290.075 129.573L290.075 133.583L289.204 133.583ZM291.07 132.343C290.793 132.343 290.558 132.273 290.365 132.132C290.176 131.991 290.031 131.791 289.93 131.532C289.828 131.272 289.778 130.967 289.778 130.615C289.778 130.259 289.828 129.954 289.929 129.699C290.031 129.439 290.176 129.239 290.365 129.098C290.558 128.958 290.793 128.887 291.07 128.887C291.374 128.887 291.635 128.958 291.855 129.098C292.079 129.239 292.253 129.439 292.376 129.699C292.499 129.953 292.561 130.259 292.561 130.615C292.561 130.967 292.499 131.272 292.376 131.532C292.253 131.791 292.079 131.991 291.855 132.132C291.635 132.273 291.374 132.343 291.07 132.343ZM290.846 131.545C291.004 131.545 291.143 131.505 291.262 131.426C291.385 131.347 291.481 131.237 291.552 131.097C291.622 130.956 291.657 130.795 291.657 130.615C291.657 130.435 291.622 130.274 291.552 130.134C291.486 129.993 291.391 129.885 291.268 129.811C291.149 129.732 291.011 129.692 290.853 129.692C290.703 129.692 290.569 129.732 290.45 129.811C290.332 129.89 290.239 130 290.173 130.14C290.108 130.277 290.075 130.435 290.075 130.615C290.075 130.795 290.108 130.956 290.174 131.097C290.239 131.237 290.33 131.347 290.444 131.426C290.563 131.505 290.697 131.545 290.846 131.545ZM294.662 132.343C294.327 132.343 294.029 132.27 293.765 132.125C293.505 131.976 293.301 131.771 293.151 131.512C293.006 131.253 292.934 130.954 292.934 130.615C292.934 130.277 293.006 129.978 293.151 129.718C293.296 129.459 293.499 129.257 293.758 129.112C294.017 128.962 294.314 128.887 294.648 128.887C294.987 128.887 295.286 128.962 295.545 129.112C295.804 129.257 296.007 129.459 296.152 129.718C296.297 129.978 296.369 130.276 296.369 130.615C296.369 130.954 296.297 131.252 296.152 131.512C296.007 131.771 295.805 131.976 295.545 132.125C295.29 132.27 294.996 132.343 294.662 132.343ZM294.662 131.538C294.824 131.538 294.967 131.499 295.09 131.42C295.213 131.34 295.308 131.233 295.374 131.096C295.444 130.956 295.479 130.795 295.479 130.615C295.479 130.435 295.444 130.277 295.374 130.14C295.303 130 295.204 129.89 295.077 129.811C294.954 129.731 294.811 129.692 294.648 129.692C294.49 129.692 294.347 129.731 294.22 129.811C294.097 129.89 294 130 293.93 130.14C293.859 130.277 293.824 130.435 293.824 130.615C293.824 130.795 293.859 130.956 293.93 131.096C294 131.233 294.099 131.34 294.226 131.42C294.354 131.499 294.499 131.538 294.662 131.538ZM297.537 130.529C297.537 130.173 297.605 129.879 297.741 129.646C297.882 129.413 298.06 129.239 298.276 129.125C298.495 129.01 298.724 128.953 298.961 128.953L298.961 129.797C298.759 129.797 298.568 129.821 298.388 129.87C298.212 129.918 298.069 129.997 297.959 130.107C297.849 130.217 297.794 130.358 297.794 130.529L297.537 130.529ZM296.924 132.264L296.924 128.966L297.794 128.966L297.794 132.264L296.924 132.264ZM300.761 132.343C300.396 132.343 300.119 132.252 299.93 132.072C299.746 131.892 299.653 131.635 299.653 131.301L299.653 127.938L300.524 127.938L300.524 131.109C300.524 131.25 300.554 131.358 300.616 131.433C300.678 131.503 300.768 131.538 300.886 131.538C300.93 131.538 300.979 131.529 301.031 131.512C301.084 131.49 301.139 131.459 301.196 131.419L301.5 132.072C301.394 132.151 301.275 132.215 301.144 132.263C301.016 132.316 300.889 132.343 300.761 132.343ZM299.119 129.705L299.119 128.966L301.348 128.966L301.348 129.705L299.119 129.705Z" fill="black"/>
</g>
<g filter="url(#filter7_d_388_3121)">
<rect x="154.937" y="67.4065" width="35.508" height="39.4843" rx="3.5508" fill="white"/>
<rect x="155.109" y="67.5793" width="35.1623" height="39.1387" rx="3.37797" stroke="#EBECEF" stroke-width="0.345664"/>
<g clip-path="url(#clip6_388_3121)">
<path d="M167.323 77.0618L167.323 85.1779C167.323 85.6561 167.323 85.8952 167.472 86.0438C167.621 86.1924 167.86 86.1924 168.338 86.1924L175.44 86.1922C175.918 86.1922 176.157 86.1921 176.306 86.0436C176.454 85.895 176.454 85.6559 176.454 85.1776L176.454 77.0615" fill="#F7741C"/>
<path d="M167.323 77.0618L167.323 85.1779C167.323 85.6561 167.323 85.8952 167.472 86.0438C167.621 86.1924 167.86 86.1924 168.338 86.1924L175.44 86.1922C175.918 86.1922 176.157 86.1921 176.306 86.0436C176.454 85.895 176.454 85.6559 176.454 85.1776L176.454 77.0615" stroke="#F7741C" stroke-width="0.760885" stroke-linecap="round" stroke-linejoin="round"/>
<path d="M171.127 79.0906L171.127 79.8515M171.127 79.8515L171.127 80.6123M171.127 79.8515L172.649 79.8514M172.649 79.0905L172.649 79.8514M172.649 79.8514L172.649 80.6123" stroke="white" stroke-width="0.760885" stroke-linecap="round" stroke-linejoin="round"/>
<path d="M172.902 86.192L172.902 84.1629C172.902 83.6026 172.448 83.1484 171.888 83.1484C171.327 83.1484 170.873 83.6027 170.873 84.163L170.873 86.192" stroke="white" stroke-width="0.760885" stroke-linecap="round" stroke-linejoin="round"/>
<path d="M166.815 77.0616L169.859 77.0615C170.184 76.4667 170.97 76.047 171.888 76.047C172.806 76.047 173.592 76.4666 173.917 77.0614L176.961 77.0614" fill="#F7741C"/>
<path d="M166.815 77.0616L169.859 77.0615C170.184 76.4667 170.97 76.047 171.888 76.047C172.806 76.047 173.592 76.4666 173.917 77.0614L176.961 77.0614" stroke="#F7741C" stroke-width="0.760885" stroke-linecap="round" stroke-linejoin="round"/>
<path d="M168.845 79.0908L169.352 79.0908M168.845 81.1198L169.352 81.1198M168.845 83.1489L169.352 83.1489" stroke="white" stroke-width="0.760885" stroke-linecap="round" stroke-linejoin="round"/>
<path d="M174.425 79.0906L174.932 79.0906M174.425 81.1196L174.932 81.1196M174.425 83.1486L174.932 83.1486" stroke="white" stroke-width="0.760885" stroke-linecap="round" stroke-linejoin="round"/>
</g>
<path d="M165.53 97.3439C165.297 97.3439 165.079 97.3154 164.877 97.2582C164.675 97.2011 164.494 97.122 164.336 97.0209C164.178 96.9153 164.046 96.7989 163.94 96.6714C163.839 96.5439 163.773 96.4098 163.743 96.2691L164.626 96.0053C164.683 96.1548 164.785 96.2845 164.93 96.3944C165.075 96.4999 165.257 96.5548 165.477 96.5592C165.71 96.5636 165.899 96.513 166.044 96.4075C166.194 96.302 166.268 96.1657 166.268 95.9987C166.268 95.8536 166.209 95.7327 166.09 95.636C165.976 95.5349 165.818 95.458 165.615 95.4052L165.015 95.247C164.791 95.1898 164.593 95.1041 164.422 94.9898C164.25 94.8711 164.116 94.726 164.02 94.5546C163.923 94.3831 163.874 94.1831 163.874 93.9545C163.874 93.5193 164.017 93.1808 164.303 92.939C164.593 92.6928 165.002 92.5697 165.53 92.5696C165.824 92.5696 166.081 92.6136 166.301 92.7015C166.525 92.785 166.712 92.9059 166.862 93.0642C167.011 93.2224 167.125 93.4093 167.205 93.6247L166.328 93.8951C166.275 93.7456 166.178 93.6181 166.037 93.5126C165.897 93.4071 165.719 93.3544 165.503 93.3544C165.283 93.3544 165.11 93.4049 164.982 93.5061C164.859 93.6072 164.798 93.75 164.798 93.9347C164.798 94.0798 164.846 94.1941 164.943 94.2776C165.044 94.3611 165.18 94.4249 165.352 94.4688L165.958 94.6205C166.354 94.7172 166.662 94.8908 166.882 95.1414C167.101 95.392 167.211 95.6711 167.211 95.9789C167.211 96.2514 167.145 96.491 167.013 96.6977C166.882 96.8999 166.69 97.0582 166.44 97.1725C166.189 97.2868 165.886 97.3439 165.53 97.3439ZM169.199 97.3438C168.834 97.3439 168.557 97.2537 168.368 97.0735C168.183 96.8933 168.091 96.6361 168.091 96.302L168.091 92.9389L168.961 92.9388L168.962 96.1107C168.962 96.2514 168.992 96.3591 169.054 96.4338C169.115 96.5042 169.206 96.5393 169.324 96.5393C169.368 96.5393 169.417 96.5305 169.469 96.5129C169.522 96.491 169.577 96.4602 169.634 96.4206L169.938 97.0735C169.832 97.1526 169.713 97.2163 169.581 97.2647C169.454 97.3175 169.326 97.3438 169.199 97.3438ZM167.557 94.7061L167.557 93.9676L169.786 93.9675L169.786 94.7061L167.557 94.7061ZM172.407 97.2646L172.381 96.5986L172.381 95.5963C172.381 95.3984 172.359 95.2292 172.315 95.0885C172.276 94.9478 172.21 94.8401 172.117 94.7654C172.029 94.6862 171.908 94.6467 171.755 94.6467C171.614 94.6467 171.486 94.6775 171.372 94.739C171.258 94.8006 171.161 94.8951 171.082 95.0226L170.317 94.7588C170.379 94.6181 170.469 94.4819 170.587 94.35C170.706 94.2137 170.86 94.1038 171.049 94.0202C171.242 93.9323 171.478 93.8883 171.755 93.8883C172.089 93.8883 172.366 93.9521 172.585 94.0795C172.81 94.207 172.975 94.3873 173.08 94.6203C173.19 94.8489 173.243 95.1214 173.238 95.438L173.219 97.2646L172.407 97.2646ZM171.484 97.3438C171.089 97.3438 170.781 97.2559 170.561 97.08C170.346 96.9042 170.238 96.6558 170.238 96.3349C170.238 95.9832 170.354 95.7194 170.587 95.5435C170.825 95.3633 171.157 95.2732 171.583 95.2732L172.421 95.2731L172.421 95.9194L171.886 95.9194C171.601 95.9194 171.403 95.9546 171.293 96.0249C171.183 96.0909 171.128 96.1854 171.128 96.3085C171.128 96.4052 171.172 96.4821 171.26 96.5393C171.348 96.592 171.471 96.6184 171.629 96.6184C171.774 96.6184 171.902 96.5854 172.012 96.5195C172.126 96.4491 172.216 96.3612 172.282 96.2557C172.348 96.1458 172.381 96.0337 172.381 95.9194L172.592 95.9194C172.592 96.3678 172.506 96.7173 172.335 96.9679C172.168 97.2185 171.884 97.3438 171.484 97.3438ZM174.482 98.6626C174.363 98.6626 174.231 98.6384 174.086 98.59C173.945 98.5461 173.82 98.4933 173.71 98.4318L174.033 97.7262C174.108 97.7657 174.176 97.7965 174.238 97.8185C174.304 97.8449 174.361 97.8581 174.409 97.8581C174.501 97.8581 174.583 97.8317 174.653 97.7789C174.723 97.7306 174.781 97.658 174.825 97.5613L175.214 96.6447L176.262 93.9673L177.218 93.9673L175.721 97.5481C175.629 97.7679 175.532 97.9613 175.431 98.1284C175.33 98.2999 175.205 98.4317 175.055 98.5241C174.91 98.6164 174.719 98.6626 174.482 98.6626ZM174.983 97.2645L173.473 93.9674L174.429 93.9674L175.53 96.6447L175.814 97.2645L174.983 97.2645ZM178.835 97.3436C178.624 97.3436 178.426 97.3128 178.242 97.2513C178.057 97.1853 177.894 97.093 177.754 96.9743C177.613 96.8512 177.503 96.7018 177.424 96.5259L178.169 96.183C178.235 96.2885 178.325 96.3808 178.439 96.4599C178.554 96.5347 178.686 96.572 178.835 96.572C178.98 96.572 179.092 96.5522 179.171 96.5127C179.25 96.4687 179.29 96.4072 179.29 96.328C179.29 96.2489 179.257 96.1918 179.191 96.1566C179.13 96.117 179.044 96.0841 178.934 96.0577L178.631 95.9786C178.314 95.895 178.063 95.7632 177.879 95.5829C177.699 95.3983 177.608 95.1873 177.608 94.9499C177.608 94.6114 177.716 94.3498 177.931 94.1651C178.151 93.9805 178.461 93.8882 178.861 93.8881C179.068 93.8881 179.259 93.9189 179.435 93.9804C179.615 94.042 179.769 94.1277 179.897 94.2376C180.024 94.3475 180.112 94.475 180.16 94.6201L179.442 94.9498C179.411 94.8619 179.336 94.7916 179.217 94.7388C179.099 94.6817 178.98 94.6531 178.861 94.6531C178.743 94.6531 178.65 94.6795 178.584 94.7322C178.523 94.7806 178.492 94.8487 178.492 94.9367C178.492 94.9938 178.523 95.0422 178.584 95.0817C178.646 95.1169 178.734 95.1477 178.848 95.174L179.277 95.2795C179.492 95.3323 179.664 95.418 179.791 95.5367C179.923 95.651 180.018 95.7807 180.075 95.9258C180.136 96.0664 180.167 96.2049 180.167 96.3412C180.167 96.539 180.108 96.7149 179.989 96.8688C179.875 97.0182 179.716 97.1347 179.514 97.2183C179.316 97.3018 179.09 97.3436 178.835 97.3436Z" fill="black"/>
</g>
</g>
<defs>
<filter id="filter0_d_388_3121" x="0" y="0" width="345" height="280" filterUnits="userSpaceOnUse" color-interpolation-filters="sRGB">
<feFlood flood-opacity="0" result="BackgroundImageFix"/>
<feColorMatrix in="SourceAlpha" type="matrix" values="0 0 0 0 0 0 0 0 0 0 0 0 0 0 0 0 0 0 127 0" result="hardAlpha"/>
<feOffset dy="1"/>
<feGaussianBlur stdDeviation="0.5"/>
<feComposite in2="hardAlpha" operator="out"/>
<feColorMatrix type="matrix" values="0 0 0 0 0 0 0 0 0 0 0 0 0 0 0 0 0 0 0.09 0"/>
<feBlend mode="normal" in2="BackgroundImageFix" result="effect1_dropShadow_388_3121"/>
<feBlend mode="normal" in="SourceGraphic" in2="effect1_dropShadow_388_3121" result="shape"/>
</filter>
<filter id="filter1_f_388_3121" x="-108.678" y="-34.6782" width="562.356" height="380.356" filterUnits="userSpaceOnUse" color-interpolation-filters="sRGB">
<feFlood flood-opacity="0" result="BackgroundImageFix"/>
<feBlend mode="normal" in="SourceGraphic" in2="BackgroundImageFix" result="shape"/>
<feGaussianBlur stdDeviation="33.8391" result="effect1_foregroundBlur_388_3121"/>
</filter>
<filter id="filter2_d_388_3121" x="38.6508" y="24.8455" width="41.7467" height="51.592" filterUnits="userSpaceOnUse" color-interpolation-filters="sRGB">
<feFlood flood-opacity="0" result="BackgroundImageFix"/>
<feColorMatrix in="SourceAlpha" type="matrix" values="0 0 0 0 0 0 0 0 0 0 0 0 0 0 0 0 0 0 127 0" result="hardAlpha"/>
<feOffset dx="-5.57983" dy="10.1451"/>
<feGaussianBlur stdDeviation="0.507257"/>
<feComposite in2="hardAlpha" operator="out"/>
<feColorMatrix type="matrix" values="0 0 0 0 0 0 0 0 0 0 0 0 0 0 0 0 0 0 0.09 0"/>
<feBlend mode="normal" in2="BackgroundImageFix" result="effect1_dropShadow_388_3121"/>
<feBlend mode="normal" in="SourceGraphic" in2="effect1_dropShadow_388_3121" result="shape"/>
</filter>
<filter id="filter3_d_388_3121" x="136.673" y="178.135" width="58.7301" height="50.644" filterUnits="userSpaceOnUse" color-interpolation-filters="sRGB">
<feFlood flood-opacity="0" result="BackgroundImageFix"/>
<feColorMatrix in="SourceAlpha" type="matrix" values="0 0 0 0 0 0 0 0 0 0 0 0 0 0 0 0 0 0 127 0" result="hardAlpha"/>
<feOffset dx="-5.57983" dy="10.1451"/>
<feGaussianBlur stdDeviation="0.507257"/>
<feComposite in2="hardAlpha" operator="out"/>
<feColorMatrix type="matrix" values="0 0 0 0 0 0 0 0 0 0 0 0 0 0 0 0 0 0 0.09 0"/>
<feBlend mode="normal" in2="BackgroundImageFix" result="effect1_dropShadow_388_3121"/>
<feBlend mode="normal" in="SourceGraphic" in2="effect1_dropShadow_388_3121" result="shape"/>
</filter>
<filter id="filter4_d_388_3121" x="44.2807" y="143.15" width="42.1022" height="50.6443" filterUnits="userSpaceOnUse" color-interpolation-filters="sRGB">
<feFlood flood-opacity="0" result="BackgroundImageFix"/>
<feColorMatrix in="SourceAlpha" type="matrix" values="0 0 0 0 0 0 0 0 0 0 0 0 0 0 0 0 0 0 127 0" result="hardAlpha"/>
<feOffset dx="-5.57983" dy="10.1451"/>
<feGaussianBlur stdDeviation="0.507257"/>
<feComposite in2="hardAlpha" operator="out"/>
<feColorMatrix type="matrix" values="0 0 0 0 0 0 0 0 0 0 0 0 0 0 0 0 0 0 0.09 0"/>
<feBlend mode="normal" in2="BackgroundImageFix" result="effect1_dropShadow_388_3121"/>
<feBlend mode="normal" in="SourceGraphic" in2="effect1_dropShadow_388_3121" result="shape"/>
</filter>
<filter id="filter5_d_388_3121" x="258.769" y="204.084" width="42.1022" height="49.9746" filterUnits="userSpaceOnUse" color-interpolation-filters="sRGB">
<feFlood flood-opacity="0" result="BackgroundImageFix"/>
<feColorMatrix in="SourceAlpha" type="matrix" values="0 0 0 0 0 0 0 0 0 0 0 0 0 0 0 0 0 0 127 0" result="hardAlpha"/>
<feOffset dx="-5.57983" dy="10.1451"/>
<feGaussianBlur stdDeviation="0.507257"/>
<feComposite in2="hardAlpha" operator="out"/>
<feColorMatrix type="matrix" values="0 0 0 0 0 0 0 0 0 0 0 0 0 0 0 0 0 0 0.09 0"/>
<feBlend mode="normal" in2="BackgroundImageFix" result="effect1_dropShadow_388_3121"/>
<feBlend mode="normal" in="SourceGraphic" in2="effect1_dropShadow_388_3121" result="shape"/>
</filter>
<filter id="filter6_d_388_3121" x="262.077" y="103.336" width="48.0738" height="49.874" filterUnits="userSpaceOnUse" color-interpolation-filters="sRGB">
<feFlood flood-opacity="0" result="BackgroundImageFix"/>
<feColorMatrix in="SourceAlpha" type="matrix" values="0 0 0 0 0 0 0 0 0 0 0 0 0 0 0 0 0 0 127 0" result="hardAlpha"/>
<feOffset dx="-5.57983" dy="10.1451"/>
<feGaussianBlur stdDeviation="0.507257"/>
<feComposite in2="hardAlpha" operator="out"/>
<feColorMatrix type="matrix" values="0 0 0 0 0 0 0 0 0 0 0 0 0 0 0 0 0 0 0.09 0"/>
<feBlend mode="normal" in2="BackgroundImageFix" result="effect1_dropShadow_388_3121"/>
<feBlend mode="normal" in="SourceGraphic" in2="effect1_dropShadow_388_3121" result="shape"/>
</filter>
<filter id="filter7_d_388_3121" x="148.849" y="67.4065" width="41.5949" height="49.6295" filterUnits="userSpaceOnUse" color-interpolation-filters="sRGB">
<feFlood flood-opacity="0" result="BackgroundImageFix"/>
<feColorMatrix in="SourceAlpha" type="matrix" values="0 0 0 0 0 0 0 0 0 0 0 0 0 0 0 0 0 0 127 0" result="hardAlpha"/>
<feOffset dx="-4.56531" dy="8.62337"/>
<feGaussianBlur stdDeviation="0.760885"/>
<feComposite in2="hardAlpha" operator="out"/>
<feColorMatrix type="matrix" values="0 0 0 0 0 0 0 0 0 0 0 0 0 0 0 0 0 0 0.09 0"/>
<feBlend mode="normal" in2="BackgroundImageFix" result="effect1_dropShadow_388_3121"/>
<feBlend mode="normal" in="SourceGraphic" in2="effect1_dropShadow_388_3121" result="shape"/>
</filter>
<linearGradient id="paint0_linear_388_3121" x1="172.5" y1="33" x2="172.5" y2="278" gradientUnits="userSpaceOnUse">
<stop stop-color="white"/>
<stop offset="1" stop-color="#D4BAEF"/>
</linearGradient>
<clipPath id="clip0_388_3121">
<rect width="343" height="278" fill="white" transform="translate(1)"/>
</clipPath>
<clipPath id="clip1_388_3121">
<rect width="12.1742" height="12.1742" fill="white" transform="translate(56.1055 33.2805) rotate(-2.99909)"/>
</clipPath>
<clipPath id="clip2_388_3121">
<rect width="12.1742" height="12.1742" fill="white" transform="translate(163.248 185.761)"/>
</clipPath>
<clipPath id="clip3_388_3121">
<rect width="12.1742" height="12.1742" fill="white" transform="translate(62.542 150.776)"/>
</clipPath>
<clipPath id="clip4_388_3121">
<rect width="12.1742" height="12.1742" fill="white" transform="translate(277.03 211.71)"/>
</clipPath>
<clipPath id="clip5_388_3121">
<rect width="11.7526" height="11.7526" fill="white" transform="translate(283.534 111.122)"/>
</clipPath>
<clipPath id="clip6_388_3121">
<rect width="12.1742" height="12.1742" fill="white" transform="translate(165.801 75.0327)"/>
</clipPath>
</defs>
</svg>
