<svg width="12" height="16" viewBox="0 0 12 16" fill="none" xmlns="http://www.w3.org/2000/svg">
<path d="M0.664187 15.6217C0.297367 15.6217 0 15.3243 0 14.9575V1.40808C0 1.04126 0.297367 0.743896 0.664187 0.743896H5.99362C8.99043 0.743896 10.882 2.78428 10.882 5.3135C10.882 7.29736 10.1183 8.62661 8.9513 9.40804C8.63166 9.62206 8.48907 10.0416 8.67464 10.3785L11.0199 14.6371C11.2637 15.0797 10.9435 15.6217 10.4381 15.6217H8.11559C7.8693 15.6217 7.64324 15.4854 7.52825 15.2676L5.09662 10.6623C4.98162 10.4445 4.75556 10.3082 4.50928 10.3082H4.19235C3.82553 10.3082 3.52816 10.6056 3.52816 10.9724V14.9575C3.52816 15.3243 3.23079 15.6217 2.86397 15.6217H0.664187Z" fill="#7011F6"/>
<path d="M2.49379 8.07304C2.36999 8.01663 2.2504 7.9373 2.04744 7.60544C1.99449 7.5238 1.76668 7.10502 1.56588 6.72007C1.3965 6.39536 1.24369 6.09853 1.25789 6.00988C1.26534 5.9205 1.28731 5.84934 1.3885 5.73641C1.45076 5.66692 1.80905 5.46667 1.87888 5.42725C1.9487 5.38783 2.04922 5.35164 2.14135 5.36131C2.30847 5.35213 2.7684 5.79445 2.86828 5.83498C2.91611 5.86672 3.06806 5.95583 3.2122 5.93453C3.3179 5.91891 3.41326 5.86214 3.51282 5.78243C3.60409 5.70937 5.36577 4.11364 5.52999 3.97394C6.88218 2.89038 8.28109 3.76184 8.51186 3.96639C8.7462 4.16129 8.80179 4.22389 8.80662 4.44145C8.80031 4.67274 8.64627 4.7552 8.56028 4.80962C8.4743 4.86404 7.27632 5.56975 6.80889 5.85127C6.70824 5.91857 6.67419 6.01149 6.66439 6.02978C6.62462 6.14916 6.50231 6.92372 6.45672 7.09925C6.43996 7.27848 6.3323 7.5243 6.14676 7.65842C5.95183 7.79491 5.60013 7.98172 5.52352 8.03378C5.44691 8.08585 5.26556 8.19704 5.19477 8.19295C5.10524 8.19357 5.00135 8.12122 5.00266 7.96775C5.00396 7.81428 4.97439 7.39511 4.96825 7.33102C4.96212 7.26693 4.99123 6.98615 4.88553 7.00177C4.85903 6.97561 4.68542 7.11767 4.41292 7.26271C4.21379 7.38367 4.00427 7.50649 3.85693 7.58836C3.29673 7.93694 2.97966 8.07129 2.90656 8.08966C2.76595 8.12499 2.65767 8.13031 2.49379 8.07304Z" fill="white"/>
</svg>
