<?xml version="1.0" encoding="UTF-8"?>
<svg version="1.1" xmlns="http://www.w3.org/2000/svg" width="16" height="16">
<path d="M0 0 C1.65 0 3.3 0 5 0 C5 1.65 5 3.3 5 5 C3.68 5.33 2.36 5.66 1 6 C1 6.66 1 7.32 1 8 C-0.65 8 -2.3 8 -4 8 C-4 8.66 -4 9.32 -4 10 C-1.03 10 1.94 10 5 10 C5 11.98 5 13.96 5 16 C-0.28 16 -5.56 16 -11 16 C-11 14.02 -11 12.04 -11 10 C-10.34 9.67 -9.68 9.34 -9 9 C-9.66 9 -10.32 9 -11 9 C-11.125 6.625 -11.125 6.625 -11 4 C-9 2 -9 2 -7.0546875 1.8046875 C-5.03645833 1.86979167 -3.01822917 1.93489583 -1 2 C-0.67 1.34 -0.34 0.68 0 0 Z " fill="#4F898F" transform="translate(11,0)"/>
<path d="M0 0 C1.65 0 3.3 0 5 0 C5 1.65 5 3.3 5 5 C3.68 5.33 2.36 5.66 1 6 C1 6.66 1 7.32 1 8 C-0.65 8 -2.3 8 -4 8 C-4 8.66 -4 9.32 -4 10 C-6.31 9.67 -8.62 9.34 -11 9 C-11.125 6.625 -11.125 6.625 -11 4 C-9 2 -9 2 -7.0546875 1.8046875 C-5.03645833 1.86979167 -3.01822917 1.93489583 -1 2 C-0.67 1.34 -0.34 0.68 0 0 Z " fill="#2E1921" transform="translate(11,0)"/>
<path d="M0 0 C1.66611905 -0.042721 3.33382885 -0.04063832 5 0 C5.33 0.33 5.66 0.66 6 1 C7.51469448 1.23192865 9.03754562 1.41215238 10.5625 1.5625 C11.38878906 1.64628906 12.21507812 1.73007813 13.06640625 1.81640625 C13.70449219 1.87699219 14.34257812 1.93757812 15 2 C15 2.66 15 3.32 15 4 C9.72 4 4.44 4 -1 4 C-0.67 2.68 -0.34 1.36 0 0 Z " fill="#EACF89" transform="translate(1,12)"/>
<path d="M0 0 C2.9375 0.375 2.9375 0.375 6 1 C6.33 1.66 6.66 2.32 7 3 C4.04335481 4.4783226 1.25770263 4.06032783 -2 4 C-1.34 2.68 -0.68 1.36 0 0 Z " fill="#A77A91" transform="translate(3,3)"/>
<path d="M0 0 C1.65 0 3.3 0 5 0 C5 1.65 5 3.3 5 5 C4.01 5.33 3.02 5.66 2 6 C1.01 5.01 0.02 4.02 -1 3 C-0.67 2.01 -0.34 1.02 0 0 Z " fill="#221C03" transform="translate(11,0)"/>
</svg>
