<svg xmlns="http://www.w3.org/2000/svg" width="345" height="280" fill="none" viewBox="0 0 345 280"><g clip-path="url(#a)" filter="url(#b)"><path fill="#fff" d="M1 0h343v278H1z"/><g filter="url(#c)" opacity=".8"><path fill="url(#d)" d="M-41 36.156 75.61 278h208.759L386 33z"/></g><path stroke="#090a0c" stroke-dasharray="7.56 7.56" stroke-opacity=".3" stroke-width="1.889" d="M1 28c42.037 7.672 133.764 27.268 164.37 44.282 38.259 21.267-86.908 54.187-92.576 61.47-5.734 7.368-33.479 51.31 282.798 107.64 5.889 1.049 12.195 1.402 17.916-.345 39.193-11.971 52.261-63.561-86.277-115.743"/><g filter="url(#e)"><path fill="#fff" d="M45.245 28.396a3.55 3.55 0 0 1 3.55-3.55h28.052a3.55 3.55 0 0 1 3.55 3.55v33.331a3.55 3.55 0 0 1-3.55 3.55H48.796a3.55 3.55 0 0 1-3.55-3.55z"/><path stroke="#ebecef" stroke-width=".346" d="M45.418 28.396a3.38 3.38 0 0 1 3.378-3.378h28.05a3.38 3.38 0 0 1 3.379 3.378v33.331a3.38 3.38 0 0 1-3.378 3.378H48.796a3.38 3.38 0 0 1-3.378-3.378z"/><g clip-path="url(#f)"><path fill="#783bf0" stroke="#783bf0" stroke-linecap="round" stroke-linejoin="round" stroke-width=".761" d="M64.245 34.775c.449-.404.973-.455 1.548-.477.297-.011.446-.017.567.023a.73.73 0 0 1 .435.391c.052.117.062.265.082.562.038.574.043 1.1-.312 1.59-.299.412-.837.647-1.078 1.097-.184.344-.072.684.033 1.034l.788 2.623c.157.523.076.867-.275 1.257-.186.207-.35.206-.524-.04l-2.12-3.015-.895.792c-.325.287-.487.43-.566.624-.185.455-.018 1.115.014 1.596.017.265-.185.801-.51.836-.2.022-.28-.215-.353-.359l-.699-1.386c-.167-.332-.173-.338-.52-.47l-1.452-.55c-.15-.056-.395-.112-.394-.313 0-.326.513-.584.779-.594.481-.018 1.155.08 1.588-.153.185-.099.31-.275.562-.628l.694-.973-3.22-1.793c-.263-.147-.282-.31-.095-.517.35-.39.685-.506 1.221-.405l2.691.51c.36.067.71.143 1.032-.076.422-.287.6-.846.979-1.186"/></g><path fill="#000" d="m54.477 55.628-.242-4.61 2.957-.154.043.823-2.055.108.058 1.106 1.712-.09.044.823-1.713.09.098 1.857zm3.554-.186-.173-3.292.87-.046.172 3.293zm.234-3.849a.5.5 0 0 1-.357-.126.49.49 0 0 1-.037-.705.48.48 0 0 1 .698-.036.49.49 0 0 1 .037.705.48.48 0 0 1-.341.162m2.972 5.088q-.375.02-.668-.018a2.3 2.3 0 0 1-.495-.113 2 2 0 0 1-.331-.154l.306-.716q.094.048.25.106.155.064.368.1.213.04.49.026a1 1 0 0 0 .456-.13.7.7 0 0 0 .299-.332q.108-.218.09-.546l-.155-2.963.87-.046.153 2.937q.03.553-.16.96a1.4 1.4 0 0 1-.568.637q-.372.224-.905.252m-.25-1.486a1.53 1.53 0 0 1-.8-.156 1.36 1.36 0 0 1-.543-.527 1.8 1.8 0 0 1-.228-.833 2 2 0 0 1 .137-.898q.165-.393.483-.614.325-.228.78-.252.395-.02.695.175.3.19.479.563.178.374.206.9a2 2 0 0 1-.115.838 1.3 1.3 0 0 1-.419.577 1.2 1.2 0 0 1-.675.227m.212-.744a.7.7 0 0 0 .383-.133.8.8 0 0 0 .247-.33q.081-.209.068-.465a1 1 0 0 0-.123-.456.73.73 0 0 0-.28-.296.67.67 0 0 0-.394-.091.75.75 0 0 0-.403.133.76.76 0 0 0-.26.324q-.088.202-.081.466.02.257.13.456.108.192.293.302a.8.8 0 0 0 .42.09m2.425.698-.242-4.61.87-.045.24 4.61zm2.186-.114-.088-1.686.869-.046.088 1.686zm-.088-1.686q-.017-.336-.107-.516a.53.53 0 0 0-.23-.252.6.6 0 0 0-.328-.069q-.336.01-.51.231-.166.22-.144.635l-.29.016q-.029-.527.105-.898.138-.376.405-.582.273-.213.648-.232a1.3 1.3 0 0 1 .674.123q.285.144.447.472.162.321.19.848l.009.178zm2.992 1.613q-.547.028-.844-.227-.291-.255-.317-.756l-.176-3.358.87-.046.165 3.168q.01.21.11.318.096.1.275.09a.5.5 0 0 0 .143-.033 1 1 0 0 0 .16-.101l.337.636a1.4 1.4 0 0 1-.346.21 1 1 0 0 1-.377.099m-1.778-2.549-.039-.737 2.226-.117.039.738zm4.282 2.418q-.316.016-.597-.062a1.6 1.6 0 0 1-.502-.25 1.3 1.3 0 0 1-.353-.431l.727-.382a.95.95 0 0 0 .284.263.7.7 0 0 0 .401.091.8.8 0 0 0 .333-.077q.115-.072.109-.19a.18.18 0 0 0-.108-.166.9.9 0 0 0-.262-.086l-.307-.063q-.48-.1-.772-.356a.88.88 0 0 1-.303-.618q-.026-.507.282-.8.314-.294.914-.326.31-.016.578.063.275.078.474.232a.86.86 0 0 1 .284.368l-.701.367q-.053-.129-.235-.199a.8.8 0 0 0-.36-.067.43.43 0 0 0-.272.094.25.25 0 0 0-.082.209q.004.086.1.14.095.048.268.078l.434.083q.326.063.527.23a1 1 0 0 1 .303.374q.104.206.114.41a.84.84 0 0 1-.15.536q-.159.233-.456.374a1.7 1.7 0 0 1-.672.16"/></g><g filter="url(#g)"><path fill="#fff" d="M143.268 181.685a3.55 3.55 0 0 1 3.55-3.55h45.035a3.55 3.55 0 0 1 3.551 3.55v32.383a3.55 3.55 0 0 1-3.551 3.551h-45.035a3.55 3.55 0 0 1-3.55-3.551z"/><path stroke="#ebecef" stroke-width=".346" d="M143.44 181.685a3.38 3.38 0 0 1 3.378-3.378h45.035a3.38 3.38 0 0 1 3.378 3.378v32.383a3.38 3.38 0 0 1-3.378 3.378h-45.035a3.38 3.38 0 0 1-3.378-3.378z"/><g stroke="#c19f28" stroke-linecap="round" stroke-width=".761" clip-path="url(#h)"><path stroke-linejoin="round" d="M166.832 191.849s0 1.522 1.488 2.029"/><path d="M174.408 196.603a2.49 2.49 0 0 1-2.404 0 1.52 1.52 0 0 0-1.467 0s-.01 0-.01.01a2.48 2.48 0 0 1-2.394 0 1.51 1.51 0 0 0-1.466 0m0-.009a2.5 2.5 0 0 1-2.404 0m4.564-7.291a4.82 4.82 0 0 0 4.819 4.819l.761-.001"/><path d="M166.742 189.274c.188.11.554.384 1.162.274.731-.225 1.33-.413 1.796-.134.457.274.761.518.943.396.091.018.242-.328.21-.822a2.5 2.5 0 0 0-.398-1.156c-.152-.213-.25-.288-.268-.305-.986-.926-2.578-1.078-3.987 0-1.583 1.279-1.796 2.892-1.887 3.683-.152 1.522.091 3.257.335 4.2"/></g><path fill="#000" d="m151.447 207.993-.001-4.616h2.922v.825h-2.018v1.048h1.741v.805h-1.741v1.114h2.044v.824zm3.428 0 1.352-1.886.943-1.411h1.028l-1.312 1.84-.969 1.457zm2.367 0-.956-1.457-1.326-1.84h1.029l.943 1.411 1.345 1.886zm1.491 1.319v-4.616h.818l.053.607v4.009zm1.867-1.24q-.416 0-.706-.211a1.3 1.3 0 0 1-.435-.6 2.5 2.5 0 0 1-.152-.916q0-.535.152-.917.151-.388.435-.6.29-.211.705-.211.455 0 .785.211.336.21.521.6.185.382.185.916 0 .528-.185.917-.185.39-.521.6a1.4 1.4 0 0 1-.784.211m-.225-.798a.73.73 0 0 0 .416-.118.8.8 0 0 0 .29-.33q.105-.211.105-.481 0-.271-.105-.482a.73.73 0 0 0-.284-.323.73.73 0 0 0-.415-.119q-.225 0-.402.119a.8.8 0 0 0-.277.33 1.1 1.1 0 0 0-.099.475q0 .27.099.481a.8.8 0 0 0 .27.33.7.7 0 0 0 .402.118m3.756.798a1.7 1.7 0 0 1-.863-.217 1.6 1.6 0 0 1-.594-.614 1.85 1.85 0 0 1-.211-.897q0-.507.218-.896.223-.39.606-.607.39-.224.89-.224.436 0 .798.23.37.225.587.666.225.436.225 1.062h-2.5l.079-.079q0 .245.119.429a.9.9 0 0 0 .317.277 1 1 0 0 0 .422.092q.27 0 .441-.112a.8.8 0 0 0 .264-.303l.778.303a1.6 1.6 0 0 1-.362.481 1.5 1.5 0 0 1-.521.304q-.303.105-.693.105m-.718-2.064-.08-.079h1.59l-.073.079a.58.58 0 0 0-.112-.376.66.66 0 0 0-.277-.211.8.8 0 0 0-.31-.066.9.9 0 0 0-.323.066.75.75 0 0 0-.297.211.56.56 0 0 0-.118.376m3.473.251q0-.534.204-.884a1.4 1.4 0 0 1 .534-.521q.33-.171.686-.171v.844q-.303 0-.573.072a.95.95 0 0 0-.429.238.57.57 0 0 0-.165.422zm-.613 1.734v-3.297h.87v3.297zm2.531 0v-3.297h.871v3.297zm.435-3.831a.5.5 0 0 1-.349-.146.487.487 0 0 1 0-.705.48.48 0 0 1 .699 0 .487.487 0 0 1 0 .705.48.48 0 0 1-.35.146m2.709 3.91q-.487 0-.864-.218a1.6 1.6 0 0 1-.593-.613 1.85 1.85 0 0 1-.212-.897q0-.507.218-.897.225-.388.607-.606.389-.225.89-.225.435 0 .798.231.37.225.587.666.224.435.224 1.062h-2.499l.079-.079a.77.77 0 0 0 .119.429.9.9 0 0 0 .316.276 1 1 0 0 0 .422.093.8.8 0 0 0 .442-.112.8.8 0 0 0 .264-.304l.778.304a1.6 1.6 0 0 1-.363.481 1.5 1.5 0 0 1-.521.303 2.1 2.1 0 0 1-.692.106m-.719-2.064-.079-.079h1.589l-.072.079a.58.58 0 0 0-.113-.376.65.65 0 0 0-.276-.211.8.8 0 0 0-.31-.066.9.9 0 0 0-.324.066.73.73 0 0 0-.296.211.56.56 0 0 0-.119.376m2.86 1.985v-3.297h.818l.053.606v2.691zm2.183 0v-1.688l.87-.001v1.689zm0-1.688q0-.337-.079-.521a.5.5 0 0 0-.211-.264.6.6 0 0 0-.323-.086q-.337-.006-.521.205-.178.21-.178.626h-.291q0-.528.152-.89.159-.369.435-.561.284-.198.66-.198.389 0 .666.159.276.158.422.494.145.33.138.857v.178zm3.135 1.767q-.515 0-.917-.218a1.6 1.6 0 0 1-.627-.613 1.8 1.8 0 0 1-.224-.897q0-.507.224-.897.224-.388.62-.607.396-.224.91-.224.495 0 .904.244.408.244.593.706l-.817.29a.7.7 0 0 0-.291-.303.8.8 0 0 0-.428-.119.8.8 0 0 0-.429.119.77.77 0 0 0-.29.316q-.106.204-.106.475 0 .27.106.475a.81.81 0 0 0 .732.435.77.77 0 0 0 .429-.125.76.76 0 0 0 .29-.33l.824.29a1.5 1.5 0 0 1-.6.725 1.64 1.64 0 0 1-.903.258m3.481 0a1.7 1.7 0 0 1-.864-.218 1.6 1.6 0 0 1-.594-.613 1.86 1.86 0 0 1-.211-.897q0-.509.218-.897.224-.389.607-.607.389-.224.89-.224.435 0 .798.231.37.224.587.666.224.435.224 1.062h-2.499l.079-.079q0 .243.118.428a.9.9 0 0 0 .317.277 1 1 0 0 0 .422.092q.27 0 .442-.112a.8.8 0 0 0 .264-.303l.778.303a1.7 1.7 0 0 1-.363.482 1.5 1.5 0 0 1-.521.303q-.303.105-.692.106m-.719-2.064-.079-.08h1.589l-.073.08a.58.58 0 0 0-.112-.376.64.64 0 0 0-.277-.211.8.8 0 0 0-.31-.066.9.9 0 0 0-.323.066.73.73 0 0 0-.296.211.55.55 0 0 0-.119.376m4.093 2.063q-.317 0-.593-.092a1.6 1.6 0 0 1-.488-.277 1.3 1.3 0 0 1-.33-.448l.745-.343a1 1 0 0 0 .27.277.7.7 0 0 0 .396.112q.218 0 .336-.059.12-.066.119-.185a.18.18 0 0 0-.099-.172.9.9 0 0 0-.257-.098l-.303-.08q-.475-.125-.752-.395a.88.88 0 0 1-.271-.633q0-.508.324-.785.329-.277.929-.277.31 0 .574.092.27.093.462.258a.85.85 0 0 1 .263.382l-.718.33q-.047-.132-.225-.211a.8.8 0 0 0-.356-.086.43.43 0 0 0-.277.079.25.25 0 0 0-.092.205q0 .085.092.145.093.053.264.092l.429.105q.323.08.514.258a1 1 0 0 1 .284.389q.092.21.092.415a.84.84 0 0 1-.178.528 1.1 1.1 0 0 1-.475.349 1.7 1.7 0 0 1-.679.125"/></g><g filter="url(#i)"><path fill="#fff" d="M50.875 146.7a3.55 3.55 0 0 1 3.55-3.55h28.407a3.55 3.55 0 0 1 3.551 3.55v32.383a3.55 3.55 0 0 1-3.55 3.551H54.425a3.55 3.55 0 0 1-3.551-3.551z"/><path stroke="#ebecef" stroke-width=".346" d="M51.048 146.7a3.38 3.38 0 0 1 3.378-3.378h28.406a3.38 3.38 0 0 1 3.378 3.378v32.383a3.38 3.38 0 0 1-3.378 3.378H54.426a3.38 3.38 0 0 1-3.378-3.378z"/><g stroke-linecap="round" stroke-width=".761" clip-path="url(#j)"><path stroke="#076edd" stroke-linejoin="round" d="M71.672 151.79v1.014m-6.087-1.014v1.015"/><path fill="#076edd" stroke="#076edd" stroke-linejoin="round" d="M63.81 156.986c0-2.21 0-3.315.636-4.002.635-.687 1.657-.687 3.702-.687h.963c2.045 0 3.067 0 3.702.687.635.686.635 1.792.636 4.002v.26c0 2.211 0 3.316-.635 4.002-.636.687-1.658.687-3.702.687h-.964c-2.045 0-3.067 0-3.702-.686-.635-.687-.635-1.792-.635-4.002z"/><path stroke="#fff" d="M67.304 157.031c.476-.278.892-.166 1.141.012.103.074.154.11.184.11s.081-.036.184-.11c.25-.178.665-.29 1.14-.012.626.365.767 1.569-.674 2.585-.275.194-.412.29-.65.29s-.375-.096-.65-.29c-1.441-1.016-1.3-2.22-.675-2.585Z"/><path stroke="#fff" stroke-linejoin="round" d="m64.064 154.834 9.13-.001"/></g><path fill="#000" d="M56.21 173.009v-4.617h.904v4.617zm3.12.079q-.548 0-.83-.271-.278-.27-.278-.771v-3.363h.87v3.171a.5.5 0 0 0 .093.324q.093.105.27.105a.5.5 0 0 0 .146-.026 1 1 0 0 0 .164-.093l.304.653a1.4 1.4 0 0 1-.356.191 1 1 0 0 1-.383.08m-1.642-2.638v-.739h2.229v.739zm2.97 2.558v-3.297h.87v3.297zm.435-3.831a.5.5 0 0 1-.35-.145.487.487 0 0 1 0-.706.48.48 0 0 1 .7 0 .49.49 0 0 1 0 .706.48.48 0 0 1-.35.145m1.218 3.831v-3.297h.818l.053.607v2.69zm2.183 0v-1.688h.87v1.688zm0-1.688q0-.336-.08-.521a.5.5 0 0 0-.21-.264.6.6 0 0 0-.323-.085q-.337-.007-.521.204-.178.212-.178.627h-.29q0-.528.151-.891a1.26 1.26 0 0 1 .435-.56q.285-.198.66-.198.39 0 .666.158.276.159.422.495.145.33.138.857v.178zm3.036 1.767q-.489 0-.864-.217a1.6 1.6 0 0 1-.594-.614 1.85 1.85 0 0 1-.21-.896q0-.508.217-.897.225-.39.607-.607.389-.224.89-.224.435 0 .798.231.37.224.587.666.225.435.224 1.061h-2.5l.08-.079q0 .245.118.429a.9.9 0 0 0 .317.277 1 1 0 0 0 .422.092q.27 0 .442-.112a.8.8 0 0 0 .264-.303l.778.303a1.6 1.6 0 0 1-.363.481 1.5 1.5 0 0 1-.52.304q-.305.105-.693.105m-.72-2.064-.078-.079h1.589l-.072.079a.58.58 0 0 0-.113-.376.66.66 0 0 0-.277-.211.8.8 0 0 0-.31-.066.9.9 0 0 0-.323.066.75.75 0 0 0-.296.211.56.56 0 0 0-.12.376m3.474.251q0-.534.205-.884.21-.35.534-.521.33-.171.686-.171v.844q-.304 0-.574.072a.95.95 0 0 0-.429.238.57.57 0 0 0-.165.422zm-.613 1.734v-3.297h.87v3.297zm4.47 0-.026-.666v-1.002a1.7 1.7 0 0 0-.066-.508.6.6 0 0 0-.198-.323.52.52 0 0 0-.363-.119.8.8 0 0 0-.382.092.8.8 0 0 0-.29.284l-.765-.264q.092-.21.27-.409a1.3 1.3 0 0 1 .462-.329q.29-.132.705-.132.502 0 .831.191.337.191.495.541.165.343.158.817l-.02 1.827zm-.923.079q-.593 0-.923-.264-.323-.263-.323-.745 0-.527.35-.791.356-.27.995-.27h.838v.646h-.535q-.428 0-.593.105a.31.31 0 0 0-.165.284q0 .145.132.231a.73.73 0 0 0 .37.079.73.73 0 0 0 .382-.099.8.8 0 0 0 .27-.264.65.65 0 0 0 .099-.336h.211q0 .673-.257 1.048-.25.376-.85.376m3.041-1.813q0-.534.205-.884.21-.35.534-.521.33-.171.686-.171v.844q-.304 0-.574.072a.95.95 0 0 0-.428.238.57.57 0 0 0-.165.422zm-.613 1.734v-3.297h.87v3.297zm3.138 1.398q-.177 0-.395-.073a2 2 0 0 1-.376-.158l.323-.706q.112.06.204.093a.5.5 0 0 0 .172.039.4.4 0 0 0 .244-.079.5.5 0 0 0 .171-.217l.39-.917 1.048-2.677h.956l-1.497 3.58a4.5 4.5 0 0 1-.29.581 1.1 1.1 0 0 1-.376.395q-.217.14-.574.139m.502-1.398-1.51-3.297h.956l1.101 2.677.284.62z"/></g><g filter="url(#k)"><path fill="#fff" d="M265.363 207.635a3.55 3.55 0 0 1 3.551-3.551h28.406a3.55 3.55 0 0 1 3.551 3.551v31.713a3.55 3.55 0 0 1-3.551 3.551h-28.406a3.55 3.55 0 0 1-3.551-3.551z"/><path stroke="#ebecef" stroke-width=".346" d="M265.536 207.635a3.38 3.38 0 0 1 3.378-3.378h28.406a3.38 3.38 0 0 1 3.378 3.378v31.713a3.38 3.38 0 0 1-3.378 3.378h-28.406a3.38 3.38 0 0 1-3.378-3.378z"/><g stroke-width=".761" clip-path="url(#l)"><path stroke="#6007dd" stroke-linecap="round" stroke-linejoin="round" d="M283.6 222.869c1.341 0 2.012 0 2.494-.383.481-.384.635-1.041.942-2.354l.973-4.158c.17-.727.255-1.091.1-1.354-.28-.478-.995-.374-1.461-.374"/><path fill="#6007dd" stroke="#6007dd" d="M278.045 216.275c0-1.673 0-2.51.52-3.03s1.357-.52 3.031-.52l1.521-.001c1.674 0 2.511 0 3.031.52s.52 1.357.52 3.031v3.044c.001 1.674.001 2.51-.519 3.031-.52.52-1.357.52-3.031.52h-1.522c-1.674 0-2.511 0-3.031-.52s-.52-1.357-.52-3.031z"/><path stroke="#fff" stroke-linecap="round" d="M280.582 220.333h3.551"/></g><path fill="#000" d="m278.602 233.273 1.748-4.616h.969l-1.833 4.616zm-.099 0-1.84-4.616h.97l1.754 4.616zm3.276 0-.001-3.297h.871v3.297zm.435-3.832a.5.5 0 0 1-.35-.145.487.487 0 0 1 0-.705.48.48 0 0 1 .35-.152q.204 0 .349.152a.487.487 0 0 1 0 .705.48.48 0 0 1-.349.145m2.451 3.911q-.316 0-.594-.092a1.6 1.6 0 0 1-.488-.277 1.3 1.3 0 0 1-.329-.449l.745-.343a.95.95 0 0 0 .27.277.7.7 0 0 0 .396.112q.218 0 .336-.059.119-.066.119-.185a.18.18 0 0 0-.099-.171.8.8 0 0 0-.257-.099l-.303-.079q-.476-.126-.752-.396a.88.88 0 0 1-.271-.633q0-.507.323-.785.33-.276.93-.277.31 0 .574.093.27.092.462.257a.86.86 0 0 1 .263.382l-.718.33q-.046-.132-.225-.211a.8.8 0 0 0-.356-.086.44.44 0 0 0-.277.079.25.25 0 0 0-.092.205q0 .085.092.145.093.053.264.092l.429.106q.323.079.514.257a1 1 0 0 1 .284.389q.092.211.092.415a.84.84 0 0 1-.178.528 1.13 1.13 0 0 1-.475.35 1.7 1.7 0 0 1-.679.125m3.81-.079-.026-.666v-1.003q0-.297-.066-.508a.62.62 0 0 0-.198-.323.52.52 0 0 0-.363-.118q-.21 0-.382.092a.8.8 0 0 0-.29.284l-.765-.264q.091-.211.27-.409.179-.204.462-.33.29-.132.705-.132.501 0 .831.192.336.19.495.54.165.343.158.818l-.02 1.827zm-.923.079q-.593 0-.923-.264-.323-.264-.323-.745 0-.528.349-.791.357-.271.996-.271h.837v.646h-.534q-.428 0-.593.106a.31.31 0 0 0-.165.283q0 .145.132.231a.7.7 0 0 0 .369.079.73.73 0 0 0 .383-.099.8.8 0 0 0 .27-.263.65.65 0 0 0 .099-.337h.211q0 .673-.257 1.049-.25.376-.851.376"/></g><g filter="url(#m)"><path fill="#fff" d="M268.671 106.886a3.55 3.55 0 0 1 3.551-3.55H306.6a3.55 3.55 0 0 1 3.551 3.55v31.613a3.55 3.55 0 0 1-3.551 3.551h-34.378a3.55 3.55 0 0 1-3.551-3.551z"/><path stroke="#ebecef" stroke-width=".346" d="M268.844 106.886a3.377 3.377 0 0 1 3.378-3.377H306.6a3.38 3.38 0 0 1 3.378 3.377v31.613a3.38 3.38 0 0 1-3.378 3.378h-34.378a3.38 3.38 0 0 1-3.378-3.378z"/><g stroke-linejoin="round" stroke-width=".735" clip-path="url(#n)"><path fill="#941cf7" stroke="#941cf7" d="M290.474 121.352c2.048-.136 3.68-1.791 3.814-3.868a10 10 0 0 0 0-1.234c-.134-2.078-1.766-3.733-3.814-3.869a16 16 0 0 0-2.126 0c-2.049.136-3.68 1.791-3.815 3.869a10 10 0 0 0 0 1.234c.049.756.384 1.457.778 2.048.229.415.078.931-.161 1.383-.171.326-.257.488-.188.606s.223.121.531.129c.609.015 1.02-.158 1.346-.399.185-.136.278-.204.341-.212.064-.008.189.044.44.147.226.093.487.15.728.166.697.046 1.427.047 2.126 0Z"/><path stroke="#fff" stroke-linecap="round" d="M287.696 118.223h3.428m-3.428-2.449h1.714"/></g><path fill="#000" d="M279.192 132.343q-.35 0-.653-.085a2 2 0 0 1-.541-.238 1.8 1.8 0 0 1-.396-.349 1 1 0 0 1-.198-.403l.884-.263a.9.9 0 0 0 .303.389q.218.158.548.164.35.007.567-.151a.48.48 0 0 0 .224-.409.45.45 0 0 0-.178-.363 1.15 1.15 0 0 0-.475-.231l-.6-.158a1.9 1.9 0 0 1-.593-.257 1.3 1.3 0 0 1-.403-.435 1.2 1.2 0 0 1-.145-.6q0-.653.429-1.016.435-.369 1.226-.369.442 0 .772.132.336.125.56.362.225.238.343.561l-.877.27a.8.8 0 0 0-.29-.382.86.86 0 0 0-.534-.158q-.33 0-.521.151a.52.52 0 0 0-.185.429.43.43 0 0 0 .146.343q.151.125.408.191l.607.152q.594.144.923.521.33.375.33.837 0 .409-.198.719-.198.303-.573.475-.376.171-.91.171m4.486-.079-.052-.607v-2.69h.87v3.297zm-2.235-1.609v-1.688h.87v1.688zm.87 0q0 .33.073.521a.56.56 0 0 0 .218.27.66.66 0 0 0 .323.079q.342.008.521-.204.178-.218.178-.626l.296-.001q0 .528-.158.897-.158.363-.435.561a1.12 1.12 0 0 1-.653.191q-.396 0-.672-.158a1 1 0 0 1-.423-.488q-.138-.336-.138-.864v-.178zm2.951 2.928-.001-4.616h.818l.053.606v4.01zm1.866-1.24q-.415 0-.706-.211a1.33 1.33 0 0 1-.435-.6 2.5 2.5 0 0 1-.152-.917q0-.534.152-.916.151-.39.435-.6.29-.211.706-.211.455 0 .784.211.337.21.521.6.185.382.185.916 0 .528-.185.917a1.4 1.4 0 0 1-.521.6 1.4 1.4 0 0 1-.784.211m-.225-.798a.73.73 0 0 0 .416-.119.8.8 0 0 0 .29-.329q.106-.212.106-.482t-.106-.481a.7.7 0 0 0-.284-.323.73.73 0 0 0-.415-.119.7.7 0 0 0-.402.119.8.8 0 0 0-.277.33 1.1 1.1 0 0 0-.099.474q0 .271.099.482a.8.8 0 0 0 .27.329q.179.12.402.119m2.299 2.038v-4.616h.818l.053.606v4.01zm1.866-1.24q-.416 0-.705-.211a1.33 1.33 0 0 1-.435-.6 2.5 2.5 0 0 1-.152-.917q0-.534.151-.916.153-.39.436-.601.29-.21.705-.211.455 0 .785.211.336.211.521.601.185.382.185.916 0 .528-.185.917a1.4 1.4 0 0 1-.521.6q-.33.211-.785.211m-.224-.798q.237 0 .416-.119a.8.8 0 0 0 .29-.329 1.1 1.1 0 0 0 .105-.482q0-.27-.105-.481a.7.7 0 0 0-.284-.323.73.73 0 0 0-.415-.119q-.225 0-.403.119a.8.8 0 0 0-.277.329 1.1 1.1 0 0 0-.098.475q0 .27.099.482.098.21.27.329a.7.7 0 0 0 .402.119m3.816.798a1.83 1.83 0 0 1-.897-.218 1.64 1.64 0 0 1-.614-.613 1.8 1.8 0 0 1-.217-.897q0-.507.217-.897.218-.388.607-.606.389-.225.89-.225.508 0 .897.225.389.218.607.606.217.39.217.897 0 .508-.217.897a1.6 1.6 0 0 1-.607.613 1.75 1.75 0 0 1-.883.218m0-.805a.8.8 0 0 0 .428-.118.8.8 0 0 0 .284-.324q.105-.21.105-.481 0-.27-.105-.475a.8.8 0 0 0-.297-.329.77.77 0 0 0-.429-.119.8.8 0 0 0-.428.119.8.8 0 0 0-.29.329 1 1 0 0 0-.106.475q0 .27.106.481.105.205.296.324a.8.8 0 0 0 .436.118m2.875-1.009q0-.534.204-.883.211-.35.535-.521.329-.172.685-.172v.844q-.303 0-.573.073a.94.94 0 0 0-.429.237.57.57 0 0 0-.165.422zm-.613 1.735v-3.298h.87v3.298zm3.837.079q-.547 0-.831-.271-.276-.27-.277-.771v-3.363h.871v3.171q0 .211.092.324.093.105.27.105a.5.5 0 0 0 .145-.026 1 1 0 0 0 .165-.093l.304.653a1.4 1.4 0 0 1-.356.191 1 1 0 0 1-.383.08m-1.642-2.638v-.739h2.229v.739z"/></g><g filter="url(#o)"><rect width="35.508" height="39.484" x="154.937" y="67.406" fill="#fff" rx="3.551"/><rect width="35.162" height="39.139" x="155.109" y="67.579" stroke="#ebecef" stroke-width=".346" rx="3.378"/><g clip-path="url(#p)"><path fill="#f7741c" d="M167.323 77.062v8.116c0 .478 0 .717.149.866.149.148.388.148.866.148h7.102c.478 0 .717 0 .866-.148.148-.149.148-.388.148-.866V77.06"/><path stroke="#f7741c" stroke-linecap="round" stroke-linejoin="round" stroke-width=".761" d="M167.323 77.062v8.116c0 .478 0 .717.149.866.149.148.388.148.866.148h7.102c.478 0 .717 0 .866-.148.148-.149.148-.388.148-.866V77.06"/><path stroke="#fff" stroke-linecap="round" stroke-linejoin="round" stroke-width=".761" d="M171.127 79.09v.761m0 0v.761m0-.76h1.522m0-.761v.76m0 0v.761m.253 5.58v-2.03a1.014 1.014 0 1 0-2.029.001v2.029"/><path fill="#f7741c" d="M166.815 77.062h3.044c.325-.595 1.111-1.015 2.029-1.015s1.704.42 2.029 1.014h3.044"/><path stroke="#f7741c" stroke-linecap="round" stroke-linejoin="round" stroke-width=".761" d="M166.815 77.062h3.044c.325-.595 1.111-1.015 2.029-1.015s1.704.42 2.029 1.014h3.044"/><path stroke="#fff" stroke-linecap="round" stroke-linejoin="round" stroke-width=".761" d="M168.845 79.09h.507m-.507 2.03h.507m-.507 2.029h.507m5.073-4.059h.507m-.507 2.03h.507m-.507 2.029h.507"/></g><path fill="#000" d="M165.53 97.344a2.4 2.4 0 0 1-.653-.086 2 2 0 0 1-.541-.237 1.8 1.8 0 0 1-.396-.35 1 1 0 0 1-.197-.402l.883-.264q.086.225.304.39.217.158.547.164.35.007.567-.151a.48.48 0 0 0 .224-.41.45.45 0 0 0-.178-.362 1.14 1.14 0 0 0-.475-.23l-.6-.159a1.9 1.9 0 0 1-.593-.257 1.2 1.2 0 0 1-.548-1.035q0-.654.429-1.016.435-.37 1.227-.37.441 0 .771.132.336.126.561.363.223.237.343.56l-.877.271a.8.8 0 0 0-.291-.382.86.86 0 0 0-.534-.159q-.33 0-.521.152a.52.52 0 0 0-.184.429q0 .218.145.343.151.125.409.19l.606.153q.594.145.924.52.329.376.329.838 0 .408-.198.719a1.3 1.3 0 0 1-.573.475q-.376.17-.91.17m3.669 0q-.548 0-.831-.27-.277-.27-.277-.772v-3.363h.87l.001 3.172q0 .21.092.323.092.105.27.105a.5.5 0 0 0 .145-.026 1 1 0 0 0 .165-.092l.304.652q-.159.12-.357.192a1 1 0 0 1-.382.079m-1.642-2.638v-.738h2.229v.738zm4.85 2.559-.026-.666v-1.003q0-.297-.066-.508a.6.6 0 0 0-.198-.323.52.52 0 0 0-.362-.118.8.8 0 0 0-.383.092.8.8 0 0 0-.29.284l-.765-.264q.093-.21.27-.409a1.3 1.3 0 0 1 .462-.33 1.7 1.7 0 0 1 .706-.132q.501 0 .83.191.337.192.495.541.165.343.158.818l-.019 1.827zm-.923.079q-.593 0-.923-.264-.323-.264-.323-.745 0-.528.349-.791.357-.27.996-.27h.838v.645h-.535q-.428 0-.593.106a.31.31 0 0 0-.165.283q0 .146.132.231a.7.7 0 0 0 .369.08.73.73 0 0 0 .383-.1.8.8 0 0 0 .27-.263.65.65 0 0 0 .099-.337h.211q0 .673-.257 1.049-.25.376-.851.376m2.998 1.319q-.179 0-.396-.073a2 2 0 0 1-.376-.158l.323-.706q.112.06.205.093.099.04.171.04a.4.4 0 0 0 .244-.08.5.5 0 0 0 .172-.218l.389-.916 1.048-2.678h.956l-1.497 3.581q-.138.33-.29.58a1.1 1.1 0 0 1-.376.396q-.218.138-.573.139m.501-1.398-1.51-3.298h.956l1.101 2.678.284.62zm3.852.079a1.9 1.9 0 0 1-.593-.093 1.6 1.6 0 0 1-.488-.277 1.3 1.3 0 0 1-.33-.448l.745-.343a1 1 0 0 0 .27.277.7.7 0 0 0 .396.112q.218 0 .336-.06.119-.065.119-.184a.18.18 0 0 0-.099-.171.8.8 0 0 0-.257-.1l-.303-.078q-.476-.126-.752-.396a.88.88 0 0 1-.271-.633q0-.508.323-.785.33-.276.93-.277.31 0 .574.092.27.093.462.258a.86.86 0 0 1 .263.382l-.718.33q-.047-.132-.225-.211a.8.8 0 0 0-.356-.086.44.44 0 0 0-.277.08.25.25 0 0 0-.092.204q0 .085.092.145.093.053.264.092l.429.105q.323.08.514.258a1 1 0 0 1 .284.389q.092.21.092.415a.84.84 0 0 1-.178.528 1.1 1.1 0 0 1-.475.35 1.7 1.7 0 0 1-.679.125"/></g></g><defs><filter id="b" width="345" height="280" x="0" y="0" color-interpolation-filters="sRGB" filterUnits="userSpaceOnUse"><feFlood flood-opacity="0" result="BackgroundImageFix"/><feColorMatrix in="SourceAlpha" result="hardAlpha" values="0 0 0 0 0 0 0 0 0 0 0 0 0 0 0 0 0 0 127 0"/><feOffset dy="1"/><feGaussianBlur stdDeviation=".5"/><feComposite in2="hardAlpha" operator="out"/><feColorMatrix values="0 0 0 0 0 0 0 0 0 0 0 0 0 0 0 0 0 0 0.09 0"/><feBlend in2="BackgroundImageFix" result="effect1_dropShadow_388_3121"/><feBlend in="SourceGraphic" in2="effect1_dropShadow_388_3121" result="shape"/></filter><filter id="c" width="562.356" height="380.356" x="-108.678" y="-34.678" color-interpolation-filters="sRGB" filterUnits="userSpaceOnUse"><feFlood flood-opacity="0" result="BackgroundImageFix"/><feBlend in="SourceGraphic" in2="BackgroundImageFix" result="shape"/><feGaussianBlur result="effect1_foregroundBlur_388_3121" stdDeviation="33.839"/></filter><filter id="e" width="41.747" height="51.592" x="38.651" y="24.846" color-interpolation-filters="sRGB" filterUnits="userSpaceOnUse"><feFlood flood-opacity="0" result="BackgroundImageFix"/><feColorMatrix in="SourceAlpha" result="hardAlpha" values="0 0 0 0 0 0 0 0 0 0 0 0 0 0 0 0 0 0 127 0"/><feOffset dx="-5.58" dy="10.145"/><feGaussianBlur stdDeviation=".507"/><feComposite in2="hardAlpha" operator="out"/><feColorMatrix values="0 0 0 0 0 0 0 0 0 0 0 0 0 0 0 0 0 0 0.09 0"/><feBlend in2="BackgroundImageFix" result="effect1_dropShadow_388_3121"/><feBlend in="SourceGraphic" in2="effect1_dropShadow_388_3121" result="shape"/></filter><filter id="g" width="58.73" height="50.644" x="136.673" y="178.135" color-interpolation-filters="sRGB" filterUnits="userSpaceOnUse"><feFlood flood-opacity="0" result="BackgroundImageFix"/><feColorMatrix in="SourceAlpha" result="hardAlpha" values="0 0 0 0 0 0 0 0 0 0 0 0 0 0 0 0 0 0 127 0"/><feOffset dx="-5.58" dy="10.145"/><feGaussianBlur stdDeviation=".507"/><feComposite in2="hardAlpha" operator="out"/><feColorMatrix values="0 0 0 0 0 0 0 0 0 0 0 0 0 0 0 0 0 0 0.09 0"/><feBlend in2="BackgroundImageFix" result="effect1_dropShadow_388_3121"/><feBlend in="SourceGraphic" in2="effect1_dropShadow_388_3121" result="shape"/></filter><filter id="i" width="42.102" height="50.644" x="44.281" y="143.15" color-interpolation-filters="sRGB" filterUnits="userSpaceOnUse"><feFlood flood-opacity="0" result="BackgroundImageFix"/><feColorMatrix in="SourceAlpha" result="hardAlpha" values="0 0 0 0 0 0 0 0 0 0 0 0 0 0 0 0 0 0 127 0"/><feOffset dx="-5.58" dy="10.145"/><feGaussianBlur stdDeviation=".507"/><feComposite in2="hardAlpha" operator="out"/><feColorMatrix values="0 0 0 0 0 0 0 0 0 0 0 0 0 0 0 0 0 0 0.09 0"/><feBlend in2="BackgroundImageFix" result="effect1_dropShadow_388_3121"/><feBlend in="SourceGraphic" in2="effect1_dropShadow_388_3121" result="shape"/></filter><filter id="k" width="42.102" height="49.975" x="258.769" y="204.084" color-interpolation-filters="sRGB" filterUnits="userSpaceOnUse"><feFlood flood-opacity="0" result="BackgroundImageFix"/><feColorMatrix in="SourceAlpha" result="hardAlpha" values="0 0 0 0 0 0 0 0 0 0 0 0 0 0 0 0 0 0 127 0"/><feOffset dx="-5.58" dy="10.145"/><feGaussianBlur stdDeviation=".507"/><feComposite in2="hardAlpha" operator="out"/><feColorMatrix values="0 0 0 0 0 0 0 0 0 0 0 0 0 0 0 0 0 0 0.09 0"/><feBlend in2="BackgroundImageFix" result="effect1_dropShadow_388_3121"/><feBlend in="SourceGraphic" in2="effect1_dropShadow_388_3121" result="shape"/></filter><filter id="m" width="48.074" height="49.874" x="262.077" y="103.336" color-interpolation-filters="sRGB" filterUnits="userSpaceOnUse"><feFlood flood-opacity="0" result="BackgroundImageFix"/><feColorMatrix in="SourceAlpha" result="hardAlpha" values="0 0 0 0 0 0 0 0 0 0 0 0 0 0 0 0 0 0 127 0"/><feOffset dx="-5.58" dy="10.145"/><feGaussianBlur stdDeviation=".507"/><feComposite in2="hardAlpha" operator="out"/><feColorMatrix values="0 0 0 0 0 0 0 0 0 0 0 0 0 0 0 0 0 0 0.09 0"/><feBlend in2="BackgroundImageFix" result="effect1_dropShadow_388_3121"/><feBlend in="SourceGraphic" in2="effect1_dropShadow_388_3121" result="shape"/></filter><filter id="o" width="41.595" height="49.63" x="148.849" y="67.406" color-interpolation-filters="sRGB" filterUnits="userSpaceOnUse"><feFlood flood-opacity="0" result="BackgroundImageFix"/><feColorMatrix in="SourceAlpha" result="hardAlpha" values="0 0 0 0 0 0 0 0 0 0 0 0 0 0 0 0 0 0 127 0"/><feOffset dx="-4.565" dy="8.623"/><feGaussianBlur stdDeviation=".761"/><feComposite in2="hardAlpha" operator="out"/><feColorMatrix values="0 0 0 0 0 0 0 0 0 0 0 0 0 0 0 0 0 0 0.09 0"/><feBlend in2="BackgroundImageFix" result="effect1_dropShadow_388_3121"/><feBlend in="SourceGraphic" in2="effect1_dropShadow_388_3121" result="shape"/></filter><clipPath id="a"><path fill="#fff" d="M1 0h343v278H1z"/></clipPath><clipPath id="f"><path fill="#fff" d="m56.106 33.28 12.157-.636L68.9 44.8l-12.158.637z"/></clipPath><clipPath id="h"><path fill="#fff" d="M163.248 185.761h12.174v12.174h-12.174z"/></clipPath><clipPath id="j"><path fill="#fff" d="M62.542 150.776h12.174v12.174H62.542z"/></clipPath><clipPath id="l"><path fill="#fff" d="M277.03 211.71h12.174v12.174H277.03z"/></clipPath><clipPath id="n"><path fill="#fff" d="M283.534 111.122h11.753v11.753h-11.753z"/></clipPath><clipPath id="p"><path fill="#fff" d="M165.801 75.033h12.174v12.174h-12.174z"/></clipPath><linearGradient id="d" x1="172.5" x2="172.5" y1="33" y2="278" gradientUnits="userSpaceOnUse"><stop stop-color="#fff"/><stop offset="1" stop-color="#d4baef"/></linearGradient></defs></svg>