<svg width="120" height="127" viewBox="0 0 120 127" fill="none" xmlns="http://www.w3.org/2000/svg">
<g filter="url(#filter0_d_374_12371)">
<g clip-path="url(#clip0_374_12371)">
<path d="M14.3399 45.1518C12.4953 41.7543 13.7543 37.5047 17.1518 35.6601L75.8923 3.76884C79.2899 1.92425 83.5395 3.18318 85.384 6.58074L115.844 62.6848C117.688 66.0823 116.43 70.332 113.032 72.1765L54.2915 104.068C50.894 105.912 46.6444 104.653 44.7998 101.256L14.3399 45.1518Z" fill="white"/>
<g clip-path="url(#clip1_374_12371)">
<path d="M59.8681 31.7214L60.8224 33.479M49.3223 37.4473L50.2766 39.2049" stroke="#076EDD" stroke-width="1.5" stroke-linecap="round" stroke-linejoin="round"/>
<path d="M51.1341 48.1193C49.055 44.2901 48.0154 42.3754 48.4699 40.5884C48.9244 38.8013 50.6954 37.8397 54.2375 35.9165L55.9073 35.0099C59.4493 33.0867 61.2204 32.1251 62.9667 32.7173C64.713 33.3094 65.7525 35.224 67.8316 39.0533L68.0767 39.5046C70.1558 43.3339 71.1954 45.2485 70.7409 47.0356C70.2864 48.8226 68.5154 49.7842 64.9733 51.7074L63.3035 52.614C59.7615 54.5372 57.9904 55.4988 56.2442 54.9067C54.4978 54.3145 53.4583 52.3999 51.3792 48.5707L51.1341 48.1193Z" fill="#076EDD" stroke="#076EDD" stroke-width="1.5" stroke-linecap="round" stroke-linejoin="round"/>
<path d="M57.2296 44.9101C57.7929 43.9804 58.6182 43.7836 59.2186 43.8581C59.4648 43.8887 59.5879 43.904 59.6401 43.8757C59.6923 43.8473 59.7464 43.7358 59.8549 43.5127C60.1194 42.9685 60.7339 42.3835 61.8204 42.4175C63.2463 42.4621 64.624 44.4155 63.0827 47.5313C62.7892 48.1248 62.6424 48.4215 62.2298 48.6454C61.8173 48.8694 61.4885 48.831 60.8309 48.7539C57.3783 48.3495 56.4905 46.1302 57.2296 44.9101Z" stroke="white" stroke-width="1.5" stroke-linecap="round"/>
<path d="M49.5488 44.1516L65.3675 35.5628" stroke="white" stroke-width="1.5" stroke-linecap="round" stroke-linejoin="round"/>
</g>
<path d="M53.5981 84.0551L49.256 76.0578L50.8212 75.208L55.1633 83.2053L53.5981 84.0551ZM59.0771 81.2577C58.445 81.601 57.8804 81.7054 57.3833 81.5709C56.8939 81.4323 56.492 81.0736 56.1777 80.4948L53.0142 74.6682L54.5222 73.8494L57.5059 79.3446C57.6382 79.5884 57.7929 79.746 57.9698 79.8176C58.1426 79.8816 58.3318 79.8577 58.5374 79.7461C58.6136 79.7047 58.6891 79.644 58.764 79.5639C58.8347 79.4762 58.9009 79.3712 58.9627 79.2489L60.1024 80.0946C59.994 80.3309 59.8483 80.553 59.6653 80.7609C59.4941 80.9722 59.298 81.1378 59.0771 81.2577ZM53.7512 78.2325L53.0564 76.9529L56.918 74.8563L57.6127 76.1358L53.7512 78.2325ZM61.303 79.8717L58.2015 74.1594L59.7095 73.3406L62.811 79.0529L61.303 79.8717ZM58.453 72.8246C58.2245 72.9487 57.9772 72.9745 57.7111 72.902C57.4408 72.8219 57.2415 72.6639 57.1133 72.4278C56.9851 72.1916 56.9631 71.9423 57.0473 71.6796C57.1274 71.4093 57.2817 71.2121 57.5102 71.088C57.7463 70.9599 57.9957 70.9379 58.2583 71.0221C58.5245 71.0945 58.7217 71.2488 58.8499 71.4849C58.9781 71.721 59.0021 71.9742 58.9221 72.2445C58.8455 72.503 58.6891 72.6964 58.453 72.8246ZM64.1674 78.3165L61.0658 72.6042L62.4825 71.835L63.1446 72.8364L65.6754 77.4977L64.1674 78.3165ZM67.9489 76.2633L66.3609 73.3386L67.869 72.5198L69.457 75.4445L67.9489 76.2633ZM66.3609 73.3386C66.15 72.9501 65.941 72.6741 65.7338 72.5104C65.5342 72.3427 65.3296 72.2565 65.1201 72.252C64.9064 72.2398 64.6929 72.2916 64.4796 72.4074C64.0871 72.6107 63.8503 72.8921 63.7694 73.2516C63.6961 73.607 63.7897 74.0246 64.0502 74.5044L63.5475 74.7774C63.2167 74.168 63.0251 73.6064 62.9729 73.0924C62.9241 72.5666 62.9997 72.1064 63.1996 71.7119C63.4031 71.3056 63.7219 70.9845 64.156 70.7488C64.6054 70.5048 65.0396 70.3874 65.4588 70.3965C65.8779 70.4056 66.2767 70.5589 66.6552 70.8564C67.0295 71.1462 67.3783 71.5978 67.7015 72.2113L67.869 72.5198L66.3609 73.3386ZM73.2828 73.5447C72.7192 73.8507 72.152 73.9959 71.5814 73.9803C71.0067 73.9571 70.4717 73.789 69.9763 73.4761C69.4886 73.1591 69.0856 72.7073 68.7671 72.1208C68.4487 71.5344 68.2932 70.9482 68.3005 70.3624C68.3155 69.7724 68.4756 69.2318 68.7809 68.7406C69.0897 68.2377 69.5335 67.8291 70.1123 67.5148C70.615 67.2419 71.1482 67.125 71.7118 67.1641C72.2789 67.1915 72.8267 67.3921 73.3551 67.7659C73.887 68.128 74.3494 68.6708 74.7423 69.3944L70.4123 71.7453L70.475 71.5338C70.628 71.8156 70.8309 72.0259 71.0838 72.1647C71.3402 72.2918 71.6098 72.3525 71.8927 72.3468C72.1791 72.3294 72.4518 72.2504 72.7108 72.1098C73.023 71.9402 73.243 71.7369 73.3708 71.4999C73.4943 71.2553 73.5516 70.9974 73.5424 70.7263L75.1758 70.5199C75.1896 70.9266 75.1311 71.3183 75.0003 71.695C74.873 72.06 74.6673 72.3985 74.3831 72.7106C74.0989 73.0227 73.7321 73.3007 73.2828 73.5447ZM70.0959 70.6449L69.8844 70.5823L72.6377 69.0873L72.5865 69.2927C72.4376 69.0185 72.255 68.8366 72.0387 68.7469C71.8182 68.6497 71.5921 68.6146 71.3604 68.6419C71.1362 68.665 70.9366 68.7241 70.7614 68.8192C70.5862 68.9143 70.4203 69.0537 70.2636 69.2374C70.1069 69.421 70.0017 69.636 69.948 69.8821C69.8977 70.1165 69.9471 70.3708 70.0959 70.6449ZM76.3491 67.8119C76.0142 67.1949 75.8551 66.6205 75.8721 66.0887C75.8966 65.5527 76.0417 65.0843 76.3074 64.6837C76.5807 64.2789 76.923 63.9648 77.3343 63.7415L78.1283 65.2039C77.7779 65.3941 77.4694 65.6159 77.2026 65.8692C76.9434 66.1184 76.7703 66.3899 76.6833 66.6837C76.5963 66.9775 76.6334 67.2729 76.7947 67.5699L76.3491 67.8119ZM76.918 71.3934L73.8165 65.6811L75.3246 64.8623L78.4261 70.5746L76.918 71.3934ZM84.6629 67.1883L83.9907 66.0592L83.0478 64.3227C82.8617 63.98 82.6644 63.7074 82.4559 63.505C82.255 63.2985 82.0395 63.174 81.8092 63.1313C81.5824 63.0769 81.3358 63.1221 81.0692 63.2669C80.8255 63.3992 80.6336 63.5724 80.4934 63.7866C80.3533 64.0007 80.2746 64.2555 80.2575 64.5508L78.6841 64.8133C78.6584 64.5117 78.6863 64.1908 78.7679 63.8507C78.8454 63.5029 79.0085 63.1678 79.2575 62.8452C79.5099 62.511 79.876 62.2135 80.3559 61.953C80.9347 61.6387 81.4745 61.4886 81.9752 61.5027C82.4836 61.5127 82.9388 61.6699 83.3407 61.9743C83.7462 62.267 84.094 62.6896 84.3841 63.2421L86.0681 66.4253L84.6629 67.1883ZM83.1378 68.1938C82.4524 68.566 81.8365 68.7032 81.2903 68.6053C80.7517 68.5033 80.3314 68.1743 80.0295 67.6183C79.6987 67.0089 79.6524 66.4424 79.8907 65.9185C80.1324 65.383 80.6227 64.9146 81.3615 64.5135L82.8124 63.7257L83.4203 64.8453L82.4949 65.3477C81.9998 65.6165 81.6902 65.8636 81.5659 66.0888C81.4375 66.3064 81.4312 66.5219 81.547 66.7351C81.638 66.9027 81.7865 66.9946 81.9926 67.0109C82.1946 67.0196 82.4327 66.9495 82.7069 66.8007C82.9582 66.6642 83.1481 66.4872 83.2764 66.2695C83.4083 66.0401 83.4817 65.803 83.4967 65.5582C83.5076 65.3058 83.4593 65.0805 83.3517 64.8825L83.7173 64.684C84.1391 65.4609 84.3194 66.147 84.258 66.7424C84.2043 67.3337 83.8309 67.8175 83.1378 68.1938ZM86.7011 62.1912C86.3661 61.5743 86.2071 60.9999 86.224 60.468C86.2486 59.932 86.3937 59.4637 86.6594 59.063C86.9327 58.6582 87.275 58.3442 87.6863 58.1209L88.4803 59.5832C88.1299 59.7734 87.8213 59.9952 87.5545 60.2485C87.2954 60.4977 87.1223 60.7692 87.0353 61.063C86.9482 61.3568 86.9854 61.6522 87.1466 61.9493L86.7011 62.1912ZM87.27 65.7728L84.1685 60.0605L85.6765 59.2416L88.778 64.954L87.27 65.7728ZM94.0221 65.2427C93.8164 65.3544 93.5652 65.4365 93.2684 65.4892C92.9833 65.5454 92.7166 65.5719 92.4683 65.5686L92.3644 64.0422C92.5311 64.0405 92.6781 64.0297 92.8054 64.0099C92.9444 63.9935 93.0559 63.9626 93.1396 63.9171C93.2996 63.8303 93.4157 63.7081 93.4879 63.5505C93.5643 63.4006 93.5951 63.2212 93.5803 63.0122L93.3921 61.0582L92.6902 55.4336L94.3467 54.5341L95.1216 62.1458C95.1684 62.6134 95.1828 63.0395 95.1648 63.4241C95.1509 63.8162 95.0579 64.1626 94.8858 64.4631C94.7213 64.7595 94.4334 65.0194 94.0221 65.2427ZM93.5753 62.3493L87.8575 58.0574L89.5141 57.158L93.9405 60.7605L95.0148 61.5677L93.5753 62.3493Z" fill="black"/>
</g>
</g>
<defs>
<filter id="filter0_d_374_12371" x="-2" y="0.428955" width="121.184" height="128.979" filterUnits="userSpaceOnUse" color-interpolation-filters="sRGB">
<feFlood flood-opacity="0" result="BackgroundImageFix"/>
<feColorMatrix in="SourceAlpha" type="matrix" values="0 0 0 0 0 0 0 0 0 0 0 0 0 0 0 0 0 0 127 0" result="hardAlpha"/>
<feOffset dx="-11" dy="20"/>
<feGaussianBlur stdDeviation="1"/>
<feComposite in2="hardAlpha" operator="out"/>
<feColorMatrix type="matrix" values="0 0 0 0 0 0 0 0 0 0 0 0 0 0 0 0 0 0 0.09 0"/>
<feBlend mode="normal" in2="BackgroundImageFix" result="effect1_dropShadow_374_12371"/>
<feBlend mode="normal" in="SourceGraphic" in2="effect1_dropShadow_374_12371" result="shape"/>
</filter>
<clipPath id="clip0_374_12371">
<path d="M14.3399 45.1518C12.4953 41.7543 13.7543 37.5047 17.1518 35.6601L75.8923 3.76884C79.2899 1.92425 83.5395 3.18318 85.384 6.58074L115.844 62.6848C117.688 66.0823 116.43 70.332 113.032 72.1765L54.2915 104.068C50.894 105.912 46.6444 104.653 44.7998 101.256L14.3399 45.1518Z" fill="white"/>
</clipPath>
<clipPath id="clip1_374_12371">
<rect width="24" height="24" fill="white" transform="translate(43.0947 38.5526) rotate(-28.5)"/>
</clipPath>
</defs>
</svg>
