<svg width="14" height="20" viewBox="0 0 14 20" fill="none" xmlns="http://www.w3.org/2000/svg">
<path d="M0.664186 19.2561C0.297366 19.2561 0 18.9587 0 18.5919V0.664186C0 0.297366 0.297367 0 0.664187 0H7.25735C10.886 0 13.1765 2.64084 13.1765 5.91438C13.1765 8.58146 12.1788 10.3344 10.6723 11.3282C10.363 11.5323 10.2272 11.9334 10.3969 12.2628L13.5011 18.2877C13.7288 18.7298 13.4079 19.2561 12.9106 19.2561H9.75463C9.50189 19.2561 9.27106 19.1127 9.15913 18.8861L6.12763 12.749C6.0157 12.5224 5.78487 12.3789 5.53214 12.3789H4.93625C4.56943 12.3789 4.27206 12.6763 4.27206 13.0431V18.5919C4.27206 18.9587 3.97469 19.2561 3.60787 19.2561H0.664186Z" fill="#7011F6"/>
<path d="M3.02006 9.48598C2.87016 9.41298 2.72535 9.31029 2.47959 8.88077C2.41548 8.7751 2.13965 8.23309 1.8965 7.73486C1.69141 7.31458 1.50637 6.9304 1.52357 6.81566C1.53259 6.69997 1.5592 6.60788 1.68172 6.46172C1.75711 6.37177 2.19095 6.1126 2.27549 6.06157C2.36004 6.01055 2.48176 5.96371 2.59331 5.97622C2.79566 5.96435 3.35257 6.53683 3.4735 6.5893C3.53142 6.63037 3.71541 6.74571 3.88994 6.71814C4.01792 6.69793 4.13339 6.62444 4.25395 6.52128C4.36446 6.42671 6.49758 4.36139 6.69642 4.18057C8.33372 2.77814 10.0276 3.90606 10.307 4.1708C10.5908 4.42306 10.6581 4.50408 10.6639 4.78567C10.6563 5.08503 10.4698 5.19175 10.3656 5.26218C10.2615 5.33262 8.81096 6.24601 8.24498 6.61038C8.12311 6.69748 8.08187 6.81775 8.07001 6.84142C8.02186 6.99593 7.87376 7.99843 7.81856 8.22562C7.79826 8.45759 7.66791 8.77575 7.44324 8.94935C7.20721 9.126 6.78136 9.36778 6.6886 9.43517C6.59583 9.50255 6.37625 9.64647 6.29053 9.64118C6.18212 9.64198 6.05633 9.54834 6.05791 9.34971C6.05949 9.15107 6.02368 8.60854 6.01625 8.52559C6.00882 8.44264 6.04407 8.07923 5.91609 8.09945C5.88399 8.06559 5.67379 8.24946 5.34383 8.43718C5.10271 8.59373 4.84902 8.7527 4.67061 8.85866C3.99229 9.30983 3.60837 9.48372 3.51986 9.50749C3.3496 9.55321 3.21849 9.56011 3.02006 9.48598Z" fill="white"/>
</svg>
