<svg width="12" height="12" viewBox="0 0 12 12" fill="none" xmlns="http://www.w3.org/2000/svg">
<g clip-path="url(#clip0_9127_9000)">
<path d="M5.50848 1.40722C5.5299 1.29252 5.59076 1.18893 5.68053 1.11438C5.77029 1.03983 5.88329 0.999023 5.99998 0.999023C6.11666 0.999023 6.22967 1.03983 6.31943 1.11438C6.40919 1.18893 6.47005 1.29252 6.49148 1.40722L7.01698 4.18622C7.0543 4.38379 7.15031 4.56553 7.29249 4.70771C7.43467 4.84988 7.6164 4.9459 7.81398 4.98322L10.593 5.50872C10.7077 5.53014 10.8113 5.59101 10.8858 5.68077C10.9604 5.77053 11.0012 5.88354 11.0012 6.00022C11.0012 6.1169 10.9604 6.22991 10.8858 6.31967C10.8113 6.40943 10.7077 6.4703 10.593 6.49172L7.81398 7.01722C7.6164 7.05454 7.43467 7.15056 7.29249 7.29274C7.15031 7.43491 7.0543 7.61665 7.01698 7.81422L6.49148 10.5932C6.47005 10.7079 6.40919 10.8115 6.31943 10.8861C6.22967 10.9606 6.11666 11.0014 5.99998 11.0014C5.88329 11.0014 5.77029 10.9606 5.68053 10.8861C5.59076 10.8115 5.5299 10.7079 5.50848 10.5932L4.98298 7.81422C4.94565 7.61665 4.84964 7.43491 4.70746 7.29274C4.56529 7.15056 4.38355 7.05454 4.18598 7.01722L1.40698 6.49172C1.29228 6.4703 1.18868 6.40943 1.11414 6.31967C1.03959 6.22991 0.998779 6.1169 0.998779 6.00022C0.998779 5.88354 1.03959 5.77053 1.11414 5.68077C1.18868 5.59101 1.29228 5.53014 1.40698 5.50872L4.18598 4.98322C4.38355 4.9459 4.56529 4.84988 4.70746 4.70771C4.84964 4.56553 4.94565 4.38379 4.98298 4.18622L5.50848 1.40722Z" stroke="#7011F6" stroke-width="1.02857" stroke-linecap="round" stroke-linejoin="round"/>
<path d="M10 1V3" stroke="#7011F6" stroke-width="1.02857" stroke-linecap="round" stroke-linejoin="round"/>
<path d="M11 2H9" stroke="#7011F6" stroke-width="1.02857" stroke-linecap="round" stroke-linejoin="round"/>
<path d="M2.00006 11C2.55235 11 3.00006 10.5523 3.00006 10C3.00006 9.44772 2.55235 9 2.00006 9C1.44778 9 1.00006 9.44772 1.00006 10C1.00006 10.5523 1.44778 11 2.00006 11Z" stroke="#7011F6" stroke-width="1.02857" stroke-linecap="round" stroke-linejoin="round"/>
</g>
<defs>
<clipPath id="clip0_9127_9000">
<rect width="12" height="12" fill="white"/>
</clipPath>
</defs>
</svg>
