<svg width="14" height="14" viewBox="0 0 14 14" fill="none" xmlns="http://www.w3.org/2000/svg">
<path d="M9.33398 5.83398H10.5007" stroke="#E2CFFD" stroke-width="1.16667" stroke-linecap="round" stroke-linejoin="round"/>
<path d="M9.33398 8.16602H10.5007" stroke="#E2CFFD" stroke-width="1.16667" stroke-linecap="round" stroke-linejoin="round"/>
<path d="M3.59961 8.7513C3.71986 8.40947 3.94325 8.1134 4.23895 7.90396C4.53466 7.69452 4.88808 7.58203 5.25044 7.58203C5.6128 7.58203 5.96623 7.69452 6.26193 7.90396C6.55763 8.1134 6.78103 8.40947 6.90128 8.7513" stroke="#E2CFFD" stroke-width="1.16667" stroke-linecap="round" stroke-linejoin="round"/>
<path d="M5.25065 7.58333C5.89498 7.58333 6.41732 7.061 6.41732 6.41667C6.41732 5.77233 5.89498 5.25 5.25065 5.25C4.60632 5.25 4.08398 5.77233 4.08398 6.41667C4.08398 7.061 4.60632 7.58333 5.25065 7.58333Z" stroke="#E2CFFD" stroke-width="1.16667" stroke-linecap="round" stroke-linejoin="round"/>
<path d="M11.666 2.91602H2.33268C1.68835 2.91602 1.16602 3.43835 1.16602 4.08268V9.91602C1.16602 10.5603 1.68835 11.0827 2.33268 11.0827H11.666C12.3103 11.0827 12.8327 10.5603 12.8327 9.91602V4.08268C12.8327 3.43835 12.3103 2.91602 11.666 2.91602Z" stroke="#E2CFFD" stroke-width="1.16667" stroke-linecap="round" stroke-linejoin="round"/>
</svg>
