<svg width="630" height="293" viewBox="0 0 630 293" fill="none" xmlns="http://www.w3.org/2000/svg">
<g opacity="0.26">
<path d="M32.2636 85.9109L29.9549 82.7935L31.5853 82.9174L32.4266 84.8087L32.2636 85.9109ZM44.1201 50.1913L41.5179 50.987L40.9636 55.4674L39.5222 56.3087L39.5809 57.6326L38.1136 59.2761L39.594 61.95L40.2462 64.5391L41.2962 65.4848L40.2266 67.5326L40.5266 72.2544L42.4896 73.5522L42.3005 77.6544L42.757 79.7283L43.8657 81.5413L43.4288 84.0978L40.6309 82.2848L39.5875 82.7087L37.9244 82.2261L36.5809 80.1131L36.4375 76.4348L35.6418 72.8152L33.2092 71.8435L31.6636 69.6652L30.8679 67.1674L29.6483 66.6913L27.3136 62.2435L25.807 61.05L25.5462 60.0131L24.2549 58.9891L21.1244 59.0478L18.7962 57.15L17.2505 54.6065L15.8549 52.9435L13.3962 51.3978L10.8266 48.2739L6.63312 44.1326L5.06138 41.55L3.00051 37.2587L3.18964 36.3718L2.19834 34.6565L2.43312 32.7131L1.95703 31.5522L2.70703 30.1304L4.36355 28.8522L6.95268 29.1848L8.90268 29.8826L10.9962 31.1804L11.3222 32.1978L13.6179 34.3957L17.4396 35.6087L20.6353 35.85L23.8505 34.7218L26.0483 34.8522L28.0636 35.4522L28.6636 36.5413L29.9223 36.5544L33.3331 35.1848L34.9766 37.3826L38.0288 40.6631L38.9875 40.9174L39.9266 43.9305L41.2505 46.1218L44.2179 48.1761L44.1201 50.1913ZM19.9179 81.0848L18.5483 80.9348L18.0462 79.8391L14.7592 77.3674L11.4592 76.1674L9.82877 74.3935L9.73747 73.5718L10.9701 71.7065L12.2483 71.9935L13.8396 74.2174L15.2744 74.6217L16.8527 76.5457L19.8592 78.5544L20.6222 80.6413L19.9179 81.0848Z" fill="#0D0C0D" stroke="#A970FA"/>
<path d="M276.078 257.172L274.272 255.972L275.948 255.046L276.078 257.172ZM261.842 245.857L267.157 247.448L269.074 247.083L271.5 245.439L274.976 246.991L276.359 248.061L278.211 250.826L276.815 252.241L273.685 253.507L270.561 255.698L267.47 251.863L265.722 250.931L262.95 250.8L261.248 247.996L261.842 245.857Z" fill="#0D0C0D" stroke="#A970FA"/>
<path d="M189.58 144.457L188.961 142.787L190.22 142.357L190.878 143.87L189.58 144.457ZM162.398 165.822L160.135 164.941L161.322 163.761L162.646 164.433L162.398 165.822ZM175.422 158.107L178.839 159.222L181.219 161.524L181.591 163.141L180.333 165.554L180.183 167.328L178.493 169.043L177.222 169.383L177.039 168.059L175.735 166.272L174.933 168.15L172.148 168.802L171.789 165.58L172.265 164.067L172.911 158.915L175.422 158.107ZM151.872 146.054L152.869 148.565L153.098 151.989L153.776 154.578L154.754 156.483L155.7 157.311L158.83 157.983L161.061 159.007L159.665 160.467L158.589 163.474L158.569 164.628L160.356 165.483L159.998 167.002L157.291 167.067L156.313 165.157L151.572 162.965L150.254 162.802L149.243 161.107L149.041 159.326L149.537 157.135L148.037 155.785L147.815 152.557L147.091 151.741L143.459 151.259L141.567 151.67L138.789 150.861L138.893 148.878L142.239 146.752L141.724 144.228L143.25 142.826L145.298 142.337L145.956 145.48L148.03 146.38L146.713 142.513L149.152 141.613L151.043 142.943L151.148 144.613L151.872 146.054Z" fill="#0D0C0D" stroke="#A970FA"/>
<path d="M96.6005 161.739L97.507 163.428L98.6353 164.315L99.1375 165.998L101.661 166.357L102.359 167.57L102.255 169.285L104.218 171L106.253 169.95L107.857 171.483L109.129 171.274L108.979 173.752L107.851 175.174L107.048 174.026L105.503 176.1L105.379 177.15L104.127 177.907L106.024 180.45L108.294 181.448L110.57 181.637L111.255 183.509L111.216 185.002L112.709 185.289L115.644 187.154L116.87 186.991L116.387 189.078L117.959 191.485L118.031 192.659L119.009 193.794L118.937 193.839L116.453 195.822L114.405 194.817L111.666 191.7L109.266 189.802L107.211 188.902L105.972 186.959L102.653 183.822L99.1701 180.815L99.4635 179.296L98.6679 176.23L90.1896 169.017L87.4114 163.859L86.5244 161.204L84.0331 159.548L82.5135 157.357L85.6049 155.009L86.257 154.102L89.9223 156.822L89.9875 158.296L91.3962 158.035L93.9462 161.1L96.5679 161.726L96.6005 161.739Z" fill="#0D0C0D" stroke="#A970FA"/>
<path d="M158.204 214.259L158.1 215.817L158.752 217.859L158.719 218.002L156.248 218.576L154.565 217.774L154.291 219.639L153.443 220.904L153.665 223.617L154.748 224.941L153.639 225.822L152.98 228.352L151.787 228.567L150.939 227.602L147 225.678L144.652 226.233L143.485 226.057L140.654 226.565L140.198 226.057L137.328 225.215L139.324 223.083L140.113 225.691L142.624 222.744L143.276 220.507L144.919 221.035L145.682 219.626L145.891 216.815L146.804 213.978L148.298 212.596L148.989 211.076L149.987 211.572L150.691 213.261L152.028 212.094L155.119 213.509L157.722 213.098L158.204 214.259Z" fill="#0D0C0D" stroke="#A970FA"/>
<path d="M371.805 102L375.496 102.307L378.196 103.213L380.733 105.215L382.259 103.467L384.274 103.128L386.113 105.085L386.302 106.291L387.757 107.609L389.355 107.928L390.039 109.246L389.987 111.163L389.133 113.38L386.263 113.035L383.792 110.035L382.298 110.517L375.646 110.224L369.926 110.465L369.052 111.065L366.385 111.411L365.218 109.878L362.896 109.585L362.329 110.55L360.144 110.837L360.222 109.037L358.826 108.691L357.979 107.687L358.057 106.161L359.159 105.489L360.333 105.75L361.318 104.961L363.894 104.628L367.683 102.789L368.465 103.996L371.805 102Z" fill="#0D0C0D" stroke="#A970FA"/>
<path d="M130.096 144.333L128.414 144.104L128.094 145.435L124.722 146.27L121.742 145.637L120.933 146.446L117.887 147.261L117.014 148.148L116.596 152.354L115.729 152.615L115.429 155.009L114.111 153.907L112.807 151.872L111.822 153.424L112.468 154.715L111.242 155.27L107.844 154.604L107.453 156.633L106.592 158.257L104.427 159.476L103.768 160.546H101.374L100.533 159.77L99.0331 159.698L98.6287 160.767L97.0114 161.876L96.5679 161.726L93.9461 161.1L91.3961 158.035L89.9874 158.296L89.9222 156.822L86.257 154.102L86.3353 152.12L85.6244 149.909L84.2092 147.939L84.0918 144.594L85.4157 145.187L89.1527 144.594L90.1114 142.944L91.7092 141.809L92.2114 140.791L91.9179 138.144L93.6527 137.257L94.3114 136.311L93.7114 133.539L96.1179 131.961L98.9157 133.057L100.585 133.239L102.659 135.104L104.903 135.73L106.083 135.046L106.964 133.526L108.633 132.144L109.996 130.011L111.594 129.887L114.444 130.454L116.355 130.207L118.703 132.62L121.259 134.061L122.87 133.585L126.457 134.954L128.518 134.328L129.098 135.933L128.837 137.25L129.574 139.076L129.405 141.841L130.096 144.333Z" fill="#0D0C0D" stroke="#A970FA"/>
<path d="M186.352 224.57L186.221 225.913L185.165 227.315L185.321 230.204L184.16 231.02L182.38 231.241L182.406 234.157L183.332 234.078L184.16 235.487L185.028 239.27L182.021 239.478L180.821 241.05L178.617 241.559L172.004 240.287L169.937 239.172L168.815 237.711L165.867 236.485L162.3 235.826L154.884 235.22L152.758 234.17L152.504 232.474L154.956 229.344L154.584 228.046L152.98 228.352L153.639 225.822L154.747 224.941L153.665 223.617L153.443 220.904L154.291 219.639L154.565 217.774L156.247 218.576L158.719 218.002L158.752 217.865L160.545 218.746L161.465 216.085L161.602 214.272L162.456 211.48L164.341 212.635L166.102 212.178L167.458 213.274L168.319 215.159L170.387 215.837L171.019 216.698L172.989 215.772L175.884 217.65L177.123 218.1L178.258 216.757L180.43 216.998L180.606 218.407L182.615 220.513L182.758 223.813L183.208 224.87L185.21 225.711L186.352 224.57Z" fill="#0D0C0D" stroke="#A970FA"/>
<path d="M256.669 226.8L258 227.628L257.035 228.783L254.85 229.748L254.843 230.765L252.039 230.367L250.917 230.733L250.161 232.265L246.463 232.043L243.998 232.265L239.713 231.13L238.533 231.046L238.376 229.559L240.059 228.333L240.574 227.217L243.222 226.715L244.5 226.904L253.474 226.833L255.515 226.487L256.669 226.8ZM274.252 225.952L275.98 226.096L276.639 227.504L275.641 228.437L273.991 228.763L273 227.7L274.252 225.952ZM213.059 247.898L213.88 245.485L214.852 245.785L216.365 244.872L217.259 243.156L218.054 243.574L219.033 242.1L218.661 240.906L217.409 239.811L216.802 235.265L217.487 232.683L220.95 234.117L221.433 232.82L222.756 232.18L223.924 230.374L224.269 225.92L225.372 224.759L227.002 225.443L229.161 224.928L230.243 226.93L232.493 226.611L237.391 226.904L238.096 228.9L237.646 230.524L238.167 232.128L239.459 231.724L240.509 233.133L240.137 236.739L240.737 238.356L242.843 238.97L244.454 240.404L245.961 241.017L249.039 239.693L252.365 240.293L253.8 239.406L254.772 239.687L256.383 238.304L257.185 239.778L260.909 240.639L261.972 241.754L261.248 243.215L261.228 245.42L260.446 247.448L259.565 251.38L259.611 252.743L260.824 254.537L262.422 254.883L262.572 256.409L260.478 256.298L259.206 254.413L257.596 254.648L251.054 252.652L249.796 251.478L247.591 250.389L246.619 250.767L245.374 249.085L243.985 248.817L241.839 249.228L240.254 250.715L237.352 251.172L233.759 250.702L231.867 249.691L228.502 249.528L224.811 248.667L223.246 250.128L217.702 248.413L216.28 248.83L213.059 247.898ZM240.019 208.598L239.68 210.567L238.396 210.554L238.448 209.263L240.019 208.598Z" fill="#0D0C0D" stroke="#A970FA"/>
<path d="M161.602 214.272L161.465 216.085L160.545 218.746L158.752 217.865V217.859L158.1 215.817L158.204 214.259L159.906 214.735L161.602 214.272Z" fill="#0D0C0D" stroke="#A970FA"/>
<path d="M225.372 224.759L224.27 225.92L223.924 230.374L222.757 232.18L221.433 232.82L220.95 234.117L217.487 232.683L216.803 235.265L217.409 239.811L218.661 240.907L219.033 242.1L218.055 243.574L217.259 243.157L216.366 244.872L214.853 245.785L213.881 245.485L213.059 247.898L212.14 247.63L211.52 246.809L211.259 244.663L211.905 241.585L210.379 241.089L209.192 241.376L208.011 240.776L207.62 237.235L205.624 238.937L203.133 238.957L203.055 240.411L201.248 242.707L197.172 241.239L194.577 240.757L193.103 240.059L189.248 239.472L188.192 241.024L185.316 240.287L185.029 239.27L184.161 235.487L183.333 234.078L182.407 234.157L182.381 231.241L184.161 231.02L185.322 230.204L185.166 227.315L186.222 225.913L186.353 224.57L187.99 225.913L189.561 224.811L190.109 226.187L192.092 226.611L194.316 226.252L195.731 225.143L196.429 226.076L200.472 227.328L202.266 227.348L205.135 226.389L207.177 227.954L208.67 227.341L211.103 223.33L211.318 221.648L212.394 219.907L213.933 219.32L216.796 219.561L217.905 223.167L221.048 223.93L222.75 222.678L223.807 223.043L225.372 224.759Z" fill="#0D0C0D" stroke="#A970FA"/>
<path d="M130.148 123.463L131.674 125.687L128.244 128.635L127.866 126.587L126.933 125.759L130.148 123.463ZM134.296 121.291L134.883 120.28L136.064 122.504L135.053 123.137L133.096 121.357L130.742 122.439L129.385 121.807L130.455 120.15L130.324 118.057L131.779 118.193L134.296 121.291ZM127.233 105.626L127.657 106.878L126.933 107.987L125.896 105.965L127.233 105.626ZM116.42 104.041L116.811 106.135L116.635 108.085L115.468 107.883L114.731 106.65L114.574 105L115.814 102.88L116.42 104.041ZM121.742 101.067L122.368 102.098L123.346 102.704L122.753 103.917L121.246 102.659L121.742 101.067ZM125.479 100.011L125.361 101.765L123.946 102.613L122.27 101.765L123.744 99.3391L125.479 100.011ZM131.355 99.5152L132.444 101.628L132.261 105.424L130.605 105.046L129.079 102.933L129.509 101.4L126.972 102.326L126.359 101.067L127.722 99.45L128.981 99.1109L131.355 99.5152ZM146.759 73.3044L146.25 73.0761L146.14 69.7631L148.181 71.0739L146.759 73.3044ZM181.468 60.0457L179.681 60.4891L178.501 59.7391L179.909 58.1348L177.972 57.2609L176.929 54.5348L179.42 51.8152L182.492 55.2848L182.518 57.6457L181.468 60.0457Z" fill="#0D0C0D" stroke="#A970FA"/>
<path d="M199.017 133.852L200.269 133.63L200.628 134.067L201.469 133.676L202.076 134.387L202.323 136.122L198.345 138.77L196.976 137.954L197.569 136.924L197.882 134.511L199.017 133.852ZM200.321 85.3761L199.076 88.6304L200.837 90.0913L200.771 92.6478L203.178 95.6348L204.782 96.137L204.939 97.4152L206.739 99.2152L207.789 99.287L209.256 102.293L210.795 102.522L211.513 103.78L213.75 104.374L216.991 102.998L217.695 101.948L222.26 100.97L224.302 102.065L225.86 101.883L226.421 102.952L227.967 101.628L230.771 102.248L232.076 100.259L234.619 100.057L235.239 95.5826L236.954 94.35L239.484 93.1631L243.515 93.7565L244.669 93.0326L246.965 93.5544L247.46 95.3804L248.654 96.2478L250.532 96.2935L251.967 97.7478L254.171 97.5261L254.778 98.7522L257.328 97.5261L257.491 96.4044L259.31 95.2631L261.71 94.9696L262.65 95.8239L261.991 96.2152L261.43 99.9L259.806 100.07L258.26 103.611L258.939 104.693L257.882 107.602L255.365 111.065L252.267 113.902L250.069 114.378L252.104 116.054L252.423 119.139L252 120.587L250.382 121.813L249.241 123.45L250.004 124.813L249.137 125.954L248.113 125.263L246.293 125.83L240.873 128.902L238.565 128.713L236.895 129.639L235.369 127.8L234.515 129.58L232.91 129.352L233.093 130.663L231.352 131.139L230.419 132.528L229.017 132.717L227.393 133.878L226.78 135.091L226.747 137.152L224.68 137.589L222.763 140.524L221.889 140.328L219.071 142.741L216.971 143.811L217.676 145.2L219.052 146.146L218.445 148.891L219.939 149.478L219.332 150.907L219.847 152.093L219.169 153.443L219.691 154.48L220.48 159.254L220.506 161.491L218.628 162.241L218.002 163.239L215.171 164.504L214.878 165.359L212.406 162.933L210.502 163.82L208.93 165.293L208.05 163.572L208.01 161.439L207.469 158.837L207.691 157.683L206.947 154.187L206.386 153.385L206.869 150.404L206.347 148.748L204.502 147.646L204.058 146.107L205.689 144.287L206.243 141.222L205.943 138.796L204.117 137.146L204.541 135.861L203.028 135.28L202.115 133.8L201.587 133.415L201.006 133.865L200.113 133.18L199.565 132.241L197.393 131.596L197.132 132.822L195.776 132.293L194.993 130.957L195.163 128.57L196.708 129.333L196.8 127.311L195.365 127.461L193.473 126.157L192.371 122.009L193.904 118.963L194.204 117.489L193.382 114.672L192.515 113.609L190.897 113.341L191.041 111.189L190.48 110.42L190.839 108.47L189.639 105.28L191.217 103.702L191.517 102.652L190.402 99.7109L192.11 97.2783L192.482 93.9391L194.791 92.0674L196.121 89.2304L195.939 87.7109L198.045 86.7131L199.382 86.6804L200.321 85.3761Z" fill="#0D0C0D" stroke="#A970FA"/>
<path d="M313.794 79.1674L315.574 81.7369L315.105 82.9761L312.528 85.9043L312.502 87.9065L313.278 89.2891L316.278 92.0935L320.205 94.7543L320.641 96L322.631 96.6326L325.109 99.0782L326.002 100.748L328.272 101.674L327.333 103.917L325.435 105.443L323.818 104.746L321.476 105L316.839 104.23L314.987 102.9L314.446 101.237L313.063 100.839L314.987 104.602L314.322 105.6L313.265 104.856L311.074 106.402L310.794 107.954L309.457 111.189L308.113 113.387L307.37 116.446L308.205 118.598L306.926 121.878L307.409 123.489L307.037 126.352L309.078 124.82L309.652 125.022L308.798 128.322L309.339 130.552L307.128 131.693L304.448 131.791L302.889 133.95L301.239 137.022L298.37 138.196L297.509 139.676L294.535 141.352L294.509 143.733L290.159 146.172L290.668 146.7L292.344 145.97L293.185 146.237L293.283 150.372L292.937 151.689L295.226 152.661L294.509 156.209L292.611 155.38L290.485 155.354L287.022 154.767L285.157 155.641L284.041 152.791L284.498 150.88L283.246 150.293L283.324 146.08L280.924 141.802L283.82 138.789L284.531 135.665L282.77 134.778L282.437 133.637L280.311 131.335L278.987 131.054L278.498 127.291L277.057 125.211L276.783 122.778L277.755 118.559L275.844 119.635L274.278 121.063L272.759 121.024L272.224 117.411L270.789 116.465L271.018 115.272L272.772 112.826L274.415 113.048L275.361 112.278L275.035 110.746L273.744 108.3L273.196 106.174L269.041 106.917L267.176 109.07L265.194 110.067L262.989 109.676L262.076 108.822L262.063 107.433L257.883 107.602L258.939 104.693L258.261 103.611L259.807 100.07L261.431 99.9L261.991 96.2152L262.65 95.8239L265.337 94.0826L267.391 95.4652L267.861 94.9695L269.192 96.2413L270.45 96.6652L271.409 98.6413L273.033 98.4978L273.737 99.8608L275.315 99.2021L277.428 99.5348L279.887 97.7935L280.389 95.9608L281.935 96.0065L283.748 95.2108L285.574 95.1652L286.376 94.363L288.711 90.6065L289.689 88.3565L289.852 86.1456L291.411 84.6456L291.665 81.2152L293.381 78.163L295.207 79.8978L301.259 76.7543L303.418 76.9891L305.355 76.6108L305.785 77.6478L307.722 78.7239L308.563 78.4891L309.861 80.0413L311.25 80.5565L313.794 79.1674Z" fill="#0D0C0D" stroke="#A970FA"/>
<path d="M291.698 175.448L290.746 173.993L291.307 172.487L292.331 172.389L291.698 175.448ZM287.759 181.813L286.898 181.911L287.283 178.2L286.481 175.702L288.144 170.609L290.127 168.998L290.133 173.902L290.655 177.548L290.387 179.778L287.759 181.813ZM283.82 138.789L280.924 141.802L283.324 146.08L283.246 150.293L284.498 150.88L284.042 152.791L285.157 155.641L287.022 154.767L290.485 155.354L292.611 155.38L294.509 156.209L293.74 158.537L292.631 157.474L291.059 157.839L290.981 159.333L291.764 160.167L291.848 163.017L289.52 166.807L286.631 172.272L286.259 174.515L284.185 175.409L282.718 176.798L276.496 179.557L271.52 181.93L268.455 184.017L267.111 183.28L267.346 176.576L267.033 175.161L265.722 173.328L263.955 172.598L264.666 169.598L265.872 167.491L266.237 165.417L267.516 162.659L270.144 160.617L270.437 158.967L272.022 156.907L276.757 152.987L277.827 151.265L277.298 149.485L278.277 148.057L277.683 146.504L279.033 140.896L282.744 139.793L283.82 138.789Z" fill="#0D0C0D" stroke="#A970FA"/>
<path d="M214.879 165.359L215.172 164.504L218.003 163.239L218.629 162.241L220.507 161.491L220.481 159.254L219.692 154.48L219.17 153.443L219.848 152.093L219.333 150.907L219.94 149.478L218.446 148.891L219.053 146.146L217.677 145.2L216.972 143.811L219.072 142.741L221.89 140.328L222.764 140.524L224.681 137.589L226.748 137.152L226.781 135.091L227.394 133.878L229.018 132.717L230.42 132.528L231.353 131.139L233.094 130.663L232.911 129.352L234.516 129.58L235.37 127.8L236.896 129.639L238.566 128.713L240.874 128.902L246.294 125.83L248.114 125.263L249.137 125.954L250.005 124.813L249.242 123.45L250.383 121.813L252.001 120.587L252.424 119.139L252.105 116.054L250.07 114.378L252.268 113.902L255.366 111.065L257.883 107.602L262.064 107.433L262.077 108.822L262.99 109.676L265.194 110.067L267.177 109.07L269.042 106.917L273.196 106.174L273.744 108.3L275.035 110.746L275.361 112.278L274.416 113.048L272.772 112.826L271.018 115.272L270.79 116.465L272.224 117.411L272.759 121.024L274.279 121.063L275.844 119.635L277.755 118.559L276.783 122.778L277.057 125.211L278.498 127.291L278.987 131.054L280.311 131.335L282.437 133.637L282.77 134.778L284.531 135.665L283.82 138.789L282.744 139.793L279.033 140.896L277.683 146.504L278.277 148.057L277.298 149.485L277.827 151.265L276.757 152.987L272.022 156.907L270.437 158.967L270.144 160.617L267.516 162.659L266.237 165.417L265.872 167.491L264.666 169.598L263.955 172.598L262.077 171.541L259.664 171.17L256.781 172.741L254.687 172.97L253.866 172.376L254.387 169.5L253.937 168.176L252.157 168.3L250.624 169.572L249.014 168.346L246.633 165.359L245.029 166.761L244.996 168.724L240.809 172.011L239.159 172.474L237.64 171.033L236.133 170.42L234.157 170.915L231.151 174.143L229.214 173.961L229.787 171.867L229.514 168.522L229.774 166.109L228.764 163.885L225.809 165.32L224.544 164.061L223.031 164.002L220.585 165.607L217.67 166.552L215.981 165.137L214.879 165.359Z" fill="#0D0C0D" stroke="#A970FA"/>
<path d="M309.248 66.2218L307.781 65.687L307.494 63.9652L309.431 64.3761L309.248 66.2218ZM309.627 55.0435L308.055 54.5087L308.896 52.7674L309.92 53.6935L309.627 55.0435ZM311.694 52.0109L312.444 54.0261L311.133 54.2152L308.257 51.6326L308.981 50.7196L311.694 52.0109ZM281.824 53.3283L282.94 51.0587L284.329 50.25L284.257 48.9131L286.155 49.5326L287.003 50.6348L288.287 48.8283L290.837 48.8674L291.979 50.3283L293.603 48.6131L294.457 49.6892L297.353 49.7544L298.292 49.1935L300.992 49.6826L302.929 49.1022L305.387 51.0718L305.733 51.8544L307.781 52.2261L306.19 53.7196L309.555 57.0261L311.29 59.5892L310.383 60.6196L307.057 61.0174L304.937 60.6718L302.824 61.8065L304.527 63.8283L306.157 63.887L306.555 68.2174L308.72 69.3065L309.731 71.2174L309.574 73.8522L311.205 74.7652L311.544 76.65L313.794 79.1674L311.251 80.5565L309.861 80.0413L308.564 78.4892L307.722 78.7239L305.785 77.6479L305.355 76.6109L303.418 76.9891L301.259 76.7544L295.207 79.8979L293.381 78.1631L291.666 81.2152L291.411 84.6457L289.853 86.1457L289.69 88.3565L288.711 90.6065L286.377 94.3631L285.574 95.1652L283.748 95.2109L281.935 96.0065L280.39 95.9609L279.887 97.7935L277.429 99.5348L275.316 99.2022L273.737 99.8609L273.033 98.4978L271.409 98.6413L270.451 96.6652L269.192 96.2413L267.861 94.9696L268.174 93.2544L269.492 91.7022L269.472 89.7065L270.124 88.5848L271.709 87.8087L271.957 86.3739L270.777 85.8457L270.685 82.5652L272.133 82.3826L272.492 81.3261L274.996 79.1674L276.574 78.2805L274.814 75.6065L275.531 71.7261L276.757 70.7544L278.511 70.8848L279.946 70.0435L280.396 64.7087L281.277 62.7L280.677 60.4696L280.761 58.4087L281.824 53.4848V53.3283Z" fill="#0D0C0D" stroke="#A970FA"/>
<path d="M119.049 193.767L121.455 195.58L123.679 195.757L124.899 194.85L126.392 195.163L126.999 194.302L126.034 192.046L126.803 190.741L126.66 188.263L128.264 186.026L130.221 185.165L132.979 185.27L136.931 183.157L138.138 180.228L139.488 179.785L140.936 177.085L142.142 178.487L144.314 180.085L145.69 183.352L147.347 183.757L147.112 186.228L148.181 188.439L147.366 194.257L147.836 195.613L147.216 197.53L147.19 200.83L146.525 202.109L146.44 206.23L145.899 209.25L144.594 210.444L143.297 210.235L143.029 208.533L140.349 206.387L139.331 204.163L137.897 206.159L137.023 209.785L134.46 208.304L132.164 206.557L131.029 205.154L129.777 204.887L129.099 206.387L130.318 208.213L131.127 211.774L129.164 211.898L128.975 210.685L127.103 208.252L125.564 207.176L125.153 205.702L122.916 203.798L121.814 202.233L120.353 198.776L117.907 196.402L116.453 195.822L118.938 193.839L119.049 193.767Z" fill="#0D0C0D" stroke="#A970FA"/>
<path d="M454.637 175.337L453.268 177.163L452.746 175.591L449.779 177.678L448.885 176.38L450.503 174.841L452.661 174.359L453.874 173.23L454.853 173.863L454.637 175.337ZM436.605 167.739L438.04 168.822L437.316 170.674L440.12 171.411L439.657 175.2L436.598 176.524L434.518 177.789L432.111 178.637L427.944 176.661L426.098 175.174L423.496 172.194L423.144 168.365L424.37 167.08L425.929 168.176L426.933 167.139L428.759 166.585L433.148 166.389L436.605 167.739ZM474.953 163.996L477.966 165.404L482.309 165.111L485.655 167.667L486.64 171.887L488.244 172.037L489.294 174.815L488.713 176.159L488.518 179.237L485.655 177.9L482.779 175.454L479.224 174.039L477.32 172.885L476.909 171.43L475.996 170.733L470.935 170.152L471.45 172.239L470.863 172.872L467.179 171.972L465.333 170.98L463.057 171.098L463.559 169.324L462.34 168.757L460.787 169.865L458.544 172.343L456.946 172.741L455.707 172.089L454.396 169.696L453.268 168.789L452.85 166.624L451.67 167.361L450.809 170.798L449.303 170.896L448.344 168.398L450.137 166.826L452.818 163.193L458.185 163.167L462.085 163.337L465.111 162.776L465.881 164.87L466.977 164.602L469.644 162.176L471.333 162.033L474.62 163.467L474.953 163.996ZM443.694 246.033L445.096 246.626H447.144L445.944 248.661L443.374 247.644L443.694 246.033ZM483.64 249.998L484.5 248.276L487.109 245.772L488.485 247.07L485.909 248.178L483.64 249.998ZM469.924 245.387L468.959 245.113L467.635 242.974L468.079 241.337L470.955 241.637L471.398 243.235L469.924 245.387ZM428.942 239.243L429.816 240.476L427.337 240.991L424.513 243.365L420.516 242.609L417.881 243.072L415.996 244.702L416.374 242.1L418.787 239.041L421.618 240.033L423.731 239.609L424.787 238.63L427.696 237.561L428.942 239.243ZM438.15 238.917L437.942 236.785L439.533 237.072L438.15 238.917ZM497.857 231.933L496.448 232.611L496.69 236.237L495.842 238.572L494.955 239.759L492.463 241.748L490.859 244.885L488.263 244.409L488.107 242.315L489.77 239.459L490.663 236.394L492.835 234.522L495.137 230.974L496.794 230.465L497.857 231.933ZM455.844 231.926L454.324 231.222L455.518 229.65L456.561 230.348L455.844 231.926ZM541.898 218.38L540.02 222.88L538.298 225.085L538.429 220.311L541.403 217.265L541.898 218.38ZM513.346 211.82L511.898 211.409L511.95 208.311L512.648 206.478L513.887 209.635L513.346 211.82ZM540.261 207.809L541.018 210.73L539.016 212.361L540.516 214.141L540.085 216.254L539.205 218.126L537.594 218.824L538.135 220.48L534.15 225.163L533.648 226.337L531.359 227.407L529.833 225.111L530.44 223.213L531.405 218.374L531.164 215.387L531.666 213.274L533.974 213.391L534.803 208.141L535.872 207.235L537.085 205.272L537.059 203.915L537.979 202.376L538.761 202.402L540.111 205.213L540.261 207.809ZM515.877 210.711L514.181 212.55L515.727 207.978L516.529 206.915L518.57 201.809L519.574 202.37L518.277 206.387L516.105 208.904L515.877 210.711ZM457.2 175.194L455.55 175.572L455.707 174.02L457.09 173.772L457.2 175.194Z" fill="#0D0C0D" stroke="#A970FA"/>
<path d="M424.291 157.161L423.469 156.965L422.015 153.065L421.578 150.789L422.439 149.211L423.508 149.915L423.039 152.217L424.545 156.313L424.291 157.161ZM415.865 146.596L418.839 146.889L420.306 146.439L423.417 146.328L428.328 146.817L426.997 147.724L423.274 148.206L416.25 148.715L414.645 147.822L415.865 146.596ZM409.343 144.939L411.574 144.796L413.908 145.448L414.267 147.88L410.654 147.939L409.871 148.793L407.908 148.037L405.665 149.178L403.356 149.863L401.745 149.915L400.734 147.809L401.706 144.339L404.993 143.902L409.343 144.939ZM449.315 140.609L452.432 142.741L453.084 144.026L451.695 145.2L446.889 144.756L444.658 145.591L442.428 143.883L442.813 141.502L445.917 139.089L449.315 140.609ZM441.769 130.63L439.63 130.415L440.021 128.1L440.902 127.872L441.769 130.63ZM445.271 123.156L446.797 125.465L445.734 128.152L446.295 129.202L448.187 128.974L449.608 130.839L447.704 132.111L445.695 130.233L444.013 131.054L443.4 130.37L442.937 127.917L441.587 126.241L441.841 123.502L443.087 123.88L445.271 123.156ZM439.956 126.43L438.919 125.967L438.913 122.733L440.693 122.146L441.3 124.102L440.928 125.941L439.956 126.43ZM449.1 89.5565L451.063 91.0043L451.454 94.076L450.841 96.8152L449.758 99.0913L446.295 102.033L446.38 104.172L447.717 105.267L448.937 105.411L449.921 104.537L450.065 102.443L451.545 100.441L452.85 100.467L453.671 99.2608L452.771 97.7804L453.547 96.3261L456.058 94.2717L458.419 93.3587L460.819 93.4956L460.552 100.683L457.134 103.33L455.139 104.009L453.978 105.365L454.31 106.546L455.856 107.863L459.123 109.233L460.304 109.35L460.963 112.885L458.543 113.028L457.297 111.815L454.937 111.991L453.3 110.961L450.528 110.556L449.837 111.215L449.471 113.354L450.084 115.885L449.569 118.167L451.617 124.454L453.997 129.13L456.547 132.104L454.917 132.006L452.967 129.991L451.376 129.026L449.191 124.063L447.287 122.817L446.537 121.48L447.045 117.046L446.426 112.728L445.258 111.587L444.645 109.461L444.88 106.787L445.806 104.615L444.339 104.113L443.987 101.439L442.78 101.322L442.832 98.9413L444.495 95.3413L444.991 90.6195L446.621 87.6913L450.019 83.4782L451.31 84.4891L449.765 87.1891L448.865 87.8282L449.1 89.5565ZM457.584 85.7152L454.578 86.2304L454.115 84.926L453.867 81.6717L454.637 79.9043L456.508 77.4848L458.432 76.5652L460.121 79.6565L459.189 83.1L457.584 85.7152Z" fill="#0D0C0D" stroke="#A970FA"/>
<path d="M292.051 250.22L290.844 253.513L288.51 257.093L289.136 258.6L286.86 259.467L283.768 258.143L281.936 258.235L279.62 257.55L279.262 256.617L281.923 256.252L282.633 255.704L282.946 252.809L282.47 251.609L283.67 250.122L285.947 248.341L287.283 247.793L290.955 248.889L292.051 250.22ZM304.149 246.867L304.383 248.054L302.975 250.604L302.583 247.422L304.149 246.867ZM324.105 248.491L323.205 248.133L323.962 246.47L324.933 247.396L324.105 248.491ZM309.151 246.078L311.694 246.535L311.851 248.243L313.527 250.233L315.836 248.361L318.451 249.065L319.031 250.643L320.59 248.837L323.088 249.339L323.57 251.667L322.964 253.291L323.146 254.563L324.444 254.387L324.327 256.285L322.149 256.239L319.077 255.665L318.92 256.559L321.086 256.533L320.349 257.811L318.764 257.061L315.092 258.43L314.146 257.993L313.814 255.333L311.244 257.967L309.888 257.765L306.953 259.363L306.386 258.698L304.468 259.043L300.555 261.006L297.483 260.622L295.292 261.9L292.038 260.661L291.262 259.774L291.646 258.176L292.69 257.42L292.149 254.909L293.492 252.88L294.751 252.652L297.927 250.278L301.064 251.876L301.638 251.074L303.412 250.891L304.925 252.424L306.06 255.802L308.518 256.03L309.77 254.935L311.662 255.046L312.849 253.793L310.716 252.241L309.04 251.759L306.881 250.07L305.544 248.061L305.87 247.148L308.766 245.713L309.151 246.078Z" fill="#0D0C0D" stroke="#A970FA"/>
<path d="M379.645 283.885L378.699 286.885L377.316 287.733L376.788 289.141L373.508 289.702L372.979 290.856L371.238 290.68L371.271 288.378L374.505 287.524L377.851 284.315L379.645 283.885ZM360.229 282.939L360.614 284.4L358.749 285.828L356.303 285.17L360.229 282.939ZM381.223 278.602L379.736 280.937L378.771 280.291L380.251 278.211L381.223 278.602ZM335.512 266.393L336.751 267.88L338.023 268.33L338.042 269.85L339.099 270.757L341.238 270.013L342.842 271.676L343.736 274.467L345.281 275.348L345.536 277.663L344.003 279.13L341.636 279.802L340.168 280.911L338.942 280.03L336.908 280.05L335.29 278.837L333.666 275.843L330.477 273.685L330.177 272.746L327.536 271.996L326.512 272.811L325.325 272.113L322.064 271.35L320.395 268.898L322.031 267.046L324.145 266.126L328.879 266.237L330.353 265.741L332.375 266.576L334.547 264.62L335.512 266.393ZM403.012 259.572L403.716 261.235L405.334 259.722L406.26 260.648L405.979 262.911L403.514 262.976L403.292 264.822L403.997 265.428L404.323 267.535L402.875 268.904L402.595 270.398L400.782 271.735L398.897 274.343L396.06 276.293L395.427 277.552L393.366 278.772L390.705 278.504L388.429 280.376L386.414 281.263L382.814 281.909L381.901 281.25L381.992 278.902L384.992 277.604L384.562 276.254L382.99 276.489L383.14 274.852L384.301 273.978L384.784 270.274L386.636 268.33L387.96 267.567L389.61 265.67L390.295 265.617L390.888 266.693L392.701 266.087L394.227 267.9L394.736 266.191L396.027 264.985L396.425 263.041L398.166 262.793L401.01 260.472L403.012 259.572ZM329.342 251.576L330.321 252.3L330.366 253.735L329.421 254.224L328.527 256.311L327.764 255.626L327.829 253.728L329.342 251.576ZM379.553 251.204L376.984 252.541L377.01 251.341L379.553 251.204ZM380.505 248.191L381.699 249.117L381.405 250.591L377.408 250.93L377.975 249.3L379.547 248.139L380.505 248.191ZM394.645 249.978L393.705 251.909L391.736 253.167L391.455 251.1L390.562 249.952L391.918 249.111L392.714 250.024L394.651 247.546L395.303 249.378L394.645 249.978ZM389.108 247.728L386.564 251.178L385.873 250.846L382.918 253.585L380.062 252.92L381.901 250.787L383.858 249.828L388.403 247.083L389.108 247.728ZM398.434 246.352L399.327 247.37L401.545 246.77L403.71 247.037L406.234 246.783L406.586 249.554L405.523 250.076L403.155 250.18L401.871 250.735L399.96 250.65L396.738 251.693L395.753 250.526L396.588 249.496L396.653 247.996L398.434 246.352ZM376.795 246.111L377.818 249.339L376.312 249.711L374.864 253.78L372.555 254.309L368.955 256.233L364.547 256.115L363.666 257.002L359.518 258.274L357.542 257.093L354.999 256.943L353.779 258.835L351.953 258.47L349.892 259.572L348.438 259.102L347.616 257.693L346.09 258.561L344.108 257.335L341.258 257.361L340.247 257.935L338.075 256.833L336.275 257.387L333.855 257.191L333.386 256.507L333.679 253.585L336.895 250.52L340.208 248.948L343.182 249.111L345.471 248.785L346.671 249.9L350.016 249.913L350.564 251.002L354.262 252.072L354.764 253.174L356.936 254.152L358.188 252.841L359.988 252.235L362.453 252.261L365.036 252.789L366.614 254.296L369.934 254.048L371.962 250.637L374.225 250.187L376.09 248.85L375.105 247.552L374.805 246.13L375.986 245.452L376.795 246.111Z" fill="#0D0C0D" stroke="#A970FA"/>
<path d="M593.498 250.95L589.364 250.376L589.064 249.502L591.405 247.33L592.787 246.887L593.883 250.2L593.498 250.95ZM589.885 248.465L587.661 250.409L585.509 251.172L584.374 250.663L579.718 250.298L576.587 251.309L576.522 250.454L578.146 246.613L581.035 241.207L583.266 237.985L585.77 236.074L587.766 235.2L591.594 234.385L594.124 234.991L595.253 237.209L596.681 238.33L595.716 240.789L594.64 242.517L593.994 245.002L592.494 246.639L590.89 247.037L589.885 248.465ZM564.085 144.744L566.329 145.265L571.024 145.676L571.996 146.87L567.424 148.141L563.009 147.678L559.853 146.804L558.366 145.794L555.561 144.9L553.031 144.659L552.203 143.485L562.585 144.3L564.085 144.744ZM543.314 185.739L545.577 182.817L547.044 180.059L548.955 177.457L542.374 174.62L537.353 172.911L534.764 171.639L535.742 169.33L537.874 167.322L538.122 165.535L539.374 164.785L541.396 162.698L542.159 165.307L544.044 164.576L543.287 167.407L544.09 169.383L545.655 170.765L550.24 171.665L552.001 171.287L553.324 170.27L554.459 168.326L556.305 167.289V166.278L558.287 165.3L559.044 162.072L560.055 160.735L563.231 158.759L564.509 155.452L564.431 154.122L565.487 153.098L567.17 153.046L568.996 153.724L570.177 153.607L574.501 151.402L576.157 151.304L576.822 150.567L576.353 148.911L575.166 147.678L575.342 146.55L580.422 143.896L582.014 142.715L585.327 141.359L586.494 141.6L588.229 143.459L593.009 145.435L596.29 146.361L598.801 148.93L601.553 149.654L606.418 152.283L611.433 155.367L612.842 155.602L616.657 154.82L617.296 156.091L618.783 156.9L619.598 156.489L623.003 156.88L625.559 159.287L628.044 159.352L625.083 218.094L623.883 219.959L624.092 220.735L622.787 222.809L622.716 225.254L623.635 227.107L624.424 226.944L621.242 262.265L619.122 260.974L616.344 257.12L615.183 254.426L611.798 250.728L609.574 248.68L608.668 247.226L611.166 243.476L610.096 243.28L609.724 245.296L607.951 246.248L603.92 246.411L602.603 247.233L599.798 247.624L598.494 245.844L596.596 246.646L594.001 249.15L593.244 246.489L594.294 245.022L594.561 243.059L595.729 242.341L597.222 237.111L595.481 235.957L594.679 233.948L592.214 232.174L592.298 231.678L595.827 231.835L593.414 230.354L591.32 228.02L591.646 226.709L593.57 227.009L595.579 225.88L592.977 224.217L593.035 222.45L590.59 219.496L589.553 216.522L589.357 214.435L588.548 212.407L588.685 210.554L585.731 208.591L585.522 204.307L584.355 203.785L580.644 200.576L577.298 198.711L575.485 196.833L574.677 197.237L571.898 196.317L569.453 195.939L563.348 192.033L561.959 192.052L558.992 190.617L557.609 189.117L554.824 189.163L550.801 188.139L548.14 188.615L543.314 185.739ZM553.174 128.694L555.79 128.954L557.055 129.939L558.77 129.541L561.144 131.883L562.872 134.85L565.207 135.359L563.811 137.015L561.529 137.354L560.851 136.761L558.62 136.8L557.935 136.004L557.387 132.248L556.553 131.067L555.118 131.863L553.716 130.467L552.144 129.809L553.174 128.694Z" fill="#0D0C0D" stroke="#A970FA"/>
<path d="M545.505 136.05L543.868 134.511L544.429 132.978L546.477 134.283L545.505 136.05ZM480.698 150.665L479.727 150.704L476.896 149.72L474.535 148.285L474.757 147.398L478.696 145.578L482.981 144.613L484.051 146.902V149.263L480.698 150.665ZM490.637 132.157L492.483 132.483L492.959 135.196L491.883 139.154L490.214 139.252L488.622 137.7L487.416 133.259L490.637 132.157ZM490.892 130.572L489.235 131.922L486.32 132.489L485.009 131.27L488.303 131.159L489.861 130.246L490.892 130.572ZM486.672 126.626L484.755 126.378L484.957 125.198L486.796 124.559L487.885 125.465L486.672 126.626ZM541.396 162.698L539.374 164.785L538.122 165.535L537.874 167.322L535.742 169.33L534.764 171.639L537.353 172.911L542.374 174.62L548.955 177.457L547.044 180.059L545.577 182.817L543.314 185.739L540.398 183.228L541.031 180.444L538.768 181.663L537.64 179.883L536.733 179.622L535.794 181.415L533.961 179.557L534.411 178.539L533.564 177.333L532.155 178.167L530.811 177.3L529.651 174.75L528.861 176.146L527.922 175.435L527.127 173.446L527.837 172.2L528.248 168.496L530.316 166.754L529.944 164.85L527.537 167.609L527.172 171.946L525.79 172.728L526.292 174.424L523.65 177.02L524.27 179.178L521.218 182.452L518.648 182.224L516.77 182.791L515.948 181.402L514.814 176.798L515.309 175.448L517.318 174.209L515.955 172.604L515.7 169.82L513.861 170.589L512.511 167.302L509.309 164.687L507.601 164.485L506.087 164.935L504.49 162.091L507.959 160.383L512.094 160.715L514.924 162.567L516.6 161.198L519.111 157.507L520.318 156.704L522.235 156.254L524.107 157.898L525.731 158.596L527.087 158.165L528.066 158.922L529.527 157.259L531.372 155.811L531.887 152.361L530.955 151.467L527.766 153.404L524.935 153.437L523.031 152.837L518.44 154.213L516.464 153.574L514.696 154.533L513.164 152.661L510.666 153.77L509.374 153.9L505.924 151.017L504.496 147.704L504.887 145.05L503.896 144.013L501.737 143.061L499.957 141.62L496.422 140.798L495.816 141.744L492.574 141.059L491.414 140.237L492.764 137.713L494.394 137.328L495.372 135.404L495.914 132.58L495.509 131.074L499.037 129.678L499.911 130.122L503.955 129.039L504.581 127.917L507.157 125.446L509.394 124.148L511.637 123.522L515.446 123.88L520.918 126.561L521.714 126.646L524.44 129.444L527.172 129.985L529.637 129.515L532.722 129.607L534.483 131.27L533.348 133.35L534.646 136.278L535.696 137.374L536.694 139.565L536.061 140.361L535.833 142.67L533.994 144.574L534.692 148.617L534.483 150.476L534.751 154.709L535.566 156.424L536.857 157.637L538.65 163.259L539.524 162.854L538.905 158.491L539.877 157.076L541.246 157.898L541.396 162.698ZM490.403 118.383L493.983 119.276L496.168 120.73L496.468 122.4L495.548 124.207L494.381 123.437L491.342 123.528L490.37 122.048L489.222 121.52L487.827 119.354L486.985 120.254L488.361 121.957L490.944 123.15L490.911 124.539L488.772 125.23L487.703 122.87L486.457 123.189L485.414 122.1L484.272 122.426L483.894 120.45L482.296 119.759L487.37 118.924L489.124 118.278L490.403 118.383Z" fill="#0D0C0D" stroke="#A970FA"/>
<path d="M116.355 130.207L114.444 130.454L111.594 129.887L109.996 130.011L108.633 132.143L106.964 133.526L106.083 135.046L104.903 135.73L102.659 135.104L100.585 133.239L98.9157 133.057L96.1179 131.961L93.7114 133.539L91.4483 132.802L90.6918 131.557L88.1353 129.776L87.4179 128.511L86.0679 127.943L83.5309 125.922L82.52 123.007L80.557 123.437L79.6766 121.846L79.1874 118.767L80.4461 117.88L80.1135 114.091L79.1809 114.013L78.1374 115.226L75.0331 114.47L74.4201 112.878L72.7635 112.526L72.757 111.476L71.7461 109.05L72.457 106.996L71.2374 105.933L70.4157 103.807L70.9635 102.293L70.3961 100.82L70.5657 99.3065L69.9787 96.9783L69.8809 96.1891L72.607 95.6152L73.3179 95.2174L74.5896 94.5718L74.8831 92.9152L74.4331 90.0717L72.7114 89.1L73.5853 83.6283L73.4483 82.7674L72.7179 80.1065L72.9918 78.3391L74.1527 81.7304L77.1787 84.5804L78.4048 83.5565L79.2201 81.9717L81.1114 81.7174L83.0614 82.0044L83.257 83.1783L86.6157 86.0283L86.87 88.0044L88.0114 90.9457L89.8701 91.95L92.7722 91.9239L96.3722 95.3935L97.9766 96.3783L98.8701 99.1891L98.7331 100.78L99.4048 102.62L102.561 105.933L104.068 106.565L108.027 106.513L108.946 107.087L110.981 109.924L111 111.026L105.242 114.626L108.587 113.909L112.109 111.6L112.885 110.367L114.672 109.598L116.035 110.172L119.987 113.622L120.972 118.115L118.122 118.493L117.385 121.526L120 122.387L119.498 123.639L118.168 124.311L117.887 125.354L115.8 126.959L115.494 128.922L116.355 130.207ZM112.409 110.041L111.692 109.148L112.05 107.563L112.866 106.95L113.811 108.085L113.922 109.357L112.409 110.041ZM104.707 102.365L106.566 102.111L110.264 104.883L109.957 107.126L108.137 105.548L105.385 105.45L104.055 105.861L101.74 104.198L102.979 103.2L102.587 100.572L103.742 100.337L104.707 102.365ZM110.335 101.674L112.103 103.983L111.014 104.857L109.077 103.291L106.572 101.804L105.157 101.42L105.887 99.9L106.846 99.7174L110.335 101.674ZM101.622 103.454L99.7896 101.804L98.8961 97.8652L98.9157 96.0978L100.064 95.8565L102.431 98.2891L102.242 100.591L102.535 102.854L101.622 103.454ZM102.881 95.1978L103.044 97.8457L102.444 97.95L100.337 95.6283L98.1331 95.25L96.7114 94.0631L96.8483 92.4522L98.3157 93.1435L100.624 93.5087L102.627 94.3435L102.881 95.1978ZM90.6266 91.0761L88.507 90.1044L87.7374 87.8152L88.3505 85.4935L91.0766 84.587L92.8896 86.5891L92.1983 89.9739L90.6266 91.0761Z" fill="#0D0C0D" stroke="#A970FA"/>
<path d="M389.132 113.38L389.986 111.163L390.039 109.246L389.354 107.928L387.756 107.609L386.302 106.291L386.113 105.085L384.273 103.128L386.119 103.03L390.3 104.393L391.01 104.12L394.043 104.954L395.289 104.902L400.441 102.065L401.4 99.6L404.295 99.3913L404.778 98.1782L403.61 97.1674L404.85 95.6935L406.187 95.9739L407.771 94.9304L407.523 93.2087L409.558 91.3239L412.297 92.1978L413.4 94.2587L411.267 96.7761L410.693 99.0978L408.723 102.73L407.686 103.252L405.554 105.378L404.054 108.75L402.541 110.896L400.891 111.874L391.689 113.641L389.132 113.38ZM417.202 60.9587L418.5 63.9456L418.023 64.8326L416.1 63.8478L416.139 61.8261L414.736 60.4891L415.982 59.25L417.202 60.9587ZM432.965 55.1152L431.928 53.8108L433.18 51.5608L432.195 50.7913L431.732 49.2391L432.306 46.3956L433.963 47.2435L434.863 50.563L433.408 54.5935L432.965 55.1152Z" fill="#0D0C0D" stroke="#A970FA"/>
<path d="M71.2382 105.933L72.4578 106.996L71.7469 109.05L72.7578 111.476L72.7643 112.526L74.4208 112.878L75.0339 114.47L78.1382 115.226L79.1817 114.013L80.1143 114.091L80.4469 117.88L79.1882 118.767L79.6774 121.846L80.5578 123.437L82.5208 123.007L83.5317 125.922L86.0687 127.944L87.4187 128.511L88.1361 129.776L90.6926 131.557L91.4491 132.802L93.7121 133.539L94.3121 136.311L93.6535 137.257L91.9187 138.144L92.2121 140.791L91.71 141.809L90.1121 142.944L89.1534 144.594L85.4165 145.187L84.0926 144.594L84.21 147.939L85.6252 149.909L86.3361 152.12L86.2578 154.102L85.6056 155.009L82.5143 157.357L80.7665 154.826L79.8339 152.296L80.7143 150.717L80.4078 148.102L77.7665 143.857L76.4882 140.954V138.985L75.5882 138.646L73.86 136.135L74.0948 134.57L72.9208 130.794L70.6969 128.211L69.6208 126.117L66.5361 122.889L65.5252 120.437L65.7339 119.204L64.1165 117.267L60.6991 115.591L60.0861 114.424L57.6013 114.294L58.3317 113.015L59.5448 112.617L60.7187 110.426L62.0491 109.598L64.0448 109.526L65.01 110.928L66.8752 110.817L68.3687 109.67L67.7621 107.511L66.7708 107.296L66.6861 104.094L71.2382 105.933ZM74.6817 166.559L73.6187 168.111L71.9361 166.983L70.9252 165.124L70.8274 162.6L71.7078 161.987L74.7535 165.796L74.6817 166.559ZM70.4361 162.509L68.8121 163.174L68.31 162.17L68.5839 160.435L68.1404 157.878L70.86 159.854L71.4926 161.198L70.4361 162.509ZM64.7491 152.041L65.6882 154.115L63.21 154.265L62.2448 152.257L62.5056 150.796L63.5426 150.065L64.7491 152.041ZM54.3208 133.154L54.4708 134.954L55.2534 135.685L59.173 145.246L58.3382 146.465L56.5969 146.648L53.3882 144.607L52.4491 142.167L49.8926 137.726L51.1121 133.128L54.3208 133.154Z" fill="#0D0C0D" stroke="#A970FA"/>
<path d="M367.194 204.515L366.404 204.567L364.48 201.287L365.348 198.489L366.991 198.32L367.944 200.7L367.696 203.746L367.194 204.515ZM377.38 191.309L377.72 196.246L375.874 198.013L375.163 199.604L375.854 201.307L374.994 203.622L371.048 203.139L370.585 202.122L371.622 198.815L372.47 198.026L371.746 194.563L372.398 193.089L374.433 192.561L376.924 190.813L377.38 191.309ZM384.072 192.261L383.009 192.45L382.728 194.537L381.267 194.439L380.583 198.731L383.628 201.339L382.585 203.133L380.596 203.276L379.239 203.974L379.154 205.885L377.687 207.965L375.678 207.861L374.648 205.044L377.126 201.059L377.857 199.089L379.083 194.048L379.076 191.485L380.165 188.694L381.835 187.37L383.883 190.35L384.072 192.261ZM382.715 181.572L384.176 181.298L384.874 183.254L383.557 185.146L382.285 185.185L380.967 183.274L381.633 181.213L382.715 181.572ZM355.604 161.713L357.985 162.965L359.433 162.326L359.72 164.674L361.513 165.32L363.978 163.526L367.578 165.026L369.502 164.811L371.067 165.835L373.024 169.226L372.293 170.348L372.835 171.841L371.935 173.844L370.983 174.281L371.563 175.846L374.537 178.063L375.32 179.661L376.565 179.531L376.539 181.207L377.374 183.554L379.311 183.385L380.139 183.887L380.015 187.396L378.124 188.863L376.924 189.17L375.88 187.5L374.198 188.433L368.967 189.744L368.093 192.098L368.954 194.1L367.911 195.294L365.42 194.687L363.033 194.641L361.324 193.435L360.248 191.583L361.207 187.826L361.194 186.528L362.537 183.933L362.374 182.126L359.478 181.337L357.822 178.559L356.178 177.313L353.009 173.909L352.846 172.539L355.578 167.948L356.067 163.813L354.815 162.77L355.604 161.713Z" fill="#0D0C0D" stroke="#A970FA"/>
<path d="M345.673 219.58L345.125 215.374L345.288 211.435L346.423 210.828L346.834 213.274L345.673 219.58ZM339.797 149.843L341.59 149.08L343.012 149.12L343.755 150L346.227 150.535L347.134 147.783L349.351 151.422L351.829 153.333L352.931 152.915L354.51 153.333L358.175 155.172L361.488 156.026L363.601 157.187L364.957 158.511L365.89 160.852L365.173 161.25L363.979 163.526L361.514 165.32L359.721 164.674L359.434 162.326L357.986 162.965L355.605 161.713L355.377 160.272L352.494 159.378L350.642 159.893L344.023 164.876L344.851 167.622L346.703 169.533L346.39 173.517L346.977 176.785L345.581 179.883L345.327 182.948L345.894 183.92L345.347 187.343L346.038 191.954L345.529 193.617L344.362 194.733L344.251 196.898L343.553 199.454L345.001 202.624L345.862 206.83L345.112 206.746L344.121 205.128L340.873 206.446L338.61 205.917L336.536 208.161L335.01 208.115L334.429 206.824L332.303 205.937L330.934 203.354L331.429 199.904L332.779 197.739L333.66 195.039L333.308 192.887L334.84 190.187L335.505 184.265L335.258 180.854L333.373 176.543L334.364 174.45L334.051 173.178L333.431 169.539L334.749 167.55L336.112 167.361L335.355 165.326L335.544 162.072L337.644 161.27L339.412 159.026L339.399 157.435L338.244 156.978L337.71 155.237L336.529 154.565L336.581 153.372L339.177 151.089L339.797 149.843Z" fill="#0D0C0D" stroke="#A970FA"/>
<path d="M335.928 131.276L335.824 133.487L336.522 136.207L335.948 138.176L334.122 139.35L335.328 140.589L336.574 140.1L337.102 141.77L338.693 144.854L339.809 145.989L339.796 149.844L339.176 151.089L336.58 153.372L336.528 154.565L337.709 155.237L338.243 156.978L339.398 157.435L339.411 159.026L337.643 161.27L335.543 162.072L335.354 165.326L336.111 167.361L334.748 167.55L333.43 169.539L334.05 173.178L331.402 172.207L330.372 173.211L328.069 173.42L326.315 174.502L325.311 171.567L325.324 166.644L326.139 163.767L324.535 163.298L324.424 161.889L325.363 159.515L326.459 160.03L327.861 158.98L329.791 156.815L329.811 153.046L331.174 149.439L332.837 148.65L333.078 147.144L332.139 144.809L332.517 143.361L332.146 139.937L332.987 136.689L334.383 135.307L335.4 131.72L335.928 131.276Z" fill="#0D0C0D" stroke="#A970FA"/>
<path d="M119.008 193.794L118.03 192.659L117.958 191.485L116.387 189.078L116.869 186.991L115.643 187.154L112.708 185.289L111.215 185.002L111.254 183.509L110.569 181.637L108.293 181.448L106.024 180.45L104.126 177.907L105.378 177.15L105.502 176.1L107.047 174.026L107.85 175.174L108.978 173.752L109.128 171.274L107.856 171.483L106.252 169.95L104.217 171L102.254 169.285L102.358 167.57L101.66 166.357L99.1366 165.998L98.6344 164.315L97.5061 163.428L96.5996 161.739L97.0105 161.876L98.6279 160.767L99.0322 159.698L100.532 159.77L101.374 160.546H103.767L104.426 159.476L106.591 158.257L107.452 156.633L107.843 154.604L111.241 155.27L112.467 154.715L111.821 153.424L112.806 151.872L114.11 153.907L115.428 155.009L115.728 152.615L116.595 152.354L117.013 148.148L117.887 147.261L120.932 146.446L121.741 145.637L124.721 146.27L128.093 145.435L128.413 144.104L130.095 144.333L130.989 147.502L133.591 149.661L135.241 150.333L135.619 152.204L134.002 154.03L138.463 155.615L139.65 154.846L141.534 155.622L145.226 155.915L145.343 159.711L147.352 160.604L147.313 163.011L148.324 164.765L149.719 164.661L150.913 165.391L151.187 169.624L148.924 171.496L147.913 173.798L147.469 175.859L148.982 177.783L149.087 179.459L147.808 181.911L147.345 183.757L145.689 183.352L144.313 180.085L142.141 178.487L140.934 177.085L139.487 179.785L138.137 180.228L136.93 183.157L132.978 185.27L130.219 185.165L128.263 186.026L126.658 188.263L126.802 190.741L126.032 192.046L126.997 194.302L126.391 195.163L124.897 194.85L123.678 195.757L121.454 195.58L119.047 193.767L119.008 193.794Z" fill="#0D0C0D" stroke="#A970FA"/>
<path d="M385.573 136.624L385.371 138.58L386.023 140.035L388.364 137.335L390.334 138.411L389.949 140.948L388.945 142.096L387.608 141.62L386.897 140.472L385.24 141.926L384.843 138.952L383.427 140.1L382.58 142.193L380.871 143.243L379.762 141.248L380.173 138.783L381.451 136.826L382.384 137.198L385.077 136.252L385.573 136.624ZM371.806 102L368.467 103.996L367.684 102.789L363.895 104.628L361.319 104.961L360.334 105.75L359.16 105.489L358.058 106.161L357.98 107.687L358.827 108.691L360.223 109.037L360.145 110.837L359.056 110.465L357.21 111.62L354.425 111.717L351.458 110.107L348.784 109.93L346.567 111.059L345.23 112.637L343.567 115.48L343.267 118.48L342.419 118.996L342.067 122.387L342.869 125.015L342.536 127.826L343.71 130.135L346.371 133.207L347.232 132.665L348.725 133.663L349.84 135.809L349.469 137.204L350.923 140.354L353.127 139.304L353.682 140.446L356.532 140.576L358.514 137.165L362.056 132.359L364.553 131.041L364.28 132.398L365.558 133.337L367.984 133.917L369.04 133.109L370.567 133.259L371.303 130.976L373.247 130.839L375.373 129.913L378.314 130.402L381.712 130.161L380.343 127.826L382.971 127.663L383.649 126.926L385.919 127.024L388.462 128.4L389.049 130.167L388.012 133.943L386.14 134.407L384.908 132.241L383.767 131.928L380.362 132.502L379.553 134.511L377.708 137.4L374.212 141.607L371.251 143.511L369.177 143.83L366.262 145.252L364.769 148.239L362.649 148.604L361.417 146.857L359.89 146.08L359.336 147.235L359.982 149.55L361.143 149.217L363.008 152.178L364.99 152.557L366.614 154.546L368.317 158.1L368.871 160.435L372.784 163.911L372.158 165.893L373.612 167.459L373.025 169.226L371.069 165.835L369.503 164.811L367.58 165.026L363.98 163.526L365.173 161.25L365.89 160.852L364.958 158.511L363.601 157.187L361.488 156.026L358.175 155.172L354.51 153.333L352.932 152.915L351.83 153.333L349.351 151.422L347.134 147.783L346.227 150.535L343.756 150L343.012 149.12L341.59 149.08L339.797 149.843L339.81 145.989L338.695 144.854L337.103 141.77L336.575 140.1L335.33 140.589L334.123 139.35L335.949 138.176L336.523 136.207L335.825 133.487L335.93 131.276L337.456 129.848L338.303 128.38L339.614 131.863L340.071 130.93L338.564 125.687L338.682 123.326L339.425 121.109L337.286 119.817L338.408 118.565L339.49 119.909L340.338 118.278L340.299 116.778L338.982 114.952L340.573 114.659L339.901 112.67L340.677 110.7L342.373 109.852L342.347 106.833L344.89 105.365L345.301 102.867L346.508 102.639L346.514 104.511L347.617 105.365L349.736 105.815L350.193 104.035L351.23 102.417L352.749 101.263L353.114 97.1804L354.771 96.887L356.734 97.1739L358.782 98.6152L360.706 98.387L362.649 101.061L363.627 101.452L368.147 100.735L368.76 101.928L369.973 101.302L371.806 102Z" fill="#0D0C0D" stroke="#A970FA"/>
<path d="M47.4205 121.97L48.7118 123.593L48.2357 126.143L47.1596 127.167L46.7618 125.341L47.4205 121.97ZM47.0031 118.063L48.2031 119.7L48.5618 123.02L46.7162 119.843L47.0031 118.063ZM50.0814 115.311L52.5075 115.343L51.9205 116.941L49.1879 116.622L50.0814 115.311ZM35.0292 95.5891L37.2662 99.3652L38.6749 99.9326L40.351 101.654L40.7227 102.743L40.1749 104.224L40.077 107.915L39.0531 109.383L37.527 108.933L36.3205 105.163L34.677 103.2L33.5553 102.959L31.3249 98.1652L29.4531 96.0587L31.3183 95.7L33.2749 94.3565L35.0292 95.5891ZM43.4292 84.0978L43.8662 81.5413L42.7575 79.7282L42.301 77.6543L42.4901 73.5521L40.527 72.2543L40.227 67.5326L41.2966 65.4848L40.2466 64.5391L39.5944 61.95L38.114 59.2761L39.5814 57.6326L39.5227 56.3087L40.964 55.4674L41.5183 50.9869L44.1205 50.1913L44.2836 52.6695L47.9488 54.7761L48.627 55.9695L50.0162 56.3739L50.4531 58.1609L52.1749 59.4522L53.9553 60.1174L61.2336 65.3087L61.8336 66.4826L65.114 68.4261L68.1401 71.6022L68.3749 73.9174L70.3444 75.6587L71.2901 75.3522L72.9923 78.3391L72.7183 80.1065L73.4488 82.7674L73.5857 83.6282L72.7118 89.1L74.4336 90.0717L74.8836 92.9152L74.5901 94.5717L73.3183 95.2174L72.6075 95.6152L69.8814 96.1891L69.9792 96.9782L70.5662 99.3065L70.3966 100.82L70.964 102.293L70.4162 103.806L71.2379 105.933L66.6857 104.093L66.7705 107.296L67.7618 107.511L68.3683 109.67L66.8749 110.817L65.0096 110.928L64.0444 109.526L62.0488 109.598L60.7183 110.426L59.5444 112.617L58.3314 113.015L57.601 114.293L56.6879 108.848L54.7575 103.278L52.9901 97.3826L51.9075 94.5913L52.7227 91.7152L50.6423 90.5413L49.0053 88.0043L47.401 86.6935L43.4292 84.0978Z" fill="#0D0C0D" stroke="#A970FA"/>
<path d="M212.139 247.63L210.542 247.552L206.087 245.602L201.248 242.706L203.055 240.411L203.133 238.956L205.624 238.937L207.62 237.235L208.011 240.776L209.192 241.376L210.378 241.089L211.905 241.585L211.259 244.663L211.52 246.809L212.139 247.63Z" fill="#0D0C0D" stroke="#A970FA"/>
<path d="M396.425 263.041L396.028 264.985L394.736 266.191L394.228 267.9L392.701 266.087L390.888 266.694L390.295 265.617L392.297 264.378L396.425 263.041ZM404.323 267.535L403.997 265.428L403.293 264.822L403.514 262.976L405.98 262.911L406.26 260.648L405.334 259.722L403.717 261.235L403.012 259.572L405.386 256.435L406.273 254.465L410.147 253.474L414.073 252.822L415.984 252.046L419.088 252.724L421.234 252.326L423.764 251.152L425.76 252.124L428.675 251.139L431.988 249.561L434.61 249.691L435.914 251.289L431.669 255.209L425.564 257.257L423.908 259.467L419.48 260.087L416.434 262.246L414.217 262.565L408.758 264.548L406.045 266.928L404.323 267.535Z" fill="#0D0C0D" stroke="#A970FA"/>
<path d="M307.781 52.2261L305.734 51.8544L305.388 51.0718L302.929 49.1022L300.992 49.6826L298.292 49.1935L297.353 49.7544L294.458 49.6891L293.603 48.6131L291.979 50.3283L290.838 48.8674L288.288 48.8283L287.003 50.6348L286.155 49.5326L284.258 48.9131L284.329 50.25L282.94 51.0587L281.825 53.3283V53.3609L280.834 52.2326L281.134 51.2152L280.925 45.9978L279.744 39.0326L278.381 38.7978L279.431 38.0413L279.568 36.2935L276.549 34.2392L276.758 32.7913L278.681 30.9522L282.608 30.6913L283.579 28.937L283.814 27.3196L285.536 25.8457L286.09 21.3131L288.849 17.5892L291.073 15.5348L291.112 14.7326L292.821 12.2544L292.853 9.95219L294.164 7.16741L295.24 8.34132L295.592 11.3674L294.744 13.1674L295.899 13.9109L298.201 10.2913L297.862 8.55654L299.342 7.50654L300.823 8.40002L301.051 11.1978L301.658 13.2196L304.188 14.8044L307.097 15.5674L308.049 17.2174L307.944 19.2718L306.477 19.8522L307.54 23.6087L309.066 24.6718L310.455 24.0783L311.721 22.4413L312.601 23.0218L313.775 25.4805L313.221 26.3283L311.186 26.2761L311.623 28.3044L313.938 28.2326L314.277 26.6935L315.634 26.0544L318.64 27.15L321.744 29.7848L325.181 32.3413L327.053 32.7391L328.644 32.1261L329.903 33.6783L329.955 35.5957L329.349 36.7761L327.308 38.0218L322.384 40.0239L320.303 39.7826L317.577 38.5631L315.634 39.7305L314.688 41.4392L316.853 44.1652L320.075 47.0152L321.229 46.6891L321.966 48.0065L320.721 49.3761L318.744 49.4087L314.975 50.3283L313.253 51.3783L309.027 49.0044L307.781 52.2261ZM300.881 2.4848L300.594 4.7022L299.225 4.86524L298.162 5.86959L297.934 3.24133L300.021 1.95654L300.881 2.4848ZM295.429 4.02393V3.19567L297.008 1.95654L297.334 3.31959L295.429 4.02393Z" fill="#0D0C0D" stroke="#A970FA"/>
<path d="M224.309 80.5565L223.487 80.6283L222.907 78.6522L222.567 74.9218L223.787 75.4761L223.8 78.6783L224.309 80.5565ZM278.381 38.7979L279.744 39.0326L280.924 45.9979L281.133 51.2152L280.833 52.2326L281.824 53.3609V53.4848L280.761 58.4087L280.676 60.4696L281.276 62.7L280.396 64.7087L279.946 70.0435L278.511 70.8848L276.757 70.7544L275.531 71.7261L274.813 75.6065L276.574 78.2805L274.996 79.1674L272.491 81.3261L272.133 82.3826L270.685 82.5652L270.776 85.8457L271.957 86.3739L271.709 87.8087L270.124 88.5848L269.472 89.7065L269.491 91.7022L268.174 93.2544L267.861 94.9696L267.391 95.4652L265.337 94.0826L262.65 95.8239L261.711 94.9696L259.311 95.2631L257.491 96.4044L257.328 97.5261L254.778 98.7522L254.172 97.5261L251.967 97.7478L250.533 96.2935L248.654 96.2478L247.461 95.3805L246.965 93.5544L244.67 93.0326L243.515 93.7565L239.485 93.1631L236.954 94.35L235.239 95.5826L234.62 100.057L232.076 100.259L230.772 102.248L227.967 101.628L226.422 102.952L225.861 101.883L224.302 102.065L222.261 100.97L217.696 101.948L216.991 102.998L213.75 104.374L211.513 103.78L210.796 102.522L209.257 102.293L207.789 99.287L206.739 99.2152L204.939 97.4152L204.783 96.137L203.178 95.6348L200.772 92.6479L200.837 90.0913L199.076 88.6305L200.322 85.3761L200.426 87.5087L201.254 88.8457L204.998 91.5196L208.696 91.1544L209.889 89.7L211.813 92.4392L215.289 93.7631L216.489 93.3196L218.615 94.4544L219.815 95.8957L223.324 97.0305L222.874 95.7718L221.133 95.987L219.731 94.9957L218.915 93.2609L219.77 91.5196L221.596 85.4544L221.126 84.1957L221.57 80.2109L222.02 79.7218L223.735 81.15L224.844 80.6805L224.159 78.9131L224.7 75.5348L227.648 73.1152L233.413 72.2087L243.861 69.1174L246.241 67.7022L249.274 63.0326L251.081 59.7848L252.417 57.9522L255.281 54.9652L257.739 51.0652L258.548 47.9739L258.033 45.9261L260.107 45.5609L261.639 46.2196L262.931 48.1305L263.185 49.7022L267.881 54.587L269.798 52.6761L270.45 49.4739L269.139 43.6957L270 42.2935L271.252 42.1239L272.231 40.8979L272.459 42.0913L272.531 44.7065L273.626 48.8609L276.965 49.9826L276.013 47.9609L275.831 45.9979L275.883 44.8761L274.983 42.0652L273.965 40.6239L274.911 39.7892L276.417 40.8L278.381 38.7979Z" fill="#0D0C0D" stroke="#A970FA"/>
<path d="M273.966 40.6239L274.984 42.0652L275.884 44.8761L275.831 45.9978L276.014 47.9609L276.966 49.9826L273.627 48.8609L272.531 44.7065L272.46 42.0913L273.966 40.6239ZM272.231 40.8978L271.253 42.1239L270.001 42.2935L269.14 43.6957L270.451 49.4739L269.799 52.6761L267.881 54.587L263.186 49.7022L262.931 48.1304L261.64 46.2196L260.107 45.5609L262.625 45.5152L265.553 44.0022L267.444 41.7717L270.699 39.1826L273.262 38.5109L272.231 40.8978Z" fill="#0D0C0D" stroke="#A970FA"/>
</g>
</svg>
